Pliska-BoldItalic.ufo
<glyph name="quotedbl" format="1">
  <advance width="555"/>
  <unicode hex="0022"/>
  <outline>
    <contour>
      <point x="177" y="398" type="line"/>
      <point x="136" y="398" type="line"/>
      <point x="152" y="612" type="line" smooth="yes"/>
      <point x="155" y="650"/>
      <point x="192" y="685"/>
      <point x="230" y="685" type="curve" smooth="yes"/>
      <point x="256" y="685"/>
      <point x="276" y="663"/>
      <point x="276" y="636" type="curve" smooth="yes"/>
      <point x="276" y="622"/>
      <point x="275" y="620"/>
      <point x="261" y="589" type="curve" smooth="yes"/>
      <point x="259" y="584" type="line"/>
    </contour>
    <contour>
      <point x="437" y="398" type="line"/>
      <point x="396" y="398" type="line"/>
      <point x="412" y="612" type="line" smooth="yes"/>
      <point x="415" y="650"/>
      <point x="452" y="685"/>
      <point x="490" y="685" type="curve" smooth="yes"/>
      <point x="516" y="685"/>
      <point x="536" y="663"/>
      <point x="536" y="636" type="curve" smooth="yes"/>
      <point x="536" y="622"/>
      <point x="535" y="620"/>
      <point x="521" y="589" type="curve" smooth="yes"/>
      <point x="519" y="584" type="line"/>
    </contour>
  </outline>
</glyph>
<glyph name="dollar" format="1">
  <advance width="500"/>
  <unicode hex="0024"/>
  <outline>
    <contour>
      <point x="497" y="598" type="line"/>
      <point x="455" y="465" type="line"/>
      <point x="434" y="470" type="line"/>
      <point x="435" y="481"/>
      <point x="435" y="494"/>
      <point x="435" y="500" type="curve" smooth="yes"/>
      <point x="435" y="569"/>
      <point x="411" y="605"/>
      <point x="351" y="625" type="curve"/>
      <point x="292" y="410" type="line"/>
      <point x="353" y="357"/>
      <point x="372" y="338"/>
      <point x="396" y="308" type="curve" smooth="yes"/>
      <point x="419" y="277"/>
      <point x="432" y="238"/>
      <point x="432" y="201" type="curve" smooth="yes"/>
      <point x="432" y="87"/>
      <point x="331" y="0"/>
      <point x="201" y="0" type="curve" smooth="yes"/>
      <point x="178" y="0" type="line"/>
      <point x="150" y="-100" type="line"/>
      <point x="98" y="-100" type="line"/>
      <point x="127" y="7" type="line"/>
      <point x="64" y="22"/>
      <point x="33" y="39"/>
      <point x="-20" y="86" type="curve"/>
      <point x="22" y="228" type="line"/>
      <point x="44" y="222" type="line"/>
      <point x="47" y="114"/>
      <point x="67" y="74"/>
      <point x="137" y="42" type="curve"/>
      <point x="211" y="303" type="line"/>
      <point x="105" y="384"/>
      <point x="79" y="420"/>
      <point x="79" y="488" type="curve" smooth="yes"/>
      <point x="79" y="591"/>
      <point x="164" y="670"/>
      <point x="275" y="670" type="curve" smooth="yes"/>
      <point x="283" y="670"/>
      <point x="291" y="670"/>
      <point x="313" y="668" type="curve"/>
      <point x="331" y="733" type="line"/>
      <point x="381" y="733" type="line"/>
      <point x="361" y="661" type="line"/>
      <point x="394" y="655"/>
      <point x="441" y="636"/>
      <point x="479" y="612" type="curve"/>
    </contour>
    <contour>
      <point x="248" y="436" type="curve"/>
      <point x="303" y="635" type="line"/>
      <point x="298" y="637"/>
      <point x="294" y="637"/>
      <point x="288" y="637" type="curve" smooth="yes"/>
      <point x="222" y="637"/>
      <point x="178" y="599"/>
      <point x="178" y="542" type="curve" smooth="yes"/>
      <point x="178" y="502"/>
      <point x="195" y="476"/>
    </contour>
    <contour>
      <point x="253" y="274" type="curve"/>
      <point x="186" y="32" type="line"/>
      <point x="221" y="32"/>
      <point x="230" y="33"/>
      <point x="247" y="39" type="curve" smooth="yes"/>
      <point x="294" y="57"/>
      <point x="323" y="101"/>
      <point x="323" y="157" type="curve" smooth="yes"/>
      <point x="323" y="204"/>
      <point x="308" y="230"/>
    </contour>
  </outline>
</glyph>
<glyph name="percent" format="1">
  <advance width="833"/>
  <unicode hex="0025"/>
  <outline>
    <contour>
      <point x="676" y="376" type="curve" smooth="yes"/>
      <point x="746" y="376"/>
      <point x="793" y="329"/>
      <point x="793" y="260" type="curve" smooth="yes"/>
      <point x="793" y="184"/>
      <point x="760" y="101"/>
      <point x="706" y="44" type="curve" smooth="yes"/>
      <point x="674" y="10"/>
      <point x="628" y="-10"/>
      <point x="583" y="-10" type="curve" smooth="yes"/>
      <point x="503" y="-10"/>
      <point x="450" y="45"/>
      <point x="450" y="128" type="curve" smooth="yes"/>
      <point x="450" y="192"/>
      <point x="485" y="265"/>
      <point x="539" y="316" type="curve" smooth="yes"/>
      <point x="582" y="356"/>
      <point x="627" y="376"/>
    </contour>
    <contour>
      <point x="708" y="325" type="curve" smooth="yes"/>
      <point x="707.368" y="325.026"/>
      <point x="706.734" y="325.04"/>
      <point x="706.099" y="325.04" type="curve" smooth="yes"/>
      <point x="682.632" y="325.04"/>
      <point x="657.394" y="307.078"/>
      <point x="635" y="273" type="curve" smooth="yes"/>
      <point x="604.86" y="229.8"/>
      <point x="566.874" y="135.039"/>
      <point x="566.874" y="88.9817" type="curve" smooth="yes"/>
      <point x="566.874" y="58.9316"/>
      <point x="588.268" y="36"/>
      <point x="617" y="36" type="curve" smooth="yes"/>
      <point x="653" y="36"/>
      <point x="688" y="65"/>
      <point x="718" y="119" type="curve" smooth="yes"/>
      <point x="745" y="168"/>
      <point x="759" y="214"/>
      <point x="759" y="257" type="curve" smooth="yes"/>
      <point x="759" y="295"/>
      <point x="738" y="323"/>
    </contour>
    <contour>
      <point x="194" y="-8" type="line"/>
      <point x="543" y="612" type="line"/>
      <point x="500" y="594"/>
      <point x="461" y="585"/>
      <point x="424" y="585" type="curve" smooth="yes"/>
      <point x="414" y="585"/>
      <point x="401" y="587"/>
      <point x="381" y="590" type="curve"/>
      <point x="380" y="501"/>
      <point x="363" y="444"/>
      <point x="320" y="382" type="curve" smooth="yes"/>
      <point x="281" y="325"/>
      <point x="228" y="294"/>
      <point x="168" y="294" type="curve" smooth="yes"/>
      <point x="93" y="294"/>
      <point x="39" y="351"/>
      <point x="39" y="431" type="curve" smooth="yes"/>
      <point x="39" y="555"/>
      <point x="151" y="679"/>
      <point x="263" y="679" type="curve" smooth="yes"/>
      <point x="292" y="679"/>
      <point x="311" y="672"/>
      <point x="340" y="651" type="curve" smooth="yes"/>
      <point x="368" y="631"/>
      <point x="394" y="623"/>
      <point x="436" y="623" type="curve" smooth="yes"/>
      <point x="499" y="623"/>
      <point x="549" y="643"/>
      <point x="605" y="692" type="curve"/>
      <point x="644" y="692" type="line"/>
      <point x="250" y="-8" type="line"/>
    </contour>
    <contour>
      <point x="287" y="631" type="curve" smooth="yes"/>
      <point x="286.219" y="631.092"/>
      <point x="285.423" y="631.137"/>
      <point x="284.614" y="631.137" type="curve" smooth="yes"/>
      <point x="267.799" y="631.137"/>
      <point x="244.989" y="611.53"/>
      <point x="224" y="581" type="curve" smooth="yes"/>
      <point x="190.824" y="530.733"/>
      <point x="153.868" y="439.145"/>
      <point x="153.868" y="389.945" type="curve" smooth="yes"/>
      <point x="153.868" y="361.016"/>
      <point x="174.279" y="340"/>
      <point x="202" y="340" type="curve" smooth="yes"/>
      <point x="272" y="340"/>
      <point x="347" y="463"/>
      <point x="347" y="577" type="curve" smooth="yes"/>
      <point x="347" y="599"/>
      <point x="346" y="601"/>
      <point x="318" y="612" type="curve" smooth="yes"/>
      <point x="311" y="615"/>
      <point x="310" y="615"/>
      <point x="302" y="623" type="curve" smooth="yes"/>
      <point x="295" y="629"/>
      <point x="292" y="630"/>
    </contour>
  </outline>
</glyph>
<glyph name="ampersand" format="1">
  <advance width="778"/>
  <unicode hex="0026"/>
  <outline>
    <contour>
      <point x="673" y="101" type="curve"/>
      <point x="699" y="80" type="line"/>
      <point x="638" y="7"/>
      <point x="595" y="-18"/>
      <point x="529" y="-18" type="curve" smooth="yes"/>
      <point x="476" y="-18"/>
      <point x="435" y="0"/>
      <point x="390" y="44" type="curve"/>
      <point x="324" y="-1"/>
      <point x="268" y="-19"/>
      <point x="198" y="-19" type="curve" smooth="yes"/>
      <point x="84" y="-19"/>
      <point x="5" y="49"/>
      <point x="5" y="148" type="curve" smooth="yes"/>
      <point x="5" y="194"/>
      <point x="26" y="242"/>
      <point x="63" y="280" type="curve" smooth="yes"/>
      <point x="97" y="316"/>
      <point x="129" y="334"/>
      <point x="245" y="384" type="curve"/>
      <point x="237" y="429"/>
      <point x="234" y="452"/>
      <point x="234" y="476" type="curve" smooth="yes"/>
      <point x="234" y="598"/>
      <point x="309" y="682"/>
      <point x="419" y="682" type="curve" smooth="yes"/>
      <point x="499" y="682"/>
      <point x="557" y="634"/>
      <point x="557" y="568" type="curve" smooth="yes"/>
      <point x="557" y="501"/>
      <point x="499" y="446"/>
      <point x="375" y="396" type="curve"/>
      <point x="387" y="322"/>
      <point x="420" y="235"/>
      <point x="461" y="169" type="curve"/>
      <point x="518" y="241"/>
      <point x="535" y="270"/>
      <point x="535" y="298" type="curve" smooth="yes"/>
      <point x="535" y="320"/>
      <point x="521" y="329"/>
      <point x="479" y="336" type="curve"/>
      <point x="479" y="361" type="line"/>
      <point x="691" y="361" type="line"/>
      <point x="691" y="336" type="line"/>
      <point x="629" y="324"/>
      <point x="624" y="319"/>
      <point x="486" y="133" type="curve"/>
      <point x="525" y="82"/>
      <point x="557" y="61"/>
      <point x="596" y="61" type="curve" smooth="yes"/>
      <point x="623" y="61"/>
      <point x="644" y="72"/>
    </contour>
    <contour>
      <point x="253" y="343" type="curve"/>
      <point x="169" y="302"/>
      <point x="138" y="260"/>
      <point x="138" y="190" type="curve" smooth="yes"/>
      <point x="138" y="111"/>
      <point x="193" y="52"/>
      <point x="265" y="52" type="curve" smooth="yes"/>
      <point x="296" y="52"/>
      <point x="322" y="60"/>
      <point x="362" y="80" type="curve"/>
      <point x="306" y="167"/>
      <point x="279" y="232"/>
    </contour>
    <contour>
      <point x="366" y="434" type="curve"/>
      <point x="403" y="456"/>
      <point x="403" y="456"/>
      <point x="414" y="465" type="curve" smooth="yes"/>
      <point x="453" y="495"/>
      <point x="477" y="538"/>
      <point x="477" y="582" type="curve" smooth="yes"/>
      <point x="477" y="624"/>
      <point x="458" y="649"/>
      <point x="425" y="649" type="curve" smooth="yes"/>
      <point x="380" y="649"/>
      <point x="355" y="607"/>
      <point x="355" y="530" type="curve" smooth="yes"/>
      <point x="355" y="505"/>
      <point x="357" y="488"/>
    </contour>
  </outline>
</glyph>
<glyph name="quotesingle" format="1">
  <advance width="278"/>
  <unicode hex="0027"/>
  <outline>
    <contour>
      <point x="169" y="398" type="line"/>
      <point x="128" y="398" type="line"/>
      <point x="144" y="612" type="line" smooth="yes"/>
      <point x="147" y="650"/>
      <point x="184" y="685"/>
      <point x="222" y="685" type="curve" smooth="yes"/>
      <point x="248" y="685"/>
      <point x="268" y="663"/>
      <point x="268" y="636" type="curve" smooth="yes"/>
      <point x="268" y="622"/>
      <point x="267" y="620"/>
      <point x="253" y="589" type="curve" smooth="yes"/>
      <point x="251" y="584" type="line"/>
    </contour>
  </outline>
</glyph>
<glyph name="parenright" format="1">
  <advance width="333"/>
  <unicode hex="0029"/>
  <outline>
    <contour>
      <point x="-27" y="-179" type="curve"/>
      <point x="-44" y="-159" type="line"/>
      <point x="32" y="-89"/>
      <point x="63" y="-51"/>
      <point x="95" y="14" type="curve" smooth="yes"/>
      <point x="145" y="114"/>
      <point x="177" y="266"/>
      <point x="177" y="399" type="curve" smooth="yes"/>
      <point x="177" y="513"/>
      <point x="159" y="580"/>
      <point x="105" y="670" type="curve"/>
      <point x="128" y="685" type="line"/>
      <point x="180" y="614"/>
      <point x="201" y="580"/>
      <point x="224" y="524" type="curve" smooth="yes"/>
      <point x="255" y="450"/>
      <point x="271" y="372"/>
      <point x="271" y="299" type="curve" smooth="yes"/>
      <point x="271" y="202"/>
      <point x="245" y="114"/>
      <point x="192" y="33" type="curve" smooth="yes"/>
      <point x="141" y="-47"/>
      <point x="90" y="-95"/>
    </contour>
  </outline>
</glyph>
<glyph name="asterisk" format="1">
  <advance width="500"/>
  <unicode hex="002A"/>
  <outline>
    <contour>
      <point x="253" y="482" type="line"/>
      <point x="253" y="494" type="line" smooth="yes"/>
      <point x="253" y="527"/>
      <point x="246" y="552"/>
      <point x="227" y="584" type="curve" smooth="yes"/>
      <point x="214" y="606"/>
      <point x="210" y="618"/>
      <point x="210" y="633" type="curve" smooth="yes"/>
      <point x="210" y="664"/>
      <point x="230" y="685"/>
      <point x="261" y="685" type="curve" smooth="yes"/>
      <point x="291" y="685"/>
      <point x="311" y="664"/>
      <point x="311" y="633" type="curve" smooth="yes"/>
      <point x="311" y="618"/>
      <point x="307" y="606"/>
      <point x="294" y="584" type="curve" smooth="yes"/>
      <point x="275" y="552"/>
      <point x="268" y="527"/>
      <point x="268" y="494" type="curve" smooth="yes"/>
      <point x="268" y="482" type="line"/>
      <point x="279" y="488" type="line" smooth="yes"/>
      <point x="308" y="505"/>
      <point x="320" y="517"/>
      <point x="344" y="555" type="curve" smooth="yes"/>
      <point x="365" y="590"/>
      <point x="383" y="603"/>
      <point x="407" y="603" type="curve" smooth="yes"/>
      <point x="432" y="603"/>
      <point x="456" y="577"/>
      <point x="456" y="548" type="curve" smooth="yes"/>
      <point x="456" y="533"/>
      <point x="447" y="519"/>
      <point x="430" y="508" type="curve" smooth="yes"/>
      <point x="416" y="499"/>
      <point x="406" y="497"/>
      <point x="377" y="497" type="curve" smooth="yes"/>
      <point x="333" y="496"/>
      <point x="320" y="493"/>
      <point x="287" y="474" type="curve" smooth="yes"/>
      <point x="276" y="468" type="line"/>
      <point x="287" y="462" type="line" smooth="yes"/>
      <point x="320" y="443"/>
      <point x="331" y="441"/>
      <point x="377" y="439" type="curve" smooth="yes"/>
      <point x="406" y="439"/>
      <point x="417" y="436"/>
      <point x="430" y="429" type="curve" smooth="yes"/>
      <point x="446" y="420"/>
      <point x="456" y="403"/>
      <point x="456" y="388" type="curve" smooth="yes"/>
      <point x="456" y="359"/>
      <point x="433" y="334"/>
      <point x="406" y="334" type="curve" smooth="yes"/>
      <point x="381" y="334"/>
      <point x="365" y="346"/>
      <point x="344" y="382" type="curve" smooth="yes"/>
      <point x="322" y="418"/>
      <point x="312" y="428"/>
      <point x="279" y="448" type="curve" smooth="yes"/>
      <point x="268" y="454" type="line"/>
      <point x="268" y="442" type="line" smooth="yes"/>
      <point x="268" y="410"/>
      <point x="275" y="386"/>
      <point x="294" y="353" type="curve" smooth="yes"/>
      <point x="306" y="331"/>
      <point x="311" y="318"/>
      <point x="311" y="303" type="curve" smooth="yes"/>
      <point x="311" y="273"/>
      <point x="291" y="252"/>
      <point x="260" y="252" type="curve" smooth="yes"/>
      <point x="230" y="252"/>
      <point x="210" y="273"/>
      <point x="210" y="304" type="curve" smooth="yes"/>
      <point x="210" y="318"/>
      <point x="215" y="331"/>
      <point x="227" y="353" type="curve" smooth="yes"/>
      <point x="246" y="386"/>
      <point x="253" y="410"/>
      <point x="253" y="442" type="curve" smooth="yes"/>
      <point x="253" y="454" type="line"/>
      <point x="242" y="448" type="line" smooth="yes"/>
      <point x="209" y="428"/>
      <point x="199" y="418"/>
      <point x="177" y="382" type="curve" smooth="yes"/>
      <point x="156" y="346"/>
      <point x="140" y="334"/>
      <point x="115" y="334" type="curve" smooth="yes"/>
      <point x="88" y="334"/>
      <point x="65" y="359"/>
      <point x="65" y="388" type="curve" smooth="yes"/>
      <point x="65" y="403"/>
      <point x="75" y="420"/>
      <point x="91" y="429" type="curve" smooth="yes"/>
      <point x="103" y="436"/>
      <point x="115" y="439"/>
      <point x="144" y="439" type="curve" smooth="yes"/>
      <point x="190" y="441"/>
      <point x="201" y="443"/>
      <point x="234" y="462" type="curve" smooth="yes"/>
      <point x="245" y="468" type="line"/>
      <point x="234" y="474" type="line" smooth="yes"/>
      <point x="201" y="493"/>
      <point x="188" y="496"/>
      <point x="144" y="497" type="curve" smooth="yes"/>
      <point x="115" y="497"/>
      <point x="105" y="499"/>
      <point x="91" y="508" type="curve" smooth="yes"/>
      <point x="74" y="519"/>
      <point x="65" y="532"/>
      <point x="65" y="549" type="curve" smooth="yes"/>
      <point x="65" y="577"/>
      <point x="89" y="603"/>
      <point x="114" y="603" type="curve" smooth="yes"/>
      <point x="138" y="603"/>
      <point x="155" y="590"/>
      <point x="177" y="555" type="curve" smooth="yes"/>
      <point x="201" y="517"/>
      <point x="213" y="505"/>
      <point x="242" y="488" type="curve" smooth="yes"/>
    </contour>
  </outline>
</glyph>
<glyph name="two" format="1">
  <advance width="500"/>
  <unicode hex="0032"/>
  <outline>
    <contour>
      <point x="419" y="191" type="line"/>
      <point x="340" y="0" type="line"/>
      <point x="-27" y="0" type="line"/>
      <point x="-27" y="24" type="line"/>
      <point x="156" y="207"/>
      <point x="156" y="207"/>
      <point x="205" y="266" type="curve" smooth="yes"/>
      <point x="262" y="336"/>
      <point x="312" y="402"/>
      <point x="312" y="479" type="curve" smooth="yes"/>
      <point x="312" y="498"/>
      <point x="312" y="593"/>
      <point x="219" y="593" type="curve" smooth="yes"/>
      <point x="143" y="593"/>
      <point x="100" y="528"/>
      <point x="86" y="507" type="curve"/>
      <point x="64" y="519" type="line"/>
      <point x="92" y="578"/>
      <point x="158" y="683"/>
      <point x="283" y="683" type="curve" smooth="yes"/>
      <point x="388" y="683"/>
      <point x="446" y="593"/>
      <point x="446" y="515" type="curve" smooth="yes"/>
      <point x="446" y="421"/>
      <point x="370" y="336"/>
      <point x="302" y="278" type="curve" smooth="yes"/>
      <point x="106" y="111" type="line"/>
      <point x="255" y="111" type="line" smooth="yes"/>
      <point x="336" y="111"/>
      <point x="360" y="129"/>
      <point x="394" y="191" type="curve"/>
    </contour>
  </outline>
</glyph>
<glyph name="four" format="1">
  <advance width="500"/>
  <unicode hex="0034"/>
  <outline>
    <contour>
      <point x="453" y="248" type="line"/>
      <point x="426" y="150" type="line"/>
      <point x="358" y="150" type="line"/>
      <point x="316" y="0" type="line"/>
      <point x="188" y="0" type="line"/>
      <point x="229" y="150" type="line"/>
      <point x="-15" y="150" type="line"/>
      <point x="13" y="255" type="line"/>
      <point x="440" y="683" type="line"/>
      <point x="503" y="683" type="line"/>
      <point x="384" y="248" type="line"/>
    </contour>
    <contour>
      <point x="53" y="248" type="line"/>
      <point x="256" y="248" type="line"/>
      <point x="335" y="528" type="line"/>
    </contour>
  </outline>
</glyph>
<glyph name="five" format="1">
  <advance width="500"/>
  <unicode hex="0035"/>
  <outline>
    <contour>
      <point x="197" y="560" type="line"/>
      <point x="163" y="484" type="line"/>
      <point x="244" y="467"/>
      <point x="288" y="458"/>
      <point x="338" y="417" type="curve" smooth="yes"/>
      <point x="409" y="360"/>
      <point x="412" y="273"/>
      <point x="412" y="253" type="curve" smooth="yes"/>
      <point x="412" y="85"/>
      <point x="267" y="-13"/>
      <point x="118" y="-13" type="curve" smooth="yes"/>
      <point x="22" y="-13"/>
      <point x="-11" y="33"/>
      <point x="-11" y="63" type="curve" smooth="yes"/>
      <point x="-11" y="107"/>
      <point x="20" y="123"/>
      <point x="48" y="123" type="curve" smooth="yes"/>
      <point x="122" y="123"/>
      <point x="115" y="27"/>
      <point x="172" y="27" type="curve" smooth="yes"/>
      <point x="250" y="27"/>
      <point x="307" y="112"/>
      <point x="307" y="187" type="curve" smooth="yes"/>
      <point x="307" y="289"/>
      <point x="223" y="372"/>
      <point x="73" y="372" type="curve"/>
      <point x="204" y="669" type="line"/>
      <point x="487" y="669" type="line"/>
      <point x="451" y="560" type="line"/>
    </contour>
  </outline>
</glyph>
<glyph name="seven" format="1">
  <advance width="500"/>
  <unicode hex="0037"/>
  <outline>
    <contour>
      <point x="83" y="479" type="curve"/>
      <point x="57" y="479" type="line"/>
      <point x="144" y="669" type="line"/>
      <point x="525" y="669" type="line"/>
      <point x="144" y="0" type="line"/>
      <point x="52" y="0" type="line"/>
      <point x="384" y="556" type="line"/>
      <point x="251" y="556" type="line" smooth="yes"/>
      <point x="147" y="556"/>
      <point x="120" y="544"/>
    </contour>
  </outline>
</glyph>
<glyph name="nine" format="1">
  <advance width="500"/>
  <unicode hex="0039"/>
  <outline>
    <contour>
      <point x="363" y="575" type="curve" smooth="yes"/>
      <point x="363" y="604"/>
      <point x="363" y="651"/>
      <point x="312" y="651" type="curve" smooth="yes"/>
      <point x="203" y="651"/>
      <point x="177" y="358"/>
      <point x="177" y="358" type="curve"/>
      <point x="177" y="288"/>
      <point x="227" y="288"/>
      <point x="242" y="288" type="curve" smooth="yes"/>
      <point x="286" y="288"/>
      <point x="288" y="293"/>
      <point x="320" y="377" type="curve" smooth="yes"/>
      <point x="360" y="479"/>
      <point x="363" y="572"/>
    </contour>
    <contour>
      <point x="-6" y="-10" type="curve"/>
      <point x="-12" y="15" type="line"/>
      <point x="105" y="47"/>
      <point x="211" y="142"/>
      <point x="265" y="259" type="curve"/>
      <point x="247" y="251"/>
      <point x="231" y="245"/>
      <point x="204" y="245" type="curve" smooth="yes"/>
      <point x="113" y="245"/>
      <point x="53" y="313"/>
      <point x="53" y="412" type="curve" smooth="yes"/>
      <point x="53" y="528"/>
      <point x="130" y="683"/>
      <point x="303" y="683" type="curve" smooth="yes"/>
      <point x="413" y="683"/>
      <point x="475" y="598"/>
      <point x="475" y="466" type="curve" smooth="yes"/>
      <point x="475" y="316"/>
      <point x="354" y="41"/>
    </contour>
  </outline>
</glyph>
<glyph name="question" format="1">
  <advance width="500"/>
  <unicode hex="003F"/>
  <outline>
    <contour>
      <point x="196" y="208" type="curve"/>
      <point x="167" y="215" type="line"/>
      <point x="171" y="270"/>
      <point x="192" y="316"/>
      <point x="238" y="374" type="curve" smooth="yes"/>
      <point x="279" y="425" type="line" smooth="yes"/>
      <point x="323" y="480"/>
      <point x="343" y="526"/>
      <point x="343" y="573" type="curve" smooth="yes"/>
      <point x="343" y="622"/>
      <point x="316" y="653"/>
      <point x="274" y="653" type="curve" smooth="yes"/>
      <point x="242" y="653"/>
      <point x="212" y="634"/>
      <point x="212" y="615" type="curve" smooth="yes"/>
      <point x="212" y="609"/>
      <point x="215" y="603"/>
      <point x="223" y="593" type="curve" smooth="yes"/>
      <point x="236" y="576"/>
      <point x="241" y="562"/>
      <point x="241" y="547" type="curve" smooth="yes"/>
      <point x="241" y="515"/>
      <point x="214" y="488"/>
      <point x="180" y="488" type="curve" smooth="yes"/>
      <point x="146" y="488"/>
      <point x="119" y="517"/>
      <point x="119" y="555" type="curve" smooth="yes"/>
      <point x="119" y="630"/>
      <point x="193" y="684"/>
      <point x="294" y="684" type="curve" smooth="yes"/>
      <point x="399" y="684"/>
      <point x="470" y="626"/>
      <point x="470" y="539" type="curve" smooth="yes"/>
      <point x="470" y="477"/>
      <point x="433" y="427"/>
      <point x="344" y="369" type="curve" smooth="yes"/>
      <point x="278" y="326" type="line" smooth="yes"/>
      <point x="240" y="301"/>
      <point x="224" y="278"/>
    </contour>
    <contour>
      <point x="154" y="135" type="curve" smooth="yes"/>
      <point x="194" y="135"/>
      <point x="227" y="101"/>
      <point x="227" y="61" type="curve" smooth="yes"/>
      <point x="227" y="19"/>
      <point x="194" y="-13"/>
      <point x="152" y="-13" type="curve" smooth="yes"/>
      <point x="111" y="-13"/>
      <point x="79" y="19"/>
      <point x="79" y="61" type="curve" smooth="yes"/>
      <point x="79" y="103"/>
      <point x="112" y="135"/>
    </contour>
  </outline>
</glyph>
<glyph name="J" format="1">
  <advance width="500"/>
  <unicode hex="004A"/>
  <outline>
    <contour>
      <point x="300" y="607" type="curve" smooth="yes"/>
      <point x="300" y="608" type="line" smooth="yes"/>
      <point x="300" y="630"/>
      <point x="286" y="636"/>
      <point x="227" y="644" type="curve"/>
      <point x="227" y="669" type="line"/>
      <point x="524" y="669" type="line"/>
      <point x="524" y="644" type="line"/>
      <point x="475" y="638"/>
      <point x="457" y="626"/>
      <point x="443" y="572" type="curve" smooth="yes"/>
      <point x="315" y="93" type="line" smooth="yes"/>
      <point x="280" y="-38"/>
      <point x="214" y="-99"/>
      <point x="106" y="-99" type="curve" smooth="yes"/>
      <point x="18" y="-99"/>
      <point x="-46" y="-56"/>
      <point x="-46" y="2" type="curve" smooth="yes"/>
      <point x="-46" y="41"/>
      <point x="-18" y="72"/>
      <point x="18" y="72" type="curve" smooth="yes"/>
      <point x="53" y="72"/>
      <point x="81" y="44"/>
      <point x="81" y="9" type="curve" smooth="yes"/>
      <point x="81" y="-23"/>
      <point x="58" y="-24"/>
      <point x="58" y="-45" type="curve" smooth="yes"/>
      <point x="58" y="-57"/>
      <point x="67" y="-63"/>
      <point x="85" y="-63" type="curve" smooth="yes"/>
      <point x="121" y="-63"/>
      <point x="136" y="-35"/>
      <point x="175" y="114" type="curve" smooth="yes"/>
      <point x="289" y="546" type="line" smooth="yes"/>
      <point x="296" y="572"/>
      <point x="300" y="595"/>
    </contour>
  </outline>
</glyph>
<glyph name="N" format="1">
  <advance width="722"/>
  <unicode hex="004E"/>
  <outline>
    <contour>
      <point x="304" y="669" type="line"/>
      <point x="519" y="204" type="line"/>
      <point x="599" y="491" type="line" smooth="yes"/>
      <point x="610" y="531"/>
      <point x="617" y="567"/>
      <point x="617" y="585" type="curve" smooth="yes"/>
      <point x="617" y="623"/>
      <point x="596" y="639"/>
      <point x="537" y="644" type="curve"/>
      <point x="537" y="669" type="line"/>
      <point x="746" y="669" type="line"/>
      <point x="746" y="644" type="line"/>
      <point x="688" y="631"/>
      <point x="681" y="623"/>
      <point x="644" y="491" type="curve" smooth="yes"/>
      <point x="501" y="-15" type="line"/>
      <point x="473" y="-15" type="line"/>
      <point x="216" y="534" type="line"/>
      <point x="117" y="178" type="line" smooth="yes"/>
      <point x="106" y="137"/>
      <point x="99" y="102"/>
      <point x="99" y="84" type="curve" smooth="yes"/>
      <point x="99" y="45"/>
      <point x="120" y="30"/>
      <point x="179" y="25" type="curve"/>
      <point x="179" y="0" type="line"/>
      <point x="-29" y="0" type="line"/>
      <point x="-29" y="25" type="line"/>
      <point x="26" y="36"/>
      <point x="33" y="47"/>
      <point x="72" y="178" type="curve" smooth="yes"/>
      <point x="192" y="589" type="line"/>
      <point x="173" y="633"/>
      <point x="164" y="639"/>
      <point x="109" y="644" type="curve"/>
      <point x="109" y="669" type="line"/>
    </contour>
  </outline>
</glyph>
<glyph name="P" format="1">
  <advance width="614"/>
  <unicode hex="0050"/>
  <outline>
    <contour>
      <point x="613" y="512" type="curve" smooth="yes"/>
      <point x="613" y="374"/>
      <point x="470" y="317"/>
      <point x="352" y="317" type="curve" smooth="yes"/>
      <point x="321" y="317"/>
      <point x="290" y="319"/>
      <point x="259" y="322" type="curve"/>
      <point x="244" y="268"/>
      <point x="195" y="124"/>
      <point x="195" y="68" type="curve" smooth="yes"/>
      <point x="195" y="26"/>
      <point x="235" y="26"/>
      <point x="267" y="25" type="curve"/>
      <point x="267" y="0" type="line"/>
      <point x="-27" y="0" type="line"/>
      <point x="-27" y="25" type="line"/>
      <point x="24" y="34"/>
      <point x="39" y="45"/>
      <point x="53" y="97" type="curve" smooth="yes"/>
      <point x="176" y="546" type="line" smooth="yes"/>
      <point x="181" y="563"/>
      <point x="186" y="584"/>
      <point x="186" y="602" type="curve" smooth="yes"/>
      <point x="186" y="643"/>
      <point x="145" y="640"/>
      <point x="113" y="644" type="curve"/>
      <point x="113" y="669" type="line"/>
      <point x="400" y="669" type="line" smooth="yes"/>
      <point x="506" y="669"/>
      <point x="613" y="638"/>
    </contour>
    <contour>
      <point x="467" y="541" type="curve" smooth="yes"/>
      <point x="467" y="597"/>
      <point x="444" y="637"/>
      <point x="382" y="637" type="curve" smooth="yes"/>
      <point x="348" y="637"/>
      <point x="341" y="622"/>
      <point x="333" y="593" type="curve" smooth="yes"/>
      <point x="269" y="354" type="line"/>
      <point x="282" y="353"/>
      <point x="294" y="352"/>
      <point x="307" y="352" type="curve" smooth="yes"/>
      <point x="422" y="352"/>
      <point x="467" y="433"/>
    </contour>
  </outline>
</glyph>
<glyph name="V" format="1">
  <advance width="667"/>
  <unicode hex="0056"/>
  <outline>
    <contour>
      <point x="715" y="669" type="line"/>
      <point x="715" y="644" type="line"/>
      <point x="687" y="635"/>
      <point x="669" y="623"/>
      <point x="656" y="604" type="curve" smooth="yes"/>
      <point x="263" y="-18" type="line"/>
      <point x="231" y="-18" type="line"/>
      <point x="155" y="491" type="line" smooth="yes"/>
      <point x="133" y="634"/>
      <point x="127" y="644"/>
      <point x="65" y="644" type="curve"/>
      <point x="65" y="669" type="line"/>
      <point x="363" y="669" type="line"/>
      <point x="363" y="644" type="line"/>
      <point x="296" y="638"/>
      <point x="287" y="633"/>
      <point x="287" y="599" type="curve" smooth="yes"/>
      <point x="287" y="593"/>
      <point x="287" y="589"/>
      <point x="288" y="583" type="curve" smooth="yes"/>
      <point x="339" y="182" type="line"/>
      <point x="529" y="484" type="line" smooth="yes"/>
      <point x="568" y="545"/>
      <point x="588" y="589"/>
      <point x="588" y="611" type="curve" smooth="yes"/>
      <point x="588" y="630"/>
      <point x="576" y="639"/>
      <point x="548" y="642" type="curve" smooth="yes"/>
      <point x="544" y="642"/>
      <point x="534" y="643"/>
      <point x="523" y="644" type="curve"/>
      <point x="523" y="669" type="line"/>
    </contour>
  </outline>
</glyph>
<glyph name="Y" format="1">
  <advance width="611"/>
  <unicode hex="0059"/>
  <outline>
    <contour>
      <point x="659" y="644" type="line"/>
      <point x="616" y="636"/>
      <point x="592" y="609"/>
      <point x="568" y="575" type="curve" smooth="yes"/>
      <point x="378" y="308" type="line"/>
      <point x="363" y="251"/>
      <point x="318" y="127"/>
      <point x="318" y="69" type="curve" smooth="yes"/>
      <point x="318" y="24"/>
      <point x="361" y="26"/>
      <point x="395" y="25" type="curve"/>
      <point x="395" y="0" type="line"/>
      <point x="73" y="0" type="line"/>
      <point x="73" y="25" type="line"/>
      <point x="132" y="30"/>
      <point x="157" y="35"/>
      <point x="174" y="97" type="curve" smooth="yes"/>
      <point x="234" y="313" type="line"/>
      <point x="146" y="581" type="line" smooth="yes"/>
      <point x="129" y="632"/>
      <point x="125" y="637"/>
      <point x="73" y="644" type="curve"/>
      <point x="73" y="669" type="line"/>
      <point x="356" y="669" type="line"/>
      <point x="356" y="644" type="line"/>
      <point x="354.615" y="644"/>
      <point x="353.189" y="644.003"/>
      <point x="351.728" y="644.003" type="curve" smooth="yes"/>
      <point x="324.703" y="644.003"/>
      <point x="286" y="643.103"/>
      <point x="286" y="608" type="curve" smooth="yes"/>
      <point x="286" y="568"/>
      <point x="350" y="392"/>
      <point x="363" y="352" type="curve"/>
      <point x="492" y="538" type="line" smooth="yes"/>
      <point x="508" y="562"/>
      <point x="518" y="574"/>
      <point x="518" y="603" type="curve" smooth="yes"/>
      <point x="518" y="641"/>
      <point x="481" y="644"/>
      <point x="451" y="644" type="curve"/>
      <point x="451" y="669" type="line"/>
      <point x="659" y="669" type="line"/>
    </contour>
  </outline>
</glyph>
<glyph name="Z" format="1">
  <advance width="611"/>
  <unicode hex="005A"/>
  <outline>
    <contour>
      <point x="554" y="194" type="line"/>
      <point x="495" y="0" type="line"/>
      <point x="-11" y="0" type="line"/>
      <point x="-11" y="29" type="line"/>
      <point x="423" y="634" type="line"/>
      <point x="345" y="634" type="line" smooth="yes"/>
      <point x="235" y="634"/>
      <point x="172" y="597"/>
      <point x="93" y="487" type="curve"/>
      <point x="65" y="491" type="line"/>
      <point x="122" y="669" type="line"/>
      <point x="590" y="669" type="line"/>
      <point x="590" y="640" type="line"/>
      <point x="156" y="35" type="line"/>
      <point x="226" y="35" type="line" smooth="yes"/>
      <point x="314" y="35"/>
      <point x="373" y="49"/>
      <point x="418" y="80" type="curve" smooth="yes"/>
      <point x="458" y="107"/>
      <point x="496" y="149"/>
      <point x="527" y="199" type="curve"/>
    </contour>
  </outline>
</glyph>
<glyph name="backslash" format="1">
  <advance width="278"/>
  <unicode hex="005C"/>
  <outline>
    <contour>
      <point x="-1" y="685" type="line"/>
      <point x="84" y="685" type="line"/>
      <point x="279" y="-18" type="line"/>
      <point x="195" y="-18" type="line"/>
    </contour>
  </outline>
</glyph>
<glyph name="bracketright" format="1">
  <advance width="333"/>
  <unicode hex="005D"/>
  <outline>
    <contour>
      <point x="-49" y="-122" type="line"/>
      <point x="19" y="-122" type="line" smooth="yes"/>
      <point x="55" y="-122"/>
      <point x="57" y="-119"/>
      <point x="71" y="-61" type="curve" smooth="yes"/>
      <point x="229" y="616" type="line" smooth="yes"/>
      <point x="232" y="628"/>
      <point x="216" y="639"/>
      <point x="194" y="639" type="curve" smooth="yes"/>
      <point x="116" y="639" type="line"/>
      <point x="123" y="674" type="line"/>
      <point x="343" y="674" type="line"/>
      <point x="143" y="-157" type="line"/>
      <point x="-56" y="-157" type="line"/>
    </contour>
  </outline>
</glyph>
<glyph name="grave" format="1">
  <advance width="352"/>
  <unicode hex="0060"/>
  <outline>
    <contour>
      <point x="282" y="516" type="line"/>
      <point x="237" y="516" type="line"/>
      <point x="104" y="605" type="line" smooth="yes"/>
      <point x="82" y="620"/>
      <point x="70" y="637"/>
      <point x="70" y="652" type="curve" smooth="yes"/>
      <point x="70" y="676"/>
      <point x="91" y="697"/>
      <point x="115" y="697" type="curve" smooth="yes"/>
      <point x="134" y="697"/>
      <point x="155" y="684"/>
      <point x="171" y="663" type="curve" smooth="yes"/>
    </contour>
  </outline>
</glyph>
<glyph name="n" format="1">
  <advance width="556"/>
  <unicode hex="006E"/>
  <outline>
    <contour>
      <point x="493" y="122" type="line"/>
      <point x="459" y="64"/>
      <point x="412" y="-9"/>
      <point x="336" y="-9" type="curve" smooth="yes"/>
      <point x="293" y="-9"/>
      <point x="266" y="10"/>
      <point x="266" y="56" type="curve" smooth="yes"/>
      <point x="266" y="143"/>
      <point x="354" y="319"/>
      <point x="354" y="368" type="curve" smooth="yes"/>
      <point x="354" y="381"/>
      <point x="341" y="390"/>
      <point x="329" y="390" type="curve" smooth="yes"/>
      <point x="228" y="390"/>
      <point x="132" y="65"/>
      <point x="115" y="0" type="curve"/>
      <point x="-6" y="0" type="line"/>
      <point x="8" y="52"/>
      <point x="96" y="346"/>
      <point x="96" y="381" type="curve" smooth="yes"/>
      <point x="96" y="403.801"/>
      <point x="72.7918" y="407.371"/>
      <point x="53.9132" y="407.371" type="curve" smooth="yes"/>
      <point x="49.6081" y="407.371"/>
      <point x="45.5282" y="407.186"/>
      <point x="42" y="407" type="curve"/>
      <point x="42" y="434" type="line"/>
      <point x="107" y="434"/>
      <point x="179" y="447"/>
      <point x="242" y="461" type="curve"/>
      <point x="182" y="275" type="line"/>
      <point x="185" y="273" type="line"/>
      <point x="233" y="344"/>
      <point x="301" y="462"/>
      <point x="398" y="462" type="curve" smooth="yes"/>
      <point x="450" y="462"/>
      <point x="474" y="437"/>
      <point x="474" y="383" type="curve" smooth="yes"/>
      <point x="474" y="298"/>
      <point x="387" y="137"/>
      <point x="387" y="77" type="curve" smooth="yes"/>
      <point x="387" y="68"/>
      <point x="392" y="59"/>
      <point x="402" y="59" type="curve" smooth="yes"/>
      <point x="425" y="59"/>
      <point x="460" y="118"/>
      <point x="471" y="135" type="curve"/>
    </contour>
  </outline>
</glyph>
<glyph name="v" format="1">
  <advance width="444"/>
  <unicode hex="0076"/>
  <outline>
    <contour>
      <point x="401" y="394" type="curve" smooth="yes"/>
      <point x="401" y="264"/>
      <point x="199" y="69"/>
      <point x="111" y="-13" type="curve"/>
      <point x="85" y="-13" type="line"/>
      <point x="87" y="47"/>
      <point x="90" y="107"/>
      <point x="90" y="167" type="curve" smooth="yes"/>
      <point x="90" y="228"/>
      <point x="88" y="293"/>
      <point x="75" y="352" type="curve" smooth="yes"/>
      <point x="66.3151" y="393.494"/>
      <point x="62.2862" y="407.053"/>
      <point x="20.6794" y="407.053" type="curve" smooth="yes"/>
      <point x="19.1698" y="407.053"/>
      <point x="17.6106" y="407.035"/>
      <point x="16" y="407" type="curve"/>
      <point x="16" y="434" type="line"/>
      <point x="68" y="442"/>
      <point x="120" y="449"/>
      <point x="171" y="462" type="curve"/>
      <point x="201" y="354"/>
      <point x="200" y="239"/>
      <point x="202" y="128" type="curve"/>
      <point x="233" y="162"/>
      <point x="328" y="265"/>
      <point x="328" y="315" type="curve" smooth="yes"/>
      <point x="328" y="348"/>
      <point x="284" y="360"/>
      <point x="284" y="405" type="curve" smooth="yes"/>
      <point x="284" y="433"/>
      <point x="309" y="462"/>
      <point x="338" y="462" type="curve" smooth="yes"/>
      <point x="374" y="462"/>
      <point x="401" y="429"/>
    </contour>
  </outline>
</glyph>
<glyph name="braceleft" format="1">
  <advance width="348"/>
  <unicode hex="007B"/>
  <outline>
    <contour>
      <point x="436" y="686" type="curve"/>
      <point x="433" y="674" type="line"/>
      <point x="352" y="659"/>
      <point x="315" y="626"/>
      <point x="295" y="550" type="curve" smooth="yes"/>
      <point x="250" y="379" type="line" smooth="yes"/>
      <point x="227" y="294"/>
      <point x="197" y="268"/>
      <point x="99" y="249" type="curve"/>
      <point x="174" y="229"/>
      <point x="191" y="215"/>
      <point x="191" y="173" type="curve" smooth="yes"/>
      <point x="191" y="150"/>
      <point x="181" y="103"/>
      <point x="162" y="43" type="curve" smooth="yes"/>
      <point x="143" y="-20"/>
      <point x="132" y="-71"/>
      <point x="132" y="-97" type="curve" smooth="yes"/>
      <point x="132" y="-143"/>
      <point x="154" y="-164"/>
      <point x="213" y="-175" type="curve"/>
      <point x="210" y="-187" type="line"/>
      <point x="117" y="-185"/>
      <point x="78" y="-177"/>
      <point x="53" y="-156" type="curve" smooth="yes"/>
      <point x="36" y="-141"/>
      <point x="28" y="-122"/>
      <point x="28" y="-96" type="curve" smooth="yes"/>
      <point x="28" y="-67"/>
      <point x="44" y="8"/>
      <point x="63" y="63" type="curve" smooth="yes"/>
      <point x="79" y="111"/>
      <point x="89" y="155"/>
      <point x="89" y="179" type="curve" smooth="yes"/>
      <point x="89" y="214"/>
      <point x="67" y="233"/>
      <point x="5" y="249" type="curve"/>
      <point x="94" y="268"/>
      <point x="122" y="293"/>
      <point x="142" y="365" type="curve" smooth="yes"/>
      <point x="188" y="544" type="line" smooth="yes"/>
      <point x="219" y="653"/>
      <point x="277" y="686"/>
    </contour>
  </outline>
</glyph>
<glyph name="cent" format="1">
  <advance width="500"/>
  <unicode hex="00A2"/>
  <outline>
    <contour>
      <point x="431" y="576" type="line"/>
      <point x="386" y="449" type="line"/>
      <point x="422" y="429"/>
      <point x="439" y="404"/>
      <point x="439" y="370" type="curve" smooth="yes"/>
      <point x="439" y="331"/>
      <point x="411" y="302"/>
      <point x="374" y="302" type="curve" smooth="yes"/>
      <point x="360" y="302"/>
      <point x="349" y="306"/>
      <point x="339" y="313" type="curve"/>
      <point x="247" y="52" type="line"/>
      <point x="289" y="54"/>
      <point x="324" y="81"/>
      <point x="365" y="141" type="curve"/>
      <point x="392" y="123" type="line"/>
      <point x="329" y="33"/>
      <point x="292" y="3"/>
      <point x="225" y="-10" type="curve"/>
      <point x="178" y="-143" type="line"/>
      <point x="144" y="-143" type="line"/>
      <point x="190" y="-13" type="line"/>
      <point x="96" y="-7"/>
      <point x="42" y="48"/>
      <point x="42" y="138" type="curve" smooth="yes"/>
      <point x="42" y="299"/>
      <point x="185" y="462"/>
      <point x="327" y="462" type="curve" smooth="yes"/>
      <point x="336" y="462"/>
      <point x="343" y="461"/>
      <point x="355" y="459" type="curve"/>
      <point x="396" y="576" type="line"/>
    </contour>
    <contour>
      <point x="214" y="57" type="curve"/>
      <point x="339" y="413" type="line" smooth="yes"/>
      <point x="342" y="421"/>
      <point x="330" y="429"/>
      <point x="317" y="429" type="curve" smooth="yes"/>
      <point x="286" y="429"/>
      <point x="259" y="406"/>
      <point x="231" y="356" type="curve" smooth="yes"/>
      <point x="195" y="293"/>
      <point x="169" y="204"/>
      <point x="169" y="147" type="curve" smooth="yes"/>
      <point x="169" y="130"/>
      <point x="173" y="108"/>
      <point x="180" y="92" type="curve" smooth="yes"/>
      <point x="187" y="76"/>
      <point x="194" y="68"/>
    </contour>
  </outline>
</glyph>
<glyph name="yen" format="1">
  <advance width="500"/>
  <unicode hex="00A5"/>
  <outline>
    <contour>
      <point x="504" y="342" type="line"/>
      <point x="491" y="292" type="line"/>
      <point x="341" y="292" type="line"/>
      <point x="320" y="214" type="line"/>
      <point x="472" y="214" type="line"/>
      <point x="458" y="164" type="line"/>
      <point x="306" y="164" type="line"/>
      <point x="303" y="153" type="line" smooth="yes"/>
      <point x="291" y="110"/>
      <point x="287" y="87"/>
      <point x="287" y="68" type="curve" smooth="yes"/>
      <point x="287" y="36"/>
      <point x="301" y="28"/>
      <point x="368" y="25" type="curve"/>
      <point x="368" y="0" type="line"/>
      <point x="46" y="0" type="line"/>
      <point x="46" y="25" type="line"/>
      <point x="123" y="30"/>
      <point x="137" y="40"/>
      <point x="155" y="97" type="curve" smooth="yes"/>
      <point x="174" y="164" type="line"/>
      <point x="33" y="164" type="line"/>
      <point x="47" y="214" type="line"/>
      <point x="188" y="214" type="line"/>
      <point x="210" y="292" type="line"/>
      <point x="68" y="292" type="line"/>
      <point x="82" y="342" type="line"/>
      <point x="207" y="342" type="line"/>
      <point x="128" y="581" type="line" smooth="yes"/>
      <point x="108" y="632"/>
      <point x="101" y="638"/>
      <point x="46" y="644" type="curve"/>
      <point x="46" y="669" type="line"/>
      <point x="326" y="669" type="line"/>
      <point x="326" y="644" type="line"/>
      <point x="269" y="642"/>
      <point x="251" y="635"/>
      <point x="251" y="612" type="curve" smooth="yes"/>
      <point x="251" y="603"/>
      <point x="253" y="592"/>
      <point x="257" y="580" type="curve" smooth="yes"/>
      <point x="337" y="344" type="line"/>
      <point x="472" y="538" type="line" smooth="yes"/>
      <point x="492" y="567"/>
      <point x="498" y="580"/>
      <point x="498" y="598" type="curve" smooth="yes"/>
      <point x="498" y="633"/>
      <point x="484" y="642"/>
      <point x="428" y="644" type="curve"/>
      <point x="428" y="669" type="line"/>
      <point x="628" y="669" type="line"/>
      <point x="628" y="644" type="line"/>
      <point x="588" y="636"/>
      <point x="569" y="621"/>
      <point x="535" y="575" type="curve" smooth="yes"/>
      <point x="369" y="342" type="line"/>
    </contour>
  </outline>
</glyph>
<glyph name="ordfeminine" format="1">
  <advance width="266"/>
  <unicode hex="00AA"/>
  <outline>
    <contour>
      <point x="313" y="484" type="curve"/>
      <point x="326" y="475" type="line"/>
      <point x="288" y="422"/>
      <point x="259" y="399"/>
      <point x="229" y="399" type="curve" smooth="yes"/>
      <point x="206" y="399"/>
      <point x="185" y="417"/>
      <point x="185" y="437" type="curve" smooth="yes"/>
      <point x="185" y="448"/>
      <point x="186" y="454"/>
      <point x="196" y="488" type="curve"/>
      <point x="159" y="423"/>
      <point x="130" y="400"/>
      <point x="86" y="400" type="curve" smooth="yes"/>
      <point x="45" y="400"/>
      <point x="16" y="431"/>
      <point x="16" y="476" type="curve" smooth="yes"/>
      <point x="16" y="572"/>
      <point x="114" y="685"/>
      <point x="196" y="685" type="curve" smooth="yes"/>
      <point x="222" y="685"/>
      <point x="236" y="672"/>
      <point x="243" y="640" type="curve"/>
      <point x="254" y="676" type="line"/>
      <point x="330" y="680" type="line"/>
      <point x="284" y="540" type="line" smooth="yes"/>
      <point x="268" y="493"/>
      <point x="262" y="467"/>
      <point x="262" y="451" type="curve" smooth="yes"/>
      <point x="262" y="446"/>
      <point x="264" y="442"/>
      <point x="267" y="442" type="curve" smooth="yes"/>
      <point x="274" y="442"/>
      <point x="289" y="456"/>
      <point x="308" y="478" type="curve" smooth="yes"/>
      <point x="310" y="481"/>
      <point x="310" y="481"/>
    </contour>
    <contour>
      <point x="198" y="658" type="curve" smooth="yes"/>
      <point x="197.447" y="658.063"/>
      <point x="196.885" y="658.094"/>
      <point x="196.315" y="658.094" type="curve" smooth="yes"/>
      <point x="160.836" y="658.094"/>
      <point x="94" y="536.973"/>
      <point x="94" y="473" type="curve" smooth="yes"/>
      <point x="94" y="458"/>
      <point x="105" y="445"/>
      <point x="118" y="445" type="curve" smooth="yes"/>
      <point x="137" y="445"/>
      <point x="160" y="466"/>
      <point x="179" y="502" type="curve" smooth="yes"/>
      <point x="199" y="539"/>
      <point x="218" y="601"/>
      <point x="218" y="630" type="curve" smooth="yes"/>
      <point x="218" y="645"/>
      <point x="209" y="657"/>
    </contour>
  </outline>
</glyph>
<glyph name="guillemotleft" format="1">
  <advance width="500"/>
  <unicode hex="00AB"/>
  <outline>
    <contour>
      <point x="137" y="220" type="curve"/>
      <point x="177" y="137" type="line" smooth="yes"/>
      <point x="186" y="119"/>
      <point x="210" y="69"/>
      <point x="210" y="48" type="curve" smooth="yes"/>
      <point x="210" y="38"/>
      <point x="203" y="32"/>
      <point x="196" y="32" type="curve" smooth="yes"/>
      <point x="189" y="32"/>
      <point x="189" y="32"/>
      <point x="172" y="51" type="curve" smooth="yes"/>
      <point x="12" y="217" type="line"/>
      <point x="12" y="226" type="line"/>
      <point x="193" y="358" type="line" smooth="yes"/>
      <point x="227" y="383"/>
      <point x="254" y="415"/>
      <point x="269" y="415" type="curve" smooth="yes"/>
      <point x="278" y="415"/>
      <point x="283" y="409"/>
      <point x="283" y="403" type="curve" smooth="yes"/>
      <point x="283" y="367"/>
      <point x="196" y="286"/>
    </contour>
    <contour>
      <point x="322" y="220" type="curve"/>
      <point x="362" y="137" type="line" smooth="yes"/>
      <point x="371" y="119"/>
      <point x="395" y="69"/>
      <point x="395" y="48" type="curve" smooth="yes"/>
      <point x="395" y="38"/>
      <point x="388" y="32"/>
      <point x="381" y="32" type="curve" smooth="yes"/>
      <point x="374" y="32"/>
      <point x="374" y="32"/>
      <point x="357" y="51" type="curve" smooth="yes"/>
      <point x="197" y="217" type="line"/>
      <point x="197" y="226" type="line"/>
      <point x="378" y="358" type="line" smooth="yes"/>
      <point x="412" y="383"/>
      <point x="439" y="415"/>
      <point x="454" y="415" type="curve" smooth="yes"/>
      <point x="463" y="415"/>
      <point x="468" y="409"/>
      <point x="468" y="403" type="curve" smooth="yes"/>
      <point x="468" y="367"/>
      <point x="381" y="286"/>
    </contour>
  </outline>
</glyph>
<glyph name="macron" format="1">
  <advance width="492"/>
  <unicode hex="00AF"/>
  <outline>
    <contour>
      <point x="417" y="623" type="line"/>
      <point x="401" y="553" type="line"/>
      <point x="75" y="553" type="line"/>
      <point x="92" y="623" type="line"/>
    </contour>
  </outline>
</glyph>
<glyph name="two.superior" format="1">
  <advance width="300"/>
  <unicode hex="00B2"/>
  <outline>
    <contour>
      <point x="291" y="388" type="line"/>
      <point x="240" y="274" type="line"/>
      <point x="2" y="274" type="line"/>
      <point x="2" y="290" type="line"/>
      <point x="106" y="389"/>
      <point x="121" y="403"/>
      <point x="150" y="435" type="curve" smooth="yes"/>
      <point x="201" y="491"/>
      <point x="220" y="525"/>
      <point x="220" y="556" type="curve" smooth="yes"/>
      <point x="220" y="597"/>
      <point x="197" y="622"/>
      <point x="161" y="622" type="curve" smooth="yes"/>
      <point x="132" y="622"/>
      <point x="111" y="610"/>
      <point x="79" y="574" type="curve"/>
      <point x="61" y="585" type="line"/>
      <point x="97" y="651"/>
      <point x="144" y="683"/>
      <point x="205" y="683" type="curve" smooth="yes"/>
      <point x="265" y="683"/>
      <point x="313" y="639"/>
      <point x="313" y="584" type="curve" smooth="yes"/>
      <point x="313" y="536"/>
      <point x="287" y="497"/>
      <point x="221" y="444" type="curve" smooth="yes"/>
      <point x="96" y="343" type="line"/>
      <point x="185" y="343" type="line" smooth="yes"/>
      <point x="235" y="343"/>
      <point x="250" y="351"/>
      <point x="275" y="388" type="curve"/>
    </contour>
  </outline>
</glyph>
<glyph name="three.superior" format="1">
  <advance width="300"/>
  <unicode hex="00B3"/>
  <outline>
    <contour>
      <point x="110" y="481" type="curve"/>
      <point x="112" y="495" type="line"/>
      <point x="194" y="510"/>
      <point x="233" y="537"/>
      <point x="233" y="580" type="curve" smooth="yes"/>
      <point x="233" y="612"/>
      <point x="212" y="632"/>
      <point x="178" y="632" type="curve" smooth="yes"/>
      <point x="150" y="632"/>
      <point x="131" y="622"/>
      <point x="103" y="590" type="curve"/>
      <point x="89" y="603" type="line"/>
      <point x="129" y="659"/>
      <point x="169" y="683"/>
      <point x="222" y="683" type="curve" smooth="yes"/>
      <point x="278" y="683"/>
      <point x="321" y="648"/>
      <point x="321" y="602" type="curve" smooth="yes"/>
      <point x="321" y="565"/>
      <point x="307" y="548"/>
      <point x="249" y="515" type="curve" smooth="yes"/>
      <point x="242" y="511" type="line"/>
      <point x="280" y="485"/>
      <point x="294" y="462"/>
      <point x="294" y="423" type="curve" smooth="yes"/>
      <point x="294" y="336"/>
      <point x="208" y="265"/>
      <point x="102" y="265" type="curve" smooth="yes"/>
      <point x="49" y="265"/>
      <point x="17" y="284"/>
      <point x="17" y="315" type="curve" smooth="yes"/>
      <point x="17" y="339"/>
      <point x="33" y="356"/>
      <point x="54" y="356" type="curve" smooth="yes"/>
      <point x="70" y="356"/>
      <point x="84" y="347"/>
      <point x="97" y="328" type="curve" smooth="yes"/>
      <point x="118" y="300"/>
      <point x="121" y="298"/>
      <point x="140" y="298" type="curve" smooth="yes"/>
      <point x="179" y="298"/>
      <point x="210" y="338"/>
      <point x="210" y="390" type="curve" smooth="yes"/>
      <point x="210" y="448"/>
      <point x="177" y="478"/>
    </contour>
  </outline>
</glyph>
<glyph name="paragraph" format="1">
  <advance width="500"/>
  <unicode hex="00B6"/>
  <outline>
    <contour>
      <point x="330" y="644" type="line"/>
      <point x="113" y="-193" type="line"/>
      <point x="-57" y="-193" type="line"/>
      <point x="-50" y="-168" type="line"/>
      <point x="-1" y="-164"/>
      <point x="16" y="-160"/>
      <point x="27" y="-150" type="curve" smooth="yes"/>
      <point x="35" y="-144"/>
      <point x="40" y="-130"/>
      <point x="56" y="-68" type="curve" smooth="yes"/>
      <point x="141" y="258" type="line"/>
      <point x="91" y="260"/>
      <point x="68" y="266"/>
      <point x="43" y="283" type="curve" smooth="yes"/>
      <point x="13" y="304"/>
      <point x="-4" y="343"/>
      <point x="-4" y="388" type="curve" smooth="yes"/>
      <point x="-4" y="464"/>
      <point x="29" y="557"/>
      <point x="72" y="603" type="curve" smooth="yes"/>
      <point x="113" y="647"/>
      <point x="178" y="669"/>
      <point x="267" y="669" type="curve" smooth="yes"/>
      <point x="562" y="669" type="line"/>
      <point x="556" y="644" type="line"/>
      <point x="475" y="637"/>
      <point x="472" y="635"/>
      <point x="458" y="581" type="curve" smooth="yes"/>
      <point x="289" y="-68" type="line" smooth="yes"/>
      <point x="285.748" y="-81.0096"/>
      <point x="272.95" y="-104.443"/>
      <point x="272.95" y="-142.365" type="curve" smooth="yes"/>
      <point x="272.95" y="-155.459"/>
      <point x="287.223" y="-162.132"/>
      <point x="323" y="-166" type="curve" smooth="yes"/>
      <point x="326" y="-166"/>
      <point x="336" y="-167"/>
      <point x="346" y="-168" type="curve"/>
      <point x="339" y="-193" type="line"/>
      <point x="168" y="-193" type="line"/>
      <point x="385" y="644" type="line"/>
    </contour>
    <contour>
      <point x="147" y="283" type="curve"/>
      <point x="241" y="644" type="line"/>
      <point x="178" y="628"/>
      <point x="152" y="611"/>
      <point x="123" y="564" type="curve" smooth="yes"/>
      <point x="95" y="518"/>
      <point x="75" y="448"/>
      <point x="75" y="394" type="curve" smooth="yes"/>
      <point x="75" y="342"/>
      <point x="101" y="302"/>
    </contour>
  </outline>
</glyph>
<glyph name="periodcentered" format="1">
  <advance width="250"/>
  <unicode hex="00B7"/>
  <outline>
    <contour>
      <point x="126" y="405" type="curve" smooth="yes"/>
      <point x="166" y="405"/>
      <point x="199" y="371"/>
      <point x="199" y="331" type="curve" smooth="yes"/>
      <point x="199" y="289"/>
      <point x="166" y="257"/>
      <point x="124" y="257" type="curve" smooth="yes"/>
      <point x="83" y="257"/>
      <point x="51" y="289"/>
      <point x="51" y="331" type="curve" smooth="yes"/>
      <point x="51" y="373"/>
      <point x="84" y="405"/>
    </contour>
  </outline>
</glyph>
<glyph name="cedilla" format="1">
  <advance width="333"/>
  <unicode hex="00B8"/>
  <outline>
    <contour>
      <point x="-25" y="-92" type="line"/>
      <point x="41" y="5" type="line"/>
      <point x="85" y="5" type="line"/>
      <point x="40" y="-62" type="line"/>
      <point x="50" y="-60"/>
      <point x="56" y="-59"/>
      <point x="66" y="-59" type="curve" smooth="yes"/>
      <point x="118" y="-59"/>
      <point x="156" y="-89"/>
      <point x="156" y="-131" type="curve" smooth="yes"/>
      <point x="156" y="-181"/>
      <point x="103" y="-218"/>
      <point x="32" y="-218" type="curve" smooth="yes"/>
      <point x="-4" y="-218"/>
      <point x="-36" y="-211"/>
      <point x="-80" y="-193" type="curve"/>
      <point x="-58" y="-160" type="line"/>
      <point x="-30" y="-173"/>
      <point x="-13" y="-177"/>
      <point x="9" y="-177" type="curve" smooth="yes"/>
      <point x="43" y="-177"/>
      <point x="65" y="-161"/>
      <point x="65" y="-136" type="curve" smooth="yes"/>
      <point x="65" y="-114"/>
      <point x="47" y="-100"/>
      <point x="18" y="-100" type="curve" smooth="yes"/>
      <point x="8" y="-100"/>
      <point x="0" y="-101"/>
      <point x="-12" y="-104" type="curve"/>
    </contour>
  </outline>
</glyph>
<glyph name="one.superior" format="1">
  <advance width="300"/>
  <unicode hex="00B9"/>
  <outline>
    <contour>
      <point x="189" y="601" type="line" smooth="yes"/>
      <point x="190.122" y="604.526"/>
      <point x="190.627" y="607.77"/>
      <point x="190.627" y="610.731" type="curve" smooth="yes"/>
      <point x="190.627" y="626.244"/>
      <point x="176.756" y="634"/>
      <point x="165" y="634" type="curve" smooth="yes"/>
      <point x="159" y="634"/>
      <point x="148" y="633"/>
      <point x="133" y="632" type="curve" smooth="yes"/>
      <point x="122" y="631" type="line"/>
      <point x="124" y="652" type="line"/>
      <point x="196" y="663"/>
      <point x="238" y="670"/>
      <point x="301" y="683" type="curve"/>
      <point x="201" y="353" type="line" smooth="yes"/>
      <point x="197" y="341"/>
      <point x="195" y="328"/>
      <point x="195" y="319" type="curve" smooth="yes"/>
      <point x="195" y="297"/>
      <point x="205" y="293"/>
      <point x="254" y="293" type="curve"/>
      <point x="254" y="274" type="line"/>
      <point x="30" y="274" type="line"/>
      <point x="30" y="293" type="line"/>
      <point x="86" y="293"/>
      <point x="99" y="312"/>
      <point x="109" y="344" type="curve" smooth="yes"/>
    </contour>
  </outline>
</glyph>
<glyph name="guillemotright" format="1">
  <advance width="500"/>
  <unicode hex="00BB"/>
  <outline>
    <contour>
      <point x="343" y="227" type="curve"/>
      <point x="303" y="310" type="line" smooth="yes"/>
      <point x="294" y="328"/>
      <point x="270" y="378"/>
      <point x="270" y="399" type="curve" smooth="yes"/>
      <point x="270" y="409"/>
      <point x="277" y="415"/>
      <point x="284" y="415" type="curve" smooth="yes"/>
      <point x="291" y="415"/>
      <point x="291" y="415"/>
      <point x="308" y="396" type="curve" smooth="yes"/>
      <point x="468" y="230" type="line"/>
      <point x="468" y="221" type="line"/>
      <point x="287" y="89" type="line" smooth="yes"/>
      <point x="253" y="64"/>
      <point x="226" y="32"/>
      <point x="211" y="32" type="curve" smooth="yes"/>
      <point x="202" y="32"/>
      <point x="197" y="38"/>
      <point x="197" y="44" type="curve" smooth="yes"/>
      <point x="197" y="80"/>
      <point x="284" y="161"/>
    </contour>
    <contour>
      <point x="158" y="227" type="curve"/>
      <point x="118" y="310" type="line" smooth="yes"/>
      <point x="109" y="328"/>
      <point x="85" y="378"/>
      <point x="85" y="399" type="curve" smooth="yes"/>
      <point x="85" y="409"/>
      <point x="92" y="415"/>
      <point x="99" y="415" type="curve" smooth="yes"/>
      <point x="106" y="415"/>
      <point x="106" y="415"/>
      <point x="123" y="396" type="curve" smooth="yes"/>
      <point x="283" y="230" type="line"/>
      <point x="283" y="221" type="line"/>
      <point x="102" y="89" type="line" smooth="yes"/>
      <point x="68" y="64"/>
      <point x="41" y="32"/>
      <point x="26" y="32" type="curve" smooth="yes"/>
      <point x="17" y="32"/>
      <point x="12" y="38"/>
      <point x="12" y="44" type="curve" smooth="yes"/>
      <point x="12" y="80"/>
      <point x="99" y="161"/>
    </contour>
  </outline>
</glyph>
<glyph name="onequarter" format="1">
  <advance width="750"/>
  <unicode hex="00BC"/>
  <outline>
    <contour>
      <point x="629" y="683" type="line"/>
      <point x="194" y="-14" type="line"/>
      <point x="136" y="-14" type="line"/>
      <point x="571" y="683" type="line"/>
    </contour>
    <contour>
      <point x="688" y="149" type="line"/>
      <point x="671" y="88" type="line"/>
      <point x="627" y="88" type="line"/>
      <point x="599" y="0" type="line"/>
      <point x="513" y="0" type="line"/>
      <point x="540" y="88" type="line"/>
      <point x="381" y="88" type="line"/>
      <point x="397" y="155" type="line"/>
      <point x="675" y="410" type="line"/>
      <point x="721" y="410" type="line"/>
      <point x="643" y="149" type="line"/>
    </contour>
    <contour>
      <point x="425" y="149" type="line"/>
      <point x="557" y="149" type="line"/>
      <point x="609" y="319" type="line"/>
    </contour>
    <contour>
      <point x="167" y="601" type="line" smooth="yes"/>
      <point x="168.122" y="604.526"/>
      <point x="168.627" y="607.77"/>
      <point x="168.627" y="610.731" type="curve" smooth="yes"/>
      <point x="168.627" y="626.244"/>
      <point x="154.756" y="634"/>
      <point x="143" y="634" type="curve" smooth="yes"/>
      <point x="137" y="634"/>
      <point x="126" y="633"/>
      <point x="111" y="632" type="curve" smooth="yes"/>
      <point x="100" y="631" type="line"/>
      <point x="102" y="652" type="line"/>
      <point x="174" y="663"/>
      <point x="216" y="670"/>
      <point x="279" y="683" type="curve"/>
      <point x="179" y="353" type="line" smooth="yes"/>
      <point x="175" y="341"/>
      <point x="173" y="328"/>
      <point x="173" y="319" type="curve" smooth="yes"/>
      <point x="173" y="297"/>
      <point x="183" y="293"/>
      <point x="232" y="293" type="curve"/>
      <point x="232" y="274" type="line"/>
      <point x="8" y="274" type="line"/>
      <point x="8" y="293" type="line"/>
      <point x="64" y="293"/>
      <point x="77" y="312"/>
      <point x="87" y="344" type="curve" smooth="yes"/>
    </contour>
  </outline>
</glyph>
<glyph name="onehalf" format="1">
  <advance width="750"/>
  <unicode hex="00BD"/>
  <outline>
    <contour>
      <point x="614" y="683" type="line"/>
      <point x="179" y="-14" type="line"/>
      <point x="121" y="-14" type="line"/>
      <point x="556" y="683" type="line"/>
    </contour>
    <contour>
      <point x="167" y="601" type="line" smooth="yes"/>
      <point x="168.122" y="604.526"/>
      <point x="168.627" y="607.77"/>
      <point x="168.627" y="610.731" type="curve" smooth="yes"/>
      <point x="168.627" y="626.244"/>
      <point x="154.756" y="634"/>
      <point x="143" y="634" type="curve" smooth="yes"/>
      <point x="137" y="634"/>
      <point x="126" y="633"/>
      <point x="111" y="632" type="curve" smooth="yes"/>
      <point x="100" y="631" type="line"/>
      <point x="102" y="652" type="line"/>
      <point x="174" y="663"/>
      <point x="216" y="670"/>
      <point x="279" y="683" type="curve"/>
      <point x="179" y="353" type="line" smooth="yes"/>
      <point x="175" y="341"/>
      <point x="173" y="328"/>
      <point x="173" y="319" type="curve" smooth="yes"/>
      <point x="173" y="297"/>
      <point x="183" y="293"/>
      <point x="232" y="293" type="curve"/>
      <point x="232" y="274" type="line"/>
      <point x="8" y="274" type="line"/>
      <point x="8" y="293" type="line"/>
      <point x="64" y="293"/>
      <point x="77" y="312"/>
      <point x="87" y="344" type="curve" smooth="yes"/>
    </contour>
    <contour>
      <point x="701" y="114" type="line"/>
      <point x="650" y="0" type="line"/>
      <point x="412" y="0" type="line"/>
      <point x="412" y="16" type="line"/>
      <point x="516" y="115"/>
      <point x="531" y="129"/>
      <point x="560" y="161" type="curve" smooth="yes"/>
      <point x="611" y="217"/>
      <point x="630" y="251"/>
      <point x="630" y="282" type="curve" smooth="yes"/>
      <point x="630" y="323"/>
      <point x="607" y="348"/>
      <point x="571" y="348" type="curve" smooth="yes"/>
      <point x="542" y="348"/>
      <point x="521" y="336"/>
      <point x="489" y="300" type="curve"/>
      <point x="471" y="311" type="line"/>
      <point x="507" y="377"/>
      <point x="554" y="409"/>
      <point x="615" y="409" type="curve" smooth="yes"/>
      <point x="675" y="409"/>
      <point x="723" y="365"/>
      <point x="723" y="310" type="curve" smooth="yes"/>
      <point x="723" y="262"/>
      <point x="697" y="223"/>
      <point x="631" y="170" type="curve" smooth="yes"/>
      <point x="506" y="69" type="line"/>
      <point x="595" y="69" type="line" smooth="yes"/>
      <point x="645" y="69"/>
      <point x="660" y="77"/>
      <point x="685" y="114" type="curve"/>
    </contour>
  </outline>
</glyph>
<glyph name="Atilde" format="1">
  <advance width="691"/>
  <unicode hex="00C3"/>
  <outline>
    <contour>
      <point x="617" y="0" type="line"/>
      <point x="313" y="0" type="line"/>
      <point x="313" y="25" type="line"/>
      <point x="353" y="28"/>
      <point x="392" y="30"/>
      <point x="392" y="81" type="curve" smooth="yes"/>
      <point x="392" y="123"/>
      <point x="383" y="167"/>
      <point x="377" y="208" type="curve"/>
      <point x="162" y="208" type="line"/>
      <point x="146" y="180"/>
      <point x="88" y="97"/>
      <point x="88" y="60" type="curve" smooth="yes"/>
      <point x="88" y="27"/>
      <point x="129" y="25"/>
      <point x="153" y="25" type="curve"/>
      <point x="153" y="0" type="line"/>
      <point x="-43" y="0" type="line"/>
      <point x="-43" y="25" type="line"/>
      <point x="1" y="36"/>
      <point x="16" y="57"/>
      <point x="40" y="95" type="curve" smooth="yes"/>
      <point x="412" y="683" type="line"/>
      <point x="437" y="683" type="line"/>
      <point x="533" y="111" type="line" smooth="yes"/>
      <point x="545" y="41"/>
      <point x="547" y="32"/>
      <point x="617" y="25" type="curve"/>
    </contour>
    <contour>
      <point x="185" y="248" type="line"/>
      <point x="370" y="248" type="line"/>
      <point x="333" y="491" type="line"/>
    </contour>
    <contour>
      <point x="578" y="862" type="curve"/>
      <point x="619" y="862" type="line"/>
      <point x="597" y="779"/>
      <point x="562" y="743"/>
      <point x="502" y="743" type="curve" smooth="yes"/>
      <point x="483" y="743"/>
      <point x="471" y="746"/>
      <point x="445" y="756" type="curve" smooth="yes"/>
      <point x="386" y="779" type="line" smooth="yes"/>
      <point x="373" y="784"/>
      <point x="359" y="787"/>
      <point x="348" y="787" type="curve" smooth="yes"/>
      <point x="326" y="787"/>
      <point x="313" y="776"/>
      <point x="300" y="744" type="curve"/>
      <point x="260" y="744" type="line"/>
      <point x="273" y="816"/>
      <point x="319" y="862"/>
      <point x="376" y="862" type="curve" smooth="yes"/>
      <point x="400" y="862"/>
      <point x="432" y="854"/>
      <point x="473" y="836" type="curve" smooth="yes"/>
      <point x="499" y="825"/>
      <point x="516" y="820"/>
      <point x="527" y="820" type="curve" smooth="yes"/>
      <point x="550" y="820"/>
      <point x="563" y="831"/>
    </contour>
  </outline>
</glyph>
<glyph name="AE" format="1">
  <advance width="944"/>
  <unicode hex="00C6"/>
  <outline>
    <contour>
      <point x="918" y="669" type="line"/>
      <point x="873" y="479" type="line"/>
      <point x="849" y="484" type="line"/>
      <point x="844" y="599"/>
      <point x="805" y="637"/>
      <point x="688" y="637" type="curve" smooth="yes"/>
      <point x="684.632" y="637"/>
      <point x="681.385" y="637.022"/>
      <point x="678.262" y="637.022" type="curve" smooth="yes"/>
      <point x="651.712" y="637.022"/>
      <point x="634.053" y="635.421"/>
      <point x="626" y="605" type="curve" smooth="yes"/>
      <point x="561" y="370" type="line"/>
      <point x="579" y="370" type="line" smooth="yes"/>
      <point x="581.234" y="369.976"/>
      <point x="583.44" y="369.963"/>
      <point x="585.62" y="369.963" type="curve" smooth="yes"/>
      <point x="673.229" y="369.963"/>
      <point x="717.923" y="390.136"/>
      <point x="755" y="476" type="curve"/>
      <point x="781" y="472" type="line"/>
      <point x="708" y="199" type="line"/>
      <point x="683" y="204" type="line"/>
      <point x="684" y="219"/>
      <point x="686" y="234"/>
      <point x="686" y="249" type="curve" smooth="yes"/>
      <point x="686" y="336"/>
      <point x="623" y="334"/>
      <point x="553" y="338" type="curve"/>
      <point x="539" y="285"/>
      <point x="485" y="113"/>
      <point x="485" y="69" type="curve" smooth="yes"/>
      <point x="485" y="41"/>
      <point x="509" y="32"/>
      <point x="533" y="32" type="curve" smooth="yes"/>
      <point x="679" y="32"/>
      <point x="750" y="75"/>
      <point x="824" y="199" type="curve"/>
      <point x="850" y="196" type="line"/>
      <point x="791" y="0" type="line"/>
      <point x="264" y="0" type="line"/>
      <point x="264" y="25" type="line"/>
      <point x="317" y="34"/>
      <point x="327" y="43"/>
      <point x="342" y="96" type="curve" smooth="yes"/>
      <point x="388" y="255" type="line"/>
      <point x="196" y="255" type="line"/>
      <point x="174" y="224"/>
      <point x="67" y="95"/>
      <point x="67" y="60" type="curve" smooth="yes"/>
      <point x="67" y="28"/>
      <point x="108" y="26"/>
      <point x="131" y="25" type="curve"/>
      <point x="131" y="0" type="line"/>
      <point x="-64" y="0" type="line"/>
      <point x="-64" y="25" type="line"/>
      <point x="-20" y="31"/>
      <point x="-2" y="69"/>
      <point x="24" y="102" type="curve" smooth="yes"/>
      <point x="390" y="574" type="line" smooth="yes"/>
      <point x="398" y="585"/>
      <point x="410" y="603"/>
      <point x="410" y="617" type="curve" smooth="yes"/>
      <point x="410" y="647"/>
      <point x="348" y="645"/>
      <point x="329" y="646" type="curve"/>
      <point x="329" y="669" type="line"/>
    </contour>
    <contour>
      <point x="225" y="294" type="line"/>
      <point x="398" y="294" type="line"/>
      <point x="490" y="627" type="line"/>
      <point x="478" y="627" type="line"/>
    </contour>
  </outline>
</glyph>
<glyph name="Igrave" format="1">
  <advance width="393"/>
  <unicode hex="00CC"/>
  <outline>
    <contour>
      <point x="189" y="607" type="curve" smooth="yes"/>
      <point x="189" y="635"/>
      <point x="169" y="636"/>
      <point x="116" y="644" type="curve"/>
      <point x="116" y="669" type="line"/>
      <point x="414" y="669" type="line"/>
      <point x="414" y="644" type="line"/>
      <point x="363" y="638"/>
      <point x="347" y="625"/>
      <point x="332" y="572" type="curve" smooth="yes"/>
      <point x="218" y="152" type="line" smooth="yes"/>
      <point x="205" y="103"/>
      <point x="200" y="80"/>
      <point x="200" y="65" type="curve" smooth="yes"/>
      <point x="200" y="37"/>
      <point x="215" y="28"/>
      <point x="272" y="25" type="curve"/>
      <point x="272" y="0" type="line"/>
      <point x="-24" y="0" type="line"/>
      <point x="-24" y="25" type="line"/>
      <point x="25" y="31"/>
      <point x="42" y="45"/>
      <point x="56" y="97" type="curve" smooth="yes"/>
      <point x="179" y="546" type="line" smooth="yes"/>
      <point x="184" y="564"/>
      <point x="189" y="595"/>
    </contour>
    <contour>
      <point x="381" y="723" type="line"/>
      <point x="336" y="723" type="line"/>
      <point x="203" y="812" type="line" smooth="yes"/>
      <point x="181" y="827"/>
      <point x="169" y="844"/>
      <point x="169" y="859" type="curve" smooth="yes"/>
      <point x="169" y="883"/>
      <point x="190" y="904"/>
      <point x="214" y="904" type="curve" smooth="yes"/>
      <point x="233" y="904"/>
      <point x="254" y="891"/>
      <point x="270" y="870" type="curve" smooth="yes"/>
    </contour>
  </outline>
</glyph>
<glyph name="Icircumflex" format="1">
  <advance width="393"/>
  <unicode hex="00CE"/>
  <outline>
    <contour>
      <point x="189" y="607" type="curve" smooth="yes"/>
      <point x="189" y="635"/>
      <point x="169" y="636"/>
      <point x="116" y="644" type="curve"/>
      <point x="116" y="669" type="line"/>
      <point x="414" y="669" type="line"/>
      <point x="414" y="644" type="line"/>
      <point x="363" y="638"/>
      <point x="347" y="625"/>
      <point x="332" y="572" type="curve" smooth="yes"/>
      <point x="218" y="152" type="line" smooth="yes"/>
      <point x="205" y="103"/>
      <point x="200" y="80"/>
      <point x="200" y="65" type="curve" smooth="yes"/>
      <point x="200" y="37"/>
      <point x="215" y="28"/>
      <point x="272" y="25" type="curve"/>
      <point x="272" y="0" type="line"/>
      <point x="-24" y="0" type="line"/>
      <point x="-24" y="25" type="line"/>
      <point x="25" y="31"/>
      <point x="42" y="45"/>
      <point x="56" y="97" type="curve" smooth="yes"/>
      <point x="179" y="546" type="line" smooth="yes"/>
      <point x="184" y="564"/>
      <point x="189" y="595"/>
    </contour>
    <contour>
      <point x="400" y="723" type="line"/>
      <point x="312" y="818" type="line"/>
      <point x="181" y="723" type="line"/>
      <point x="124" y="723" type="line"/>
      <point x="284" y="897" type="line"/>
      <point x="365" y="897" type="line"/>
      <point x="451" y="723" type="line"/>
    </contour>
  </outline>
</glyph>
<glyph name="Ntilde" format="1">
  <advance width="722"/>
  <unicode hex="00D1"/>
  <outline>
    <contour>
      <point x="304" y="669" type="line"/>
      <point x="519" y="204" type="line"/>
      <point x="599" y="491" type="line" smooth="yes"/>
      <point x="610" y="531"/>
      <point x="617" y="567"/>
      <point x="617" y="585" type="curve" smooth="yes"/>
      <point x="617" y="623"/>
      <point x="596" y="639"/>
      <point x="537" y="644" type="curve"/>
      <point x="537" y="669" type="line"/>
      <point x="746" y="669" type="line"/>
      <point x="746" y="644" type="line"/>
      <point x="688" y="631"/>
      <point x="681" y="623"/>
      <point x="644" y="491" type="curve" smooth="yes"/>
      <point x="501" y="-15" type="line"/>
      <point x="473" y="-15" type="line"/>
      <point x="216" y="534" type="line"/>
      <point x="117" y="178" type="line" smooth="yes"/>
      <point x="106" y="137"/>
      <point x="99" y="102"/>
      <point x="99" y="84" type="curve" smooth="yes"/>
      <point x="99" y="45"/>
      <point x="120" y="30"/>
      <point x="179" y="25" type="curve"/>
      <point x="179" y="0" type="line"/>
      <point x="-29" y="0" type="line"/>
      <point x="-29" y="25" type="line"/>
      <point x="26" y="36"/>
      <point x="33" y="47"/>
      <point x="72" y="178" type="curve" smooth="yes"/>
      <point x="192" y="589" type="line"/>
      <point x="173" y="633"/>
      <point x="164" y="639"/>
      <point x="109" y="644" type="curve"/>
      <point x="109" y="669" type="line"/>
    </contour>
    <contour>
      <point x="622" y="862" type="curve"/>
      <point x="663" y="862" type="line"/>
      <point x="641" y="779"/>
      <point x="606" y="743"/>
      <point x="546" y="743" type="curve" smooth="yes"/>
      <point x="527" y="743"/>
      <point x="515" y="746"/>
      <point x="489" y="756" type="curve" smooth="yes"/>
      <point x="430" y="779" type="line" smooth="yes"/>
      <point x="417" y="784"/>
      <point x="403" y="787"/>
      <point x="392" y="787" type="curve" smooth="yes"/>
      <point x="370" y="787"/>
      <point x="357" y="776"/>
      <point x="344" y="744" type="curve"/>
      <point x="304" y="744" type="line"/>
      <point x="317" y="816"/>
      <point x="363" y="862"/>
      <point x="420" y="862" type="curve" smooth="yes"/>
      <point x="444" y="862"/>
      <point x="476" y="854"/>
      <point x="517" y="836" type="curve" smooth="yes"/>
      <point x="543" y="825"/>
      <point x="560" y="820"/>
      <point x="571" y="820" type="curve" smooth="yes"/>
      <point x="594" y="820"/>
      <point x="607" y="831"/>
    </contour>
  </outline>
</glyph>
<glyph name="germandbls" format="1">
  <advance width="500"/>
  <unicode hex="00DF"/>
  <outline>
    <contour>
      <point x="473" y="575" type="curve" smooth="yes"/>
      <point x="473" y="473"/>
      <point x="376" y="430"/>
      <point x="294" y="400" type="curve"/>
      <point x="294" y="398" type="line"/>
      <point x="377" y="384"/>
      <point x="435" y="343"/>
      <point x="435" y="253" type="curve" smooth="yes"/>
      <point x="435" y="137"/>
      <point x="344" y="-7"/>
      <point x="217" y="-7" type="curve" smooth="yes"/>
      <point x="189" y="-7"/>
      <point x="165" y="-1"/>
      <point x="142" y="15" type="curve"/>
      <point x="162" y="50" type="line"/>
      <point x="172" y="35"/>
      <point x="192" y="27"/>
      <point x="209" y="27" type="curve" smooth="yes"/>
      <point x="283" y="27"/>
      <point x="315" y="237"/>
      <point x="315" y="293" type="curve" smooth="yes"/>
      <point x="315" y="356"/>
      <point x="302" y="376"/>
      <point x="241" y="384" type="curve"/>
      <point x="248" y="421" type="line"/>
      <point x="264" y="420" type="line" smooth="yes"/>
      <point x="265.346" y="419.913"/>
      <point x="266.675" y="419.87"/>
      <point x="267.987" y="419.87" type="curve" smooth="yes"/>
      <point x="341.728" y="419.87"/>
      <point x="362" y="556.014"/>
      <point x="362" y="613" type="curve" smooth="yes"/>
      <point x="362" y="647"/>
      <point x="354" y="675"/>
      <point x="314" y="675" type="curve" smooth="yes"/>
      <point x="250" y="675"/>
      <point x="224" y="556"/>
      <point x="214" y="509" type="curve" smooth="yes"/>
      <point x="123" y="102" type="line" smooth="yes"/>
      <point x="98" y="-12"/>
      <point x="42" y="-200"/>
      <point x="-104" y="-200" type="curve" smooth="yes"/>
      <point x="-149" y="-200"/>
      <point x="-200" y="-176"/>
      <point x="-200" y="-125" type="curve" smooth="yes"/>
      <point x="-200" y="-91"/>
      <point x="-181" y="-70"/>
      <point x="-146" y="-70" type="curve" smooth="yes"/>
      <point x="-120" y="-70"/>
      <point x="-101" y="-88"/>
      <point x="-101" y="-114" type="curve" smooth="yes"/>
      <point x="-101" y="-147"/>
      <point x="-118" y="-143"/>
      <point x="-118" y="-158" type="curve" smooth="yes"/>
      <point x="-118" y="-168"/>
      <point x="-111" y="-169"/>
      <point x="-103" y="-169" type="curve" smooth="yes"/>
      <point x="-44" y="-169"/>
      <point x="-26" y="-66"/>
      <point x="-16" y="-20" type="curve" smooth="yes"/>
      <point x="76" y="403" type="line" smooth="yes"/>
      <point x="104" y="533"/>
      <point x="169" y="705"/>
      <point x="328" y="705" type="curve" smooth="yes"/>
      <point x="404" y="705"/>
      <point x="473" y="656"/>
    </contour>
  </outline>
</glyph>
<glyph name="ae" format="1">
  <advance width="722"/>
  <unicode hex="00E6"/>
  <outline>
    <contour>
      <point x="673" y="371" type="curve" smooth="yes"/>
      <point x="673" y="247"/>
      <point x="499" y="202"/>
      <point x="406" y="181" type="curve"/>
      <point x="403" y="165"/>
      <point x="401" y="149"/>
      <point x="401" y="133" type="curve" smooth="yes"/>
      <point x="401" y="91"/>
      <point x="420" y="50"/>
      <point x="468" y="50" type="curve" smooth="yes"/>
      <point x="522" y="50"/>
      <point x="567" y="94"/>
      <point x="591" y="139" type="curve"/>
      <point x="619" y="122" type="line"/>
      <point x="587" y="48"/>
      <point x="512" y="-13"/>
      <point x="430" y="-13" type="curve" smooth="yes"/>
      <point x="335" y="-13"/>
      <point x="298" y="29"/>
      <point x="282" y="116" type="curve"/>
      <point x="280" y="116" type="line"/>
      <point x="242" y="51"/>
      <point x="191" y="-12"/>
      <point x="108" y="-12" type="curve" smooth="yes"/>
      <point x="31" y="-12"/>
      <point x="-5" y="47"/>
      <point x="-5" y="119" type="curve" smooth="yes"/>
      <point x="-5" y="243"/>
      <point x="130" y="462"/>
      <point x="267" y="462" type="curve" smooth="yes"/>
      <point x="315" y="462"/>
      <point x="336" y="443"/>
      <point x="350" y="400" type="curve"/>
      <point x="353" y="400" type="line"/>
      <point x="370" y="454" type="line"/>
      <point x="473" y="459" type="line"/>
      <point x="455" y="400" type="line"/>
      <point x="457" y="398" type="line"/>
      <point x="488" y="438"/>
      <point x="523" y="459"/>
      <point x="574" y="459" type="curve" smooth="yes"/>
      <point x="630" y="459"/>
      <point x="673" y="431"/>
    </contour>
    <contour>
      <point x="333" y="356" type="curve" smooth="yes"/>
      <point x="333" y="390"/>
      <point x="321" y="419"/>
      <point x="282" y="419" type="curve" smooth="yes"/>
      <point x="196" y="419"/>
      <point x="121" y="188"/>
      <point x="121" y="118" type="curve" smooth="yes"/>
      <point x="121" y="87"/>
      <point x="136" y="58"/>
      <point x="171" y="58" type="curve" smooth="yes"/>
      <point x="258" y="58"/>
      <point x="333" y="284"/>
    </contour>
    <contour>
      <point x="418" y="231" type="curve" smooth="yes"/>
      <point x="413" y="214" type="line"/>
      <point x="441" y="218"/>
      <point x="463" y="227"/>
      <point x="494" y="246" type="curve" smooth="yes"/>
      <point x="552" y="282"/>
      <point x="583" y="331"/>
      <point x="583" y="388" type="curve" smooth="yes"/>
      <point x="583" y="416"/>
      <point x="573" y="429"/>
      <point x="550" y="429" type="curve" smooth="yes"/>
      <point x="500" y="429"/>
      <point x="458" y="365"/>
    </contour>
  </outline>
</glyph>
<glyph name="odieresis" format="1">
  <advance width="500"/>
  <unicode hex="00F6"/>
  <outline>
    <contour>
      <point x="322" y="369" type="curve" smooth="yes"/>
      <point x="322" y="402"/>
      <point x="312" y="433"/>
      <point x="274" y="433" type="curve" smooth="yes"/>
      <point x="171" y="433"/>
      <point x="116" y="166"/>
      <point x="116" y="86" type="curve" smooth="yes"/>
      <point x="116" y="50"/>
      <point x="124" y="16"/>
      <point x="168" y="16" type="curve" smooth="yes"/>
      <point x="264" y="16"/>
      <point x="322" y="294"/>
    </contour>
    <contour>
      <point x="284" y="462" type="curve" smooth="yes"/>
      <point x="375" y="462"/>
      <point x="441" y="399"/>
      <point x="441" y="311" type="curve" smooth="yes"/>
      <point x="441" y="142"/>
      <point x="305" y="-13"/>
      <point x="156" y="-13" type="curve" smooth="yes"/>
      <point x="64" y="-13"/>
      <point x="-3" y="50"/>
      <point x="-3" y="135" type="curve" smooth="yes"/>
      <point x="-3" y="303"/>
      <point x="137" y="462"/>
    </contour>
    <contour>
      <point x="223" y="655" type="curve" smooth="yes"/>
      <point x="259" y="655"/>
      <point x="289" y="625"/>
      <point x="289" y="589" type="curve" smooth="yes"/>
      <point x="289" y="555"/>
      <point x="258" y="525"/>
      <point x="223" y="525" type="curve" smooth="yes"/>
      <point x="189" y="525"/>
      <point x="159" y="555"/>
      <point x="159" y="589" type="curve" smooth="yes"/>
      <point x="159" y="625"/>
      <point x="188" y="655"/>
    </contour>
    <contour>
      <point x="435" y="655" type="curve" smooth="yes"/>
      <point x="471" y="655"/>
      <point x="501" y="625"/>
      <point x="501" y="589" type="curve" smooth="yes"/>
      <point x="501" y="555"/>
      <point x="470" y="525"/>
      <point x="435" y="525" type="curve" smooth="yes"/>
      <point x="401" y="525"/>
      <point x="371" y="555"/>
      <point x="371" y="589" type="curve" smooth="yes"/>
      <point x="371" y="625"/>
      <point x="400" y="655"/>
    </contour>
  </outline>
</glyph>
<glyph name="oslash" format="1">
  <advance width="500"/>
  <unicode hex="00F8"/>
  <outline>
    <contour>
      <point x="441" y="308" type="curve" smooth="yes"/>
      <point x="441" y="158"/>
      <point x="317" y="-13"/>
      <point x="157" y="-13" type="curve" smooth="yes"/>
      <point x="140" y="-13"/>
      <point x="122" y="-10"/>
      <point x="106" y="-5" type="curve"/>
      <point x="42" y="-119" type="line"/>
      <point x="2" y="-119" type="line"/>
      <point x="74" y="7" type="line"/>
      <point x="24" y="32"/>
      <point x="-3" y="81"/>
      <point x="-3" y="136" type="curve" smooth="yes"/>
      <point x="-3" y="287"/>
      <point x="123" y="462"/>
      <point x="284" y="462" type="curve" smooth="yes"/>
      <point x="299" y="462"/>
      <point x="314" y="460"/>
      <point x="328" y="456" type="curve"/>
      <point x="387" y="560" type="line"/>
      <point x="424" y="560" type="line"/>
      <point x="359" y="444" type="line"/>
      <point x="416" y="419"/>
      <point x="441" y="368"/>
    </contour>
    <contour>
      <point x="307" y="419" type="line"/>
      <point x="298" y="429"/>
      <point x="287" y="433"/>
      <point x="274" y="433" type="curve" smooth="yes"/>
      <point x="170" y="433"/>
      <point x="116" y="163"/>
      <point x="116" y="82" type="curve"/>
      <point x="118" y="82" type="line"/>
    </contour>
    <contour>
      <point x="322" y="369" type="curve"/>
      <point x="321" y="377" type="line"/>
      <point x="128" y="34" type="line"/>
      <point x="137" y="21"/>
      <point x="153" y="16"/>
      <point x="168" y="16" type="curve" smooth="yes"/>
      <point x="264" y="16"/>
      <point x="322" y="294"/>
    </contour>
  </outline>
</glyph>
<glyph name="Aogonek" format="1">
  <advance width="691"/>
  <unicode hex="0104"/>
  <outline>
    <contour>
      <point x="731" y="-84" type="curve"/>
      <point x="754" y="-98" type="line"/>
      <point x="729" y="-144"/>
      <point x="681" y="-173"/>
      <point x="631" y="-173" type="curve" smooth="yes"/>
      <point x="570" y="-173"/>
      <point x="525" y="-139"/>
      <point x="525" y="-92" type="curve" smooth="yes"/>
      <point x="525" y="-65"/>
      <point x="534" y="-45"/>
      <point x="568" y="0" type="curve"/>
      <point x="314" y="0" type="line"/>
      <point x="314" y="25" type="line"/>
      <point x="378" y="31"/>
      <point x="393" y="42"/>
      <point x="393" y="84" type="curve" smooth="yes"/>
      <point x="393" y="97"/>
      <point x="381" y="184"/>
      <point x="378" y="208" type="curve"/>
      <point x="163" y="208" type="line"/>
      <point x="104" y="106" type="line" smooth="yes"/>
      <point x="94" y="89"/>
      <point x="89" y="73"/>
      <point x="89" y="60" type="curve" smooth="yes"/>
      <point x="89" y="36"/>
      <point x="108" y="25"/>
      <point x="154" y="25" type="curve"/>
      <point x="154" y="0" type="line"/>
      <point x="-42" y="0" type="line"/>
      <point x="-42" y="25" type="line"/>
      <point x="-6" y="33"/>
      <point x="9" y="46"/>
      <point x="41" y="95" type="curve" smooth="yes"/>
      <point x="413" y="683" type="line"/>
      <point x="438" y="683" type="line"/>
      <point x="534" y="111" type="line" smooth="yes"/>
      <point x="547" y="35"/>
      <point x="552" y="30"/>
      <point x="618" y="25" type="curve"/>
      <point x="618" y="0" type="line"/>
      <point x="612" y="-14"/>
      <point x="609" y="-25"/>
      <point x="609" y="-39" type="curve" smooth="yes"/>
      <point x="609" y="-81"/>
      <point x="631" y="-104"/>
      <point x="672" y="-104" type="curve" smooth="yes"/>
      <point x="700" y="-104"/>
      <point x="719" y="-89"/>
    </contour>
    <contour>
      <point x="186" y="248" type="line"/>
      <point x="371" y="248" type="line"/>
      <point x="334" y="491" type="line"/>
    </contour>
  </outline>
</glyph>
<glyph name="aogonek" format="1">
  <advance width="500"/>
  <unicode hex="0105"/>
  <outline>
    <contour>
      <point x="303" y="371" type="curve" smooth="yes"/>
      <point x="303" y="393"/>
      <point x="292" y="420"/>
      <point x="266" y="420" type="curve" smooth="yes"/>
      <point x="184" y="420"/>
      <point x="102" y="184"/>
      <point x="102" y="115" type="curve" smooth="yes"/>
      <point x="102" y="89"/>
      <point x="116" y="58"/>
      <point x="146" y="58" type="curve" smooth="yes"/>
      <point x="234" y="58"/>
      <point x="303" y="300"/>
    </contour>
    <contour>
      <point x="434" y="127" type="curve"/>
      <point x="455" y="112" type="line"/>
      <point x="430" y="74"/>
      <point x="419" y="60"/>
      <point x="390" y="27" type="curve" smooth="yes"/>
      <point x="362" y="-3"/>
      <point x="355" y="-18"/>
      <point x="355" y="-41" type="curve" smooth="yes"/>
      <point x="355" y="-82"/>
      <point x="378" y="-104"/>
      <point x="418" y="-104" type="curve" smooth="yes"/>
      <point x="433" y="-104"/>
      <point x="444" y="-101"/>
      <point x="464" y="-91" type="curve" smooth="yes"/>
      <point x="472" y="-87"/>
      <point x="473" y="-86"/>
      <point x="478" y="-84" type="curve"/>
      <point x="500" y="-98" type="line"/>
      <point x="475" y="-144"/>
      <point x="427" y="-173"/>
      <point x="377" y="-173" type="curve" smooth="yes"/>
      <point x="316" y="-173"/>
      <point x="271" y="-139"/>
      <point x="271" y="-92" type="curve" smooth="yes"/>
      <point x="271" y="-67"/>
      <point x="278" y="-50"/>
      <point x="303" y="-14" type="curve"/>
      <point x="262" y="-10"/>
      <point x="237" y="15"/>
      <point x="237" y="52" type="curve" smooth="yes"/>
      <point x="237" y="66"/>
      <point x="240" y="79"/>
      <point x="251" y="119" type="curve"/>
      <point x="194" y="24"/>
      <point x="148" y="-13"/>
      <point x="87" y="-13" type="curve" smooth="yes"/>
      <point x="22" y="-13"/>
      <point x="-21" y="38"/>
      <point x="-21" y="114" type="curve" smooth="yes"/>
      <point x="-21" y="270"/>
      <point x="129" y="462"/>
      <point x="252" y="462" type="curve" smooth="yes"/>
      <point x="295" y="462"/>
      <point x="317" y="441"/>
      <point x="326" y="390" type="curve"/>
      <point x="344" y="449" type="line"/>
      <point x="455" y="456" type="line"/>
      <point x="384" y="220" type="line" smooth="yes"/>
      <point x="360" y="139"/>
      <point x="350" y="97"/>
      <point x="350" y="72" type="curve" smooth="yes"/>
      <point x="350" y="63"/>
      <point x="355" y="57"/>
      <point x="362" y="57" type="curve" smooth="yes"/>
      <point x="378" y="57"/>
      <point x="393" y="72"/>
    </contour>
  </outline>
</glyph>
<glyph name="dcroat" format="1">
  <advance width="500"/>
  <unicode hex="0111"/>
  <outline>
    <contour>
      <point x="308" y="368" type="curve" smooth="yes"/>
      <point x="308" y="391"/>
      <point x="298" y="420"/>
      <point x="270" y="420" type="curve" smooth="yes"/>
      <point x="184" y="420"/>
      <point x="103" y="190"/>
      <point x="103" y="118" type="curve" smooth="yes"/>
      <point x="103" y="93"/>
      <point x="114" y="59"/>
      <point x="145" y="59" type="curve" smooth="yes"/>
      <point x="225" y="59"/>
      <point x="308" y="300"/>
    </contour>
    <contour>
      <point x="359.507" y="59.0101" type="curve" smooth="yes"/>
      <point x="374.56" y="59.6065"/>
      <point x="399.302" y="86.5036"/>
      <point x="426" y="131" type="curve"/>
      <point x="448" y="115" type="line"/>
      <point x="393" y="27"/>
      <point x="348" y="-11"/>
      <point x="299" y="-11" type="curve" smooth="yes"/>
      <point x="261" y="-11"/>
      <point x="239" y="12"/>
      <point x="239" y="51" type="curve" smooth="yes"/>
      <point x="239" y="66"/>
      <point x="242" y="81"/>
      <point x="250" y="118" type="curve"/>
      <point x="193" y="23"/>
      <point x="147" y="-13"/>
      <point x="84" y="-13" type="curve" smooth="yes"/>
      <point x="23" y="-13"/>
      <point x="-22" y="40"/>
      <point x="-22" y="112" type="curve" smooth="yes"/>
      <point x="-22" y="269"/>
      <point x="128" y="462"/>
      <point x="250" y="462" type="curve" smooth="yes"/>
      <point x="279" y="462"/>
      <point x="298" y="453"/>
      <point x="322" y="429" type="curve"/>
      <point x="344" y="513" type="line"/>
      <point x="205" y="513" type="line"/>
      <point x="214" y="544" type="line"/>
      <point x="352" y="544" type="line"/>
      <point x="356" y="557"/>
      <point x="369" y="608"/>
      <point x="369" y="615" type="curve" smooth="yes"/>
      <point x="369" y="633"/>
      <point x="354" y="643"/>
      <point x="328" y="643" type="curve" smooth="yes"/>
      <point x="307" y="643" type="line"/>
      <point x="307" y="670" type="line"/>
      <point x="407" y="678"/>
      <point x="456" y="685"/>
      <point x="516" y="699" type="curve"/>
      <point x="473" y="544" type="line"/>
      <point x="539" y="544" type="line"/>
      <point x="531" y="513" type="line"/>
      <point x="465" y="513" type="line"/>
      <point x="351" y="91" type="line" smooth="yes"/>
      <point x="349.325" y="84.8567"/>
      <point x="348.585" y="79.6491"/>
      <point x="348.585" y="75.3337" type="curve" smooth="yes"/>
      <point x="348.585" y="64.4787"/>
      <point x="353.265" y="59.2685"/>
    </contour>
  </outline>
</glyph>
<glyph name="Ebreve" format="1">
  <advance width="670"/>
  <unicode hex="0114"/>
  <outline>
    <contour>
      <point x="653" y="669" type="line"/>
      <point x="610" y="479" type="line"/>
      <point x="583" y="484" type="line"/>
      <point x="583" y="615"/>
      <point x="520" y="637"/>
      <point x="394" y="637" type="curve" smooth="yes"/>
      <point x="358" y="637"/>
      <point x="345" y="627"/>
      <point x="336" y="593" type="curve" smooth="yes"/>
      <point x="275" y="370" type="line"/>
      <point x="295" y="370" type="line" smooth="yes"/>
      <point x="298.607" y="369.967"/>
      <point x="302.124" y="369.949"/>
      <point x="305.553" y="369.949" type="curve" smooth="yes"/>
      <point x="405.747" y="369.949"/>
      <point x="431.655" y="385.111"/>
      <point x="480" y="476" type="curve"/>
      <point x="508" y="472" type="line"/>
      <point x="434" y="199" type="line"/>
      <point x="406" y="204" type="line"/>
      <point x="408" y="217"/>
      <point x="410" y="231"/>
      <point x="410" y="244" type="curve" smooth="yes"/>
      <point x="410" y="337"/>
      <point x="343" y="338"/>
      <point x="266" y="338" type="curve"/>
      <point x="260" y="314"/>
      <point x="195" y="96"/>
      <point x="195" y="68" type="curve" smooth="yes"/>
      <point x="195" y="32"/>
      <point x="232" y="32"/>
      <point x="260" y="32" type="curve" smooth="yes"/>
      <point x="391" y="32"/>
      <point x="497" y="82"/>
      <point x="561" y="199" type="curve"/>
      <point x="586" y="194" type="line"/>
      <point x="527" y="0" type="line"/>
      <point x="-27" y="0" type="line"/>
      <point x="-27" y="25" type="line"/>
      <point x="24" y="34"/>
      <point x="39" y="45"/>
      <point x="53" y="97" type="curve" smooth="yes"/>
      <point x="176" y="546" type="line" smooth="yes"/>
      <point x="181" y="563"/>
      <point x="186" y="584"/>
      <point x="186" y="602" type="curve" smooth="yes"/>
      <point x="186" y="644"/>
      <point x="145" y="640"/>
      <point x="113" y="644" type="curve"/>
      <point x="113" y="669" type="line"/>
    </contour>
    <contour>
      <point x="606" y="884" type="line"/>
      <point x="577" y="793"/>
      <point x="515" y="721"/>
      <point x="413" y="721" type="curve" smooth="yes"/>
      <point x="342" y="721"/>
      <point x="296" y="754"/>
      <point x="296" y="828" type="curve" smooth="yes"/>
      <point x="296" y="847"/>
      <point x="298" y="866"/>
      <point x="303" y="884" type="curve"/>
      <point x="347" y="884" type="line"/>
      <point x="346" y="869" type="line" smooth="yes"/>
      <point x="345.894" y="867.055"/>
      <point x="345.842" y="865.158"/>
      <point x="345.842" y="863.307" type="curve" smooth="yes"/>
      <point x="345.842" y="812.819"/>
      <point x="384.768" y="797"/>
      <point x="433" y="797" type="curve" smooth="yes"/>
      <point x="497" y="797"/>
      <point x="534" y="828"/>
      <point x="562" y="884" type="curve"/>
    </contour>
  </outline>
</glyph>
<glyph name="edotaccent" format="1">
  <advance width="444"/>
  <unicode hex="0117"/>
  <outline>
    <contour>
      <point x="398" y="372" type="curve" smooth="yes"/>
      <point x="398" y="258"/>
      <point x="230" y="196"/>
      <point x="141" y="182" type="curve"/>
      <point x="137" y="166"/>
      <point x="135" y="150"/>
      <point x="135" y="133" type="curve" smooth="yes"/>
      <point x="135" y="86"/>
      <point x="151" y="51"/>
      <point x="202" y="51" type="curve" smooth="yes"/>
      <point x="255" y="51"/>
      <point x="291" y="103"/>
      <point x="317" y="142" type="curve"/>
      <point x="346" y="125" type="line"/>
      <point x="301" y="51"/>
      <point x="250" y="-13"/>
      <point x="155" y="-13" type="curve" smooth="yes"/>
      <point x="65" y="-13"/>
      <point x="5" y="52"/>
      <point x="5" y="141" type="curve" smooth="yes"/>
      <point x="5" y="288"/>
      <point x="141" y="462"/>
      <point x="295" y="462" type="curve" smooth="yes"/>
      <point x="349" y="462"/>
      <point x="398" y="431"/>
    </contour>
    <contour>
      <point x="306" y="395" type="curve" smooth="yes"/>
      <point x="306" y="414"/>
      <point x="299" y="429"/>
      <point x="277" y="429" type="curve" smooth="yes"/>
      <point x="210" y="429"/>
      <point x="160" y="267"/>
      <point x="148" y="214" type="curve"/>
      <point x="235" y="237"/>
      <point x="306" y="300"/>
    </contour>
    <contour>
      <point x="323" y="655" type="curve" smooth="yes"/>
      <point x="359" y="655"/>
      <point x="389" y="625"/>
      <point x="389" y="589" type="curve" smooth="yes"/>
      <point x="389" y="555"/>
      <point x="358" y="525"/>
      <point x="323" y="525" type="curve" smooth="yes"/>
      <point x="289" y="525"/>
      <point x="259" y="555"/>
      <point x="259" y="589" type="curve" smooth="yes"/>
      <point x="259" y="625"/>
      <point x="288" y="655"/>
    </contour>
  </outline>
</glyph>
<glyph name="Eogonek" format="1">
  <advance width="667"/>
  <unicode hex="0118"/>
  <outline>
    <contour>
      <point x="186" y="606" type="curve"/>
      <point x="187" y="606" type="line"/>
      <point x="187" y="635"/>
      <point x="162" y="637"/>
      <point x="114" y="644" type="curve"/>
      <point x="114" y="669" type="line"/>
      <point x="654" y="669" type="line"/>
      <point x="611" y="479" type="line"/>
      <point x="584" y="484" type="line"/>
      <point x="584" y="546"/>
      <point x="577" y="571"/>
      <point x="554" y="595" type="curve" smooth="yes"/>
      <point x="527" y="622"/>
      <point x="473" y="637"/>
      <point x="400" y="637" type="curve" smooth="yes"/>
      <point x="359" y="637"/>
      <point x="347" y="628"/>
      <point x="337" y="593" type="curve" smooth="yes"/>
      <point x="276" y="370" type="line"/>
      <point x="280.368" y="369.967"/>
      <point x="284.621" y="369.949"/>
      <point x="288.761" y="369.949" type="curve" smooth="yes"/>
      <point x="409.744" y="369.949"/>
      <point x="435.555" y="385.111"/>
      <point x="481" y="476" type="curve"/>
      <point x="509" y="472" type="line"/>
      <point x="435" y="199" type="line"/>
      <point x="407" y="204" type="line"/>
      <point x="410" y="223"/>
      <point x="411" y="234"/>
      <point x="411" y="248" type="curve" smooth="yes"/>
      <point x="411" y="317"/>
      <point x="381" y="336"/>
      <point x="267" y="338" type="curve"/>
      <point x="211" y="129" type="line" smooth="yes"/>
      <point x="210" y="125"/>
      <point x="196" y="75"/>
      <point x="196" y="66" type="curve" smooth="yes"/>
      <point x="196" y="42"/>
      <point x="214" y="32"/>
      <point x="257" y="32" type="curve" smooth="yes"/>
      <point x="343" y="32"/>
      <point x="411" y="51"/>
      <point x="467" y="90" type="curve" smooth="yes"/>
      <point x="506" y="117"/>
      <point x="527" y="142"/>
      <point x="562" y="199" type="curve"/>
      <point x="587" y="194" type="line"/>
      <point x="540" y="41" type="line" smooth="yes"/>
      <point x="527" y="-1"/>
      <point x="523" y="-23"/>
      <point x="523" y="-41" type="curve" smooth="yes"/>
      <point x="523" y="-82"/>
      <point x="546" y="-104"/>
      <point x="586" y="-104" type="curve" smooth="yes"/>
      <point x="614" y="-104"/>
      <point x="633" y="-89"/>
      <point x="645" y="-84" type="curve"/>
      <point x="667" y="-98" type="line"/>
      <point x="642" y="-144"/>
      <point x="594" y="-173"/>
      <point x="544" y="-173" type="curve" smooth="yes"/>
      <point x="483" y="-173"/>
      <point x="438" y="-139"/>
      <point x="438" y="-92" type="curve" smooth="yes"/>
      <point x="438" y="-65"/>
      <point x="447" y="-45"/>
      <point x="481" y="0" type="curve"/>
      <point x="-27" y="0" type="line"/>
      <point x="-27" y="25" type="line"/>
      <point x="25" y="33"/>
      <point x="37" y="44"/>
      <point x="53" y="97" type="curve" smooth="yes"/>
      <point x="176" y="546" type="line" smooth="yes"/>
      <point x="182" y="568"/>
      <point x="186" y="591"/>
    </contour>
  </outline>
</glyph>
<glyph name="eogonek" format="1">
  <advance width="444"/>
  <unicode hex="0119"/>
  <outline>
    <contour>
      <point x="306" y="395" type="curve" smooth="yes"/>
      <point x="306" y="414"/>
      <point x="299" y="429"/>
      <point x="277" y="429" type="curve" smooth="yes"/>
      <point x="210" y="429"/>
      <point x="160" y="267"/>
      <point x="148" y="214" type="curve"/>
      <point x="235" y="237"/>
      <point x="306" y="300"/>
    </contour>
    <contour>
      <point x="317" y="142" type="curve"/>
      <point x="346" y="125" type="line"/>
      <point x="324" y="89"/>
      <point x="314" y="74"/>
      <point x="296" y="52" type="curve" smooth="yes"/>
      <point x="266" y="15"/>
      <point x="259" y="-3"/>
      <point x="259" y="-37" type="curve" smooth="yes"/>
      <point x="259" y="-81"/>
      <point x="280" y="-104"/>
      <point x="322" y="-104" type="curve" smooth="yes"/>
      <point x="337" y="-104"/>
      <point x="348" y="-101"/>
      <point x="368" y="-91" type="curve" smooth="yes"/>
      <point x="376" y="-87"/>
      <point x="377" y="-86"/>
      <point x="382" y="-84" type="curve"/>
      <point x="404" y="-98" type="line"/>
      <point x="379" y="-144"/>
      <point x="331" y="-173"/>
      <point x="281" y="-173" type="curve" smooth="yes"/>
      <point x="220" y="-173"/>
      <point x="175" y="-139"/>
      <point x="175" y="-92" type="curve" smooth="yes"/>
      <point x="175" y="-65"/>
      <point x="184" y="-46"/>
      <point x="216" y="-3" type="curve"/>
      <point x="193" y="-10"/>
      <point x="177" y="-13"/>
      <point x="156" y="-13" type="curve" smooth="yes"/>
      <point x="69" y="-13"/>
      <point x="5" y="50"/>
      <point x="5" y="134" type="curve" smooth="yes"/>
      <point x="5" y="299"/>
      <point x="149" y="462"/>
      <point x="293" y="462" type="curve" smooth="yes"/>
      <point x="354" y="462"/>
      <point x="398" y="426"/>
      <point x="398" y="375" type="curve" smooth="yes"/>
      <point x="398" y="340"/>
      <point x="379" y="302"/>
      <point x="344" y="270" type="curve" smooth="yes"/>
      <point x="294" y="224"/>
      <point x="245" y="202"/>
      <point x="141" y="182" type="curve"/>
      <point x="137" y="162"/>
      <point x="135" y="149"/>
      <point x="135" y="133" type="curve" smooth="yes"/>
      <point x="135" y="79"/>
      <point x="157" y="51"/>
      <point x="200" y="51" type="curve" smooth="yes"/>
      <point x="242" y="51"/>
      <point x="270" y="73"/>
    </contour>
  </outline>
</glyph>
<glyph name="Hbar" format="1">
  <advance width="778"/>
  <unicode hex="0126"/>
  <outline>
    <contour>
      <point x="799" y="644" type="line"/>
      <point x="715" y="632"/>
      <point x="720" y="580"/>
      <point x="700" y="505" type="curve"/>
      <point x="750" y="505" type="line"/>
      <point x="738" y="461" type="line"/>
      <point x="688" y="461" type="line"/>
      <point x="609" y="175" type="line" smooth="yes"/>
      <point x="601" y="147"/>
      <point x="584" y="94"/>
      <point x="584" y="67" type="curve" smooth="yes"/>
      <point x="584" y="27"/>
      <point x="627" y="26"/>
      <point x="657" y="25" type="curve"/>
      <point x="657" y="0" type="line"/>
      <point x="340" y="0" type="line"/>
      <point x="340" y="25" type="line"/>
      <point x="400" y="27"/>
      <point x="425" y="39"/>
      <point x="441" y="97" type="curve" smooth="yes"/>
      <point x="505" y="329" type="line"/>
      <point x="266" y="329" type="line"/>
      <point x="255" y="289"/>
      <point x="199" y="124"/>
      <point x="199" y="68" type="curve" smooth="yes"/>
      <point x="199" y="24"/>
      <point x="239" y="27"/>
      <point x="272" y="25" type="curve"/>
      <point x="272" y="0" type="line"/>
      <point x="-24" y="0" type="line"/>
      <point x="-24" y="25" type="line"/>
      <point x="26" y="33"/>
      <point x="42" y="46"/>
      <point x="56" y="97" type="curve" smooth="yes"/>
      <point x="155" y="461" type="line"/>
      <point x="105" y="461" type="line"/>
      <point x="117" y="505" type="line"/>
      <point x="167" y="505" type="line"/>
      <point x="172" y="525"/>
      <point x="189" y="581"/>
      <point x="189" y="600" type="curve" smooth="yes"/>
      <point x="189" y="642"/>
      <point x="149" y="639"/>
      <point x="116" y="644" type="curve"/>
      <point x="116" y="669" type="line"/>
      <point x="433" y="669" type="line"/>
      <point x="433" y="644" type="line"/>
      <point x="334" y="641"/>
      <point x="337" y="592"/>
      <point x="314" y="505" type="curve"/>
      <point x="553" y="505" type="line"/>
      <point x="559" y="528"/>
      <point x="574" y="578"/>
      <point x="574" y="602" type="curve" smooth="yes"/>
      <point x="574" y="644"/>
      <point x="534" y="639"/>
      <point x="501" y="644" type="curve"/>
      <point x="501" y="669" type="line"/>
      <point x="799" y="669" type="line"/>
    </contour>
    <contour>
      <point x="541" y="461" type="line"/>
      <point x="302" y="461" type="line"/>
      <point x="278" y="373" type="line"/>
      <point x="517" y="373" type="line"/>
    </contour>
  </outline>
</glyph>
<glyph name="Itilde" format="1">
  <advance width="393"/>
  <unicode hex="0128"/>
  <outline>
    <contour>
      <point x="189" y="607" type="curve" smooth="yes"/>
      <point x="189" y="635"/>
      <point x="169" y="636"/>
      <point x="116" y="644" type="curve"/>
      <point x="116" y="669" type="line"/>
      <point x="414" y="669" type="line"/>
      <point x="414" y="644" type="line"/>
      <point x="363" y="638"/>
      <point x="347" y="625"/>
      <point x="332" y="572" type="curve" smooth="yes"/>
      <point x="218" y="152" type="line" smooth="yes"/>
      <point x="205" y="103"/>
      <point x="200" y="80"/>
      <point x="200" y="65" type="curve" smooth="yes"/>
      <point x="200" y="37"/>
      <point x="215" y="28"/>
      <point x="272" y="25" type="curve"/>
      <point x="272" y="0" type="line"/>
      <point x="-24" y="0" type="line"/>
      <point x="-24" y="25" type="line"/>
      <point x="25" y="31"/>
      <point x="42" y="45"/>
      <point x="56" y="97" type="curve" smooth="yes"/>
      <point x="179" y="546" type="line" smooth="yes"/>
      <point x="184" y="564"/>
      <point x="189" y="595"/>
    </contour>
    <contour>
      <point x="450" y="862" type="curve"/>
      <point x="491" y="862" type="line"/>
      <point x="469" y="779"/>
      <point x="434" y="743"/>
      <point x="374" y="743" type="curve" smooth="yes"/>
      <point x="355" y="743"/>
      <point x="343" y="746"/>
      <point x="317" y="756" type="curve" smooth="yes"/>
      <point x="258" y="779" type="line" smooth="yes"/>
      <point x="245" y="784"/>
      <point x="231" y="787"/>
      <point x="220" y="787" type="curve" smooth="yes"/>
      <point x="198" y="787"/>
      <point x="185" y="776"/>
      <point x="172" y="744" type="curve"/>
      <point x="132" y="744" type="line"/>
      <point x="145" y="816"/>
      <point x="191" y="862"/>
      <point x="248" y="862" type="curve" smooth="yes"/>
      <point x="272" y="862"/>
      <point x="304" y="854"/>
      <point x="345" y="836" type="curve" smooth="yes"/>
      <point x="371" y="825"/>
      <point x="388" y="820"/>
      <point x="399" y="820" type="curve" smooth="yes"/>
      <point x="422" y="820"/>
      <point x="435" y="831"/>
    </contour>
  </outline>
</glyph>
<glyph name="itilde" format="1">
  <advance width="278"/>
  <unicode hex="0129"/>
  <outline>
    <contour>
      <point x="238" y="127" type="line"/>
      <point x="199" y="67"/>
      <point x="152" y="-9"/>
      <point x="71" y="-9" type="curve" smooth="yes"/>
      <point x="29" y="-9"/>
      <point x="2" y="16"/>
      <point x="2" y="58" type="curve" smooth="yes"/>
      <point x="2" y="135"/>
      <point x="80" y="312"/>
      <point x="80" y="375" type="curve" smooth="yes"/>
      <point x="80" y="403.107"/>
      <point x="54.6093" y="407.275"/>
      <point x="32.2508" y="407.275" type="curve" smooth="yes"/>
      <point x="28.3587" y="407.275"/>
      <point x="24.5584" y="407.148"/>
      <point x="21" y="407" type="curve"/>
      <point x="21" y="434" type="line"/>
      <point x="88" y="439"/>
      <point x="157" y="447"/>
      <point x="223" y="462" type="curve"/>
      <point x="206" y="399"/>
      <point x="123" y="123"/>
      <point x="123" y="76" type="curve" smooth="yes"/>
      <point x="123" y="68"/>
      <point x="130" y="61"/>
      <point x="138" y="61" type="curve" smooth="yes"/>
      <point x="164" y="61"/>
      <point x="203" y="121"/>
      <point x="216" y="141" type="curve"/>
    </contour>
    <contour>
      <point x="330" y="655" type="curve"/>
      <point x="371" y="655" type="line"/>
      <point x="349" y="572"/>
      <point x="314" y="536"/>
      <point x="254" y="536" type="curve" smooth="yes"/>
      <point x="235" y="536"/>
      <point x="223" y="539"/>
      <point x="197" y="549" type="curve" smooth="yes"/>
      <point x="138" y="572" type="line" smooth="yes"/>
      <point x="125" y="577"/>
      <point x="111" y="580"/>
      <point x="100" y="580" type="curve" smooth="yes"/>
      <point x="78" y="580"/>
      <point x="65" y="569"/>
      <point x="52" y="537" type="curve"/>
      <point x="12" y="537" type="line"/>
      <point x="25" y="609"/>
      <point x="71" y="655"/>
      <point x="128" y="655" type="curve" smooth="yes"/>
      <point x="152" y="655"/>
      <point x="184" y="647"/>
      <point x="225" y="629" type="curve" smooth="yes"/>
      <point x="251" y="618"/>
      <point x="268" y="613"/>
      <point x="279" y="613" type="curve" smooth="yes"/>
      <point x="302" y="613"/>
      <point x="315" y="624"/>
    </contour>
  </outline>
</glyph>
<glyph name="Imacron" format="1">
  <advance width="393"/>
  <unicode hex="012A"/>
  <outline>
    <contour>
      <point x="189" y="607" type="curve" smooth="yes"/>
      <point x="189" y="635"/>
      <point x="169" y="636"/>
      <point x="116" y="644" type="curve"/>
      <point x="116" y="669" type="line"/>
      <point x="414" y="669" type="line"/>
      <point x="414" y="644" type="line"/>
      <point x="363" y="638"/>
      <point x="347" y="625"/>
      <point x="332" y="572" type="curve" smooth="yes"/>
      <point x="218" y="152" type="line" smooth="yes"/>
      <point x="205" y="103"/>
      <point x="200" y="80"/>
      <point x="200" y="65" type="curve" smooth="yes"/>
      <point x="200" y="37"/>
      <point x="215" y="28"/>
      <point x="272" y="25" type="curve"/>
      <point x="272" y="0" type="line"/>
      <point x="-24" y="0" type="line"/>
      <point x="-24" y="25" type="line"/>
      <point x="25" y="31"/>
      <point x="42" y="45"/>
      <point x="56" y="97" type="curve" smooth="yes"/>
      <point x="179" y="546" type="line" smooth="yes"/>
      <point x="184" y="564"/>
      <point x="189" y="595"/>
    </contour>
    <contour>
      <point x="477" y="830" type="line"/>
      <point x="461" y="760" type="line"/>
      <point x="135" y="760" type="line"/>
      <point x="152" y="830" type="line"/>
    </contour>
  </outline>
</glyph>
<glyph name="iogonek" format="1">
  <advance width="278"/>
  <unicode hex="012F"/>
  <outline>
    <contour>
      <point x="216" y="141" type="line"/>
      <point x="238" y="127" type="line"/>
      <point x="211" y="85"/>
      <point x="201" y="71"/>
      <point x="177" y="47" type="curve" smooth="yes"/>
      <point x="142" y="10"/>
      <point x="133" y="-7"/>
      <point x="133" y="-40" type="curve" smooth="yes"/>
      <point x="133" y="-81"/>
      <point x="155" y="-104"/>
      <point x="196" y="-104" type="curve" smooth="yes"/>
      <point x="211" y="-104"/>
      <point x="222" y="-101"/>
      <point x="242" y="-91" type="curve" smooth="yes"/>
      <point x="250" y="-87"/>
      <point x="251" y="-86"/>
      <point x="256" y="-84" type="curve"/>
      <point x="278" y="-98" type="line"/>
      <point x="253" y="-144"/>
      <point x="205" y="-173"/>
      <point x="155" y="-173" type="curve" smooth="yes"/>
      <point x="94" y="-173"/>
      <point x="49" y="-139"/>
      <point x="49" y="-92" type="curve" smooth="yes"/>
      <point x="49" y="-66"/>
      <point x="57" y="-48"/>
      <point x="86" y="-8" type="curve"/>
      <point x="79" y="-9"/>
      <point x="72" y="-9"/>
      <point x="69" y="-9" type="curve" smooth="yes"/>
      <point x="30" y="-9"/>
      <point x="2" y="17"/>
      <point x="2" y="54" type="curve" smooth="yes"/>
      <point x="2" y="67"/>
      <point x="7" y="95"/>
      <point x="15" y="123" type="curve" smooth="yes"/>
      <point x="73" y="338" type="line" smooth="yes"/>
      <point x="77" y="355"/>
      <point x="80" y="370"/>
      <point x="80" y="378" type="curve" smooth="yes"/>
      <point x="80" y="399"/>
      <point x="64" y="407"/>
      <point x="21" y="407" type="curve"/>
      <point x="21" y="434" type="line"/>
      <point x="99" y="440"/>
      <point x="169" y="450"/>
      <point x="223" y="462" type="curve"/>
      <point x="132" y="128" type="line" smooth="yes"/>
      <point x="129" y="116"/>
      <point x="123" y="82"/>
      <point x="123" y="76" type="curve" smooth="yes"/>
      <point x="123" y="68"/>
      <point x="130" y="61"/>
      <point x="138" y="61" type="curve" smooth="yes"/>
      <point x="153" y="61"/>
      <point x="176" y="82"/>
      <point x="202" y="121" type="curve" smooth="yes"/>
    </contour>
    <contour>
      <point x="194" y="685" type="curve" smooth="yes"/>
      <point x="231" y="685"/>
      <point x="263" y="654"/>
      <point x="263" y="617" type="curve" smooth="yes"/>
      <point x="263" y="580"/>
      <point x="232" y="550"/>
      <point x="194" y="550" type="curve" smooth="yes"/>
      <point x="157" y="550"/>
      <point x="128" y="580"/>
      <point x="128" y="619" type="curve" smooth="yes"/>
      <point x="128" y="654"/>
      <point x="159" y="685"/>
    </contour>
  </outline>
</glyph>
<glyph name="Idotaccent" format="1">
  <advance width="393"/>
  <unicode hex="0130"/>
  <outline>
    <contour>
      <point x="189" y="607" type="curve" smooth="yes"/>
      <point x="189" y="635"/>
      <point x="169" y="636"/>
      <point x="116" y="644" type="curve"/>
      <point x="116" y="669" type="line"/>
      <point x="414" y="669" type="line"/>
      <point x="414" y="644" type="line"/>
      <point x="363" y="638"/>
      <point x="347" y="625"/>
      <point x="332" y="572" type="curve" smooth="yes"/>
      <point x="218" y="152" type="line" smooth="yes"/>
      <point x="205" y="103"/>
      <point x="200" y="80"/>
      <point x="200" y="65" type="curve" smooth="yes"/>
      <point x="200" y="37"/>
      <point x="215" y="28"/>
      <point x="272" y="25" type="curve"/>
      <point x="272" y="0" type="line"/>
      <point x="-24" y="0" type="line"/>
      <point x="-24" y="25" type="line"/>
      <point x="25" y="31"/>
      <point x="42" y="45"/>
      <point x="56" y="97" type="curve" smooth="yes"/>
      <point x="179" y="546" type="line" smooth="yes"/>
      <point x="184" y="564"/>
      <point x="189" y="595"/>
    </contour>
    <contour>
      <point x="311" y="865" type="curve" smooth="yes"/>
      <point x="347" y="865"/>
      <point x="377" y="835"/>
      <point x="377" y="799" type="curve" smooth="yes"/>
      <point x="377" y="765"/>
      <point x="346" y="735"/>
      <point x="311" y="735" type="curve" smooth="yes"/>
      <point x="277" y="735"/>
      <point x="247" y="765"/>
      <point x="247" y="799" type="curve" smooth="yes"/>
      <point x="247" y="835"/>
      <point x="276" y="865"/>
    </contour>
  </outline>
</glyph>
<glyph name="IJ" format="1">
  <advance width="826"/>
  <unicode hex="0132"/>
  <outline>
    <contour>
      <point x="634" y="607" type="curve" smooth="yes"/>
      <point x="634" y="608" type="line" smooth="yes"/>
      <point x="634" y="630"/>
      <point x="620" y="636"/>
      <point x="561" y="644" type="curve"/>
      <point x="561" y="669" type="line"/>
      <point x="858" y="669" type="line"/>
      <point x="858" y="644" type="line"/>
      <point x="809" y="638"/>
      <point x="791" y="626"/>
      <point x="777" y="572" type="curve" smooth="yes"/>
      <point x="649" y="93" type="line" smooth="yes"/>
      <point x="614" y="-38"/>
      <point x="548" y="-99"/>
      <point x="440" y="-99" type="curve" smooth="yes"/>
      <point x="352" y="-99"/>
      <point x="288" y="-56"/>
      <point x="288" y="2" type="curve" smooth="yes"/>
      <point x="288" y="41"/>
      <point x="316" y="72"/>
      <point x="352" y="72" type="curve" smooth="yes"/>
      <point x="387" y="72"/>
      <point x="415" y="44"/>
      <point x="415" y="9" type="curve" smooth="yes"/>
      <point x="415" y="-23"/>
      <point x="392" y="-24"/>
      <point x="392" y="-45" type="curve" smooth="yes"/>
      <point x="392" y="-57"/>
      <point x="401" y="-63"/>
      <point x="419" y="-63" type="curve" smooth="yes"/>
      <point x="455" y="-63"/>
      <point x="470" y="-35"/>
      <point x="509" y="114" type="curve" smooth="yes"/>
      <point x="623" y="546" type="line" smooth="yes"/>
      <point x="630" y="572"/>
      <point x="634" y="595"/>
    </contour>
    <contour>
      <point x="189" y="608" type="curve" smooth="yes"/>
      <point x="189" y="636"/>
      <point x="169" y="637"/>
      <point x="116" y="645" type="curve"/>
      <point x="116" y="670" type="line"/>
      <point x="414" y="670" type="line"/>
      <point x="414" y="645" type="line"/>
      <point x="363" y="639"/>
      <point x="347" y="626"/>
      <point x="332" y="573" type="curve" smooth="yes"/>
      <point x="218" y="153" type="line" smooth="yes"/>
      <point x="205" y="104"/>
      <point x="200" y="81"/>
      <point x="200" y="66" type="curve" smooth="yes"/>
      <point x="200" y="38"/>
      <point x="215" y="29"/>
      <point x="272" y="26" type="curve"/>
      <point x="272" y="1" type="line"/>
      <point x="-24" y="1" type="line"/>
      <point x="-24" y="26" type="line"/>
      <point x="25" y="32"/>
      <point x="42" y="46"/>
      <point x="56" y="98" type="curve" smooth="yes"/>
      <point x="179" y="547" type="line" smooth="yes"/>
      <point x="184" y="565"/>
      <point x="189" y="596"/>
    </contour>
  </outline>
</glyph>
<glyph name="Lacute" format="1">
  <advance width="609"/>
  <unicode hex="0139"/>
  <outline>
    <contour>
      <point x="189" y="607" type="curve" smooth="yes"/>
      <point x="189" y="635"/>
      <point x="169" y="636"/>
      <point x="116" y="644" type="curve"/>
      <point x="116" y="669" type="line"/>
      <point x="433" y="669" type="line"/>
      <point x="433" y="644" type="line"/>
      <point x="367" y="640"/>
      <point x="348" y="627"/>
      <point x="332" y="572" type="curve" smooth="yes"/>
      <point x="203" y="94" type="line" smooth="yes"/>
      <point x="200" y="83"/>
      <point x="198" y="70"/>
      <point x="198" y="62" type="curve" smooth="yes"/>
      <point x="198" y="41"/>
      <point x="218" y="32"/>
      <point x="262" y="32" type="curve" smooth="yes"/>
      <point x="344" y="32"/>
      <point x="415" y="52"/>
      <point x="469" y="90" type="curve" smooth="yes"/>
      <point x="508" y="118"/>
      <point x="530" y="143"/>
      <point x="564" y="199" type="curve"/>
      <point x="588" y="194" type="line"/>
      <point x="529" y="0" type="line"/>
      <point x="-24" y="0" type="line"/>
      <point x="-24" y="25" type="line"/>
      <point x="25" y="32"/>
      <point x="42" y="45"/>
      <point x="56" y="97" type="curve" smooth="yes"/>
      <point x="179" y="546" type="line" smooth="yes"/>
      <point x="184" y="564"/>
      <point x="189" y="595"/>
    </contour>
    <contour>
      <point x="316" y="723" type="line"/>
      <point x="267" y="723" type="line"/>
      <point x="389" y="854" type="line" smooth="yes"/>
      <point x="424" y="892"/>
      <point x="441" y="904"/>
      <point x="459" y="904" type="curve" smooth="yes"/>
      <point x="485" y="904"/>
      <point x="507" y="882"/>
      <point x="507" y="857" type="curve" smooth="yes"/>
      <point x="507" y="838"/>
      <point x="498" y="827"/>
      <point x="468" y="810" type="curve" smooth="yes"/>
    </contour>
  </outline>
</glyph>
<glyph name="lcaron" format="1">
  <advance width="424"/>
  <unicode hex="013E"/>
  <outline>
    <contour>
      <point x="274" y="401" type="curve"/>
      <point x="262" y="422" type="line"/>
      <point x="333" y="460"/>
      <point x="368" y="495"/>
      <point x="368" y="527" type="curve" smooth="yes"/>
      <point x="368" y="540"/>
      <point x="361" y="549"/>
      <point x="341" y="562" type="curve" smooth="yes"/>
      <point x="314" y="581"/>
      <point x="305" y="595"/>
      <point x="305" y="619" type="curve" smooth="yes"/>
      <point x="305" y="657"/>
      <point x="332" y="685"/>
      <point x="369" y="685" type="curve" smooth="yes"/>
      <point x="415" y="685"/>
      <point x="446" y="650"/>
      <point x="446" y="597" type="curve" smooth="yes"/>
      <point x="446" y="524"/>
      <point x="378" y="447"/>
    </contour>
    <contour>
      <point x="290" y="699" type="curve"/>
      <point x="145" y="176" type="line" smooth="yes"/>
      <point x="138" y="152"/>
      <point x="123" y="99"/>
      <point x="123" y="76" type="curve" smooth="yes"/>
      <point x="123" y="68"/>
      <point x="131" y="61"/>
      <point x="138" y="61" type="curve" smooth="yes"/>
      <point x="164" y="61"/>
      <point x="203" y="121"/>
      <point x="216" y="141" type="curve"/>
      <point x="238" y="127" type="line"/>
      <point x="198" y="66"/>
      <point x="152" y="-9"/>
      <point x="70" y="-9" type="curve" smooth="yes"/>
      <point x="25" y="-9"/>
      <point x="2" y="14"/>
      <point x="2" y="58" type="curve" smooth="yes"/>
      <point x="2" y="115"/>
      <point x="94" y="415"/>
      <point x="115" y="490" type="curve" smooth="yes"/>
      <point x="121" y="513"/>
      <point x="144" y="591"/>
      <point x="144" y="613" type="curve" smooth="yes"/>
      <point x="144" y="638.111"/>
      <point x="120.838" y="642.956"/>
      <point x="99.6298" y="642.956" type="curve" smooth="yes"/>
      <point x="92.9675" y="642.956"/>
      <point x="86.4981" y="642.478"/>
      <point x="81" y="642" type="curve"/>
      <point x="81" y="669" type="line"/>
      <point x="151" y="675"/>
      <point x="221" y="686"/>
    </contour>
  </outline>
</glyph>
<glyph name="Ldot" format="1">
  <advance width="609"/>
  <unicode hex="013F"/>
  <outline>
    <contour>
      <point x="425" y="409" type="curve" smooth="yes"/>
      <point x="465" y="409"/>
      <point x="498" y="375"/>
      <point x="498" y="335" type="curve" smooth="yes"/>
      <point x="498" y="293"/>
      <point x="465" y="261"/>
      <point x="423" y="261" type="curve" smooth="yes"/>
      <point x="382" y="261"/>
      <point x="350" y="293"/>
      <point x="350" y="335" type="curve" smooth="yes"/>
      <point x="350" y="377"/>
      <point x="383" y="409"/>
    </contour>
    <contour>
      <point x="189" y="607" type="curve" smooth="yes"/>
      <point x="189" y="635"/>
      <point x="169" y="636"/>
      <point x="116" y="644" type="curve"/>
      <point x="116" y="669" type="line"/>
      <point x="433" y="669" type="line"/>
      <point x="433" y="644" type="line"/>
      <point x="367" y="640"/>
      <point x="348" y="627"/>
      <point x="332" y="572" type="curve" smooth="yes"/>
      <point x="203" y="94" type="line" smooth="yes"/>
      <point x="200" y="83"/>
      <point x="198" y="70"/>
      <point x="198" y="62" type="curve" smooth="yes"/>
      <point x="198" y="41"/>
      <point x="218" y="32"/>
      <point x="262" y="32" type="curve" smooth="yes"/>
      <point x="344" y="32"/>
      <point x="415" y="52"/>
      <point x="469" y="90" type="curve" smooth="yes"/>
      <point x="508" y="118"/>
      <point x="530" y="143"/>
      <point x="564" y="199" type="curve"/>
      <point x="588" y="194" type="line"/>
      <point x="529" y="0" type="line"/>
      <point x="-24" y="0" type="line"/>
      <point x="-24" y="25" type="line"/>
      <point x="25" y="32"/>
      <point x="42" y="45"/>
      <point x="56" y="97" type="curve" smooth="yes"/>
      <point x="179" y="546" type="line" smooth="yes"/>
      <point x="184" y="564"/>
      <point x="189" y="595"/>
    </contour>
  </outline>
</glyph>
<glyph name="ldot" format="1">
  <advance width="528"/>
  <unicode hex="0140"/>
  <outline>
    <contour>
      <point x="404" y="405" type="curve" smooth="yes"/>
      <point x="444" y="405"/>
      <point x="477" y="371"/>
      <point x="477" y="331" type="curve" smooth="yes"/>
      <point x="477" y="289"/>
      <point x="444" y="257"/>
      <point x="402" y="257" type="curve" smooth="yes"/>
      <point x="361" y="257"/>
      <point x="329" y="289"/>
      <point x="329" y="331" type="curve" smooth="yes"/>
      <point x="329" y="373"/>
      <point x="362" y="405"/>
    </contour>
    <contour>
      <point x="290" y="699" type="curve"/>
      <point x="145" y="176" type="line" smooth="yes"/>
      <point x="138" y="152"/>
      <point x="123" y="99"/>
      <point x="123" y="76" type="curve" smooth="yes"/>
      <point x="123" y="68"/>
      <point x="131" y="61"/>
      <point x="138" y="61" type="curve" smooth="yes"/>
      <point x="164" y="61"/>
      <point x="203" y="121"/>
      <point x="216" y="141" type="curve"/>
      <point x="238" y="127" type="line"/>
      <point x="198" y="66"/>
      <point x="152" y="-9"/>
      <point x="70" y="-9" type="curve" smooth="yes"/>
      <point x="25" y="-9"/>
      <point x="2" y="14"/>
      <point x="2" y="58" type="curve" smooth="yes"/>
      <point x="2" y="115"/>
      <point x="94" y="415"/>
      <point x="115" y="490" type="curve" smooth="yes"/>
      <point x="121" y="513"/>
      <point x="144" y="591"/>
      <point x="144" y="613" type="curve" smooth="yes"/>
      <point x="144" y="638.111"/>
      <point x="120.838" y="642.956"/>
      <point x="99.6298" y="642.956" type="curve" smooth="yes"/>
      <point x="92.9675" y="642.956"/>
      <point x="86.4981" y="642.478"/>
      <point x="81" y="642" type="curve"/>
      <point x="81" y="669" type="line"/>
      <point x="151" y="675"/>
      <point x="221" y="686"/>
    </contour>
  </outline>
</glyph>
<glyph name="lslash" format="1">
  <advance width="278"/>
  <unicode hex="0142"/>
  <outline>
    <contour>
      <point x="216" y="141" type="curve"/>
      <point x="238" y="127" type="line"/>
      <point x="169" y="22"/>
      <point x="131" y="-9"/>
      <point x="70" y="-9" type="curve" smooth="yes"/>
      <point x="28" y="-9"/>
      <point x="2" y="15"/>
      <point x="2" y="53" type="curve" smooth="yes"/>
      <point x="2" y="79"/>
      <point x="16" y="137"/>
      <point x="64" y="309" type="curve"/>
      <point x="-13" y="266" type="line"/>
      <point x="6" y="336" type="line"/>
      <point x="84" y="379" type="line"/>
      <point x="127" y="531"/>
      <point x="144" y="599"/>
      <point x="144" y="615" type="curve" smooth="yes"/>
      <point x="144" y="633"/>
      <point x="129" y="643"/>
      <point x="102" y="643" type="curve" smooth="yes"/>
      <point x="97" y="643"/>
      <point x="92" y="643"/>
      <point x="81" y="642" type="curve"/>
      <point x="81" y="669" type="line"/>
      <point x="156" y="676"/>
      <point x="204" y="683"/>
      <point x="290" y="699" type="curve"/>
      <point x="215" y="427" type="line"/>
      <point x="301" y="474" type="line"/>
      <point x="282" y="406" type="line"/>
      <point x="196" y="359" type="line"/>
      <point x="145" y="176" type="line" smooth="yes"/>
      <point x="131" y="125"/>
      <point x="123" y="90"/>
      <point x="123" y="76" type="curve" smooth="yes"/>
      <point x="123" y="68"/>
      <point x="130" y="61"/>
      <point x="138" y="61" type="curve" smooth="yes"/>
      <point x="156" y="61"/>
      <point x="176" y="82"/>
    </contour>
  </outline>
</glyph>
<glyph name="Eng" format="1">
  <advance width="722"/>
  <unicode hex="014A"/>
  <outline>
    <contour>
      <point x="748" y="644" type="line"/>
      <point x="669" y="625"/>
      <point x="666" y="563"/>
      <point x="646" y="491" type="curve" smooth="yes"/>
      <point x="495" y="-47" type="line" smooth="yes"/>
      <point x="470" y="-135"/>
      <point x="403" y="-207"/>
      <point x="307" y="-207" type="curve" smooth="yes"/>
      <point x="259" y="-207"/>
      <point x="201" y="-186"/>
      <point x="201" y="-130" type="curve" smooth="yes"/>
      <point x="201" y="-103"/>
      <point x="222" y="-77"/>
      <point x="250" y="-77" type="curve" smooth="yes"/>
      <point x="277" y="-77"/>
      <point x="299" y="-99"/>
      <point x="299" y="-126" type="curve" smooth="yes"/>
      <point x="299" y="-147"/>
      <point x="284" y="-156"/>
      <point x="284" y="-164" type="curve" smooth="yes"/>
      <point x="284" y="-171"/>
      <point x="301" y="-176"/>
      <point x="306" y="-176" type="curve" smooth="yes"/>
      <point x="405" y="-176"/>
      <point x="447" y="-80"/>
      <point x="467" y="1" type="curve"/>
      <point x="218" y="534" type="line"/>
      <point x="119" y="178" type="line" smooth="yes"/>
      <point x="111" y="149"/>
      <point x="101" y="116"/>
      <point x="101" y="86" type="curve" smooth="yes"/>
      <point x="101" y="35"/>
      <point x="140" y="28"/>
      <point x="181" y="25" type="curve"/>
      <point x="181" y="0" type="line"/>
      <point x="-27" y="0" type="line"/>
      <point x="-27" y="25" type="line"/>
      <point x="48" y="43"/>
      <point x="54" y="111"/>
      <point x="74" y="178" type="curve" smooth="yes"/>
      <point x="194" y="589" type="line"/>
      <point x="174" y="635"/>
      <point x="160" y="640"/>
      <point x="111" y="644" type="curve"/>
      <point x="111" y="669" type="line"/>
      <point x="306" y="669" type="line"/>
      <point x="521" y="204" type="line"/>
      <point x="601" y="491" type="line" smooth="yes"/>
      <point x="609" y="520"/>
      <point x="619" y="553"/>
      <point x="619" y="583" type="curve" smooth="yes"/>
      <point x="619" y="634"/>
      <point x="580" y="641"/>
      <point x="539" y="644" type="curve"/>
      <point x="539" y="669" type="line"/>
      <point x="748" y="669" type="line"/>
    </contour>
  </outline>
</glyph>
<glyph name="eng" format="1">
  <advance width="547"/>
  <unicode hex="014B"/>
  <outline>
    <contour>
      <point x="474" y="383" type="curve" smooth="yes"/>
      <point x="474" y="353"/>
      <point x="461" y="317"/>
      <point x="454" y="289" type="curve" smooth="yes"/>
      <point x="385" y="24" type="line" smooth="yes"/>
      <point x="358" y="-80"/>
      <point x="303" y="-207"/>
      <point x="177" y="-207" type="curve" smooth="yes"/>
      <point x="130" y="-207"/>
      <point x="71" y="-186"/>
      <point x="71" y="-130" type="curve" smooth="yes"/>
      <point x="71" y="-103"/>
      <point x="92" y="-77"/>
      <point x="120" y="-77" type="curve" smooth="yes"/>
      <point x="147" y="-77"/>
      <point x="169" y="-99"/>
      <point x="169" y="-126" type="curve" smooth="yes"/>
      <point x="169" y="-147"/>
      <point x="154" y="-156"/>
      <point x="154" y="-164" type="curve" smooth="yes"/>
      <point x="154" y="-171"/>
      <point x="171" y="-176"/>
      <point x="176" y="-176" type="curve" smooth="yes"/>
      <point x="222" y="-176"/>
      <point x="240" y="-78"/>
      <point x="249" y="-45" type="curve" smooth="yes"/>
      <point x="341" y="310" type="line" smooth="yes"/>
      <point x="345" y="327"/>
      <point x="354" y="351"/>
      <point x="354" y="368" type="curve" smooth="yes"/>
      <point x="354" y="381"/>
      <point x="341" y="390"/>
      <point x="329" y="390" type="curve" smooth="yes"/>
      <point x="228" y="390"/>
      <point x="132" y="65"/>
      <point x="115" y="0" type="curve"/>
      <point x="-6" y="0" type="line"/>
      <point x="8" y="52"/>
      <point x="96" y="346"/>
      <point x="96" y="381" type="curve" smooth="yes"/>
      <point x="96" y="405.5"/>
      <point x="69.9688" y="407.031"/>
      <point x="50.0625" y="407.031" type="curve" smooth="yes"/>
      <point x="47.2188" y="407.031"/>
      <point x="44.5" y="407"/>
      <point x="42" y="407" type="curve"/>
      <point x="42" y="434" type="line"/>
      <point x="107" y="434"/>
      <point x="179" y="447"/>
      <point x="242" y="461" type="curve"/>
      <point x="182" y="275" type="line"/>
      <point x="185" y="273" type="line"/>
      <point x="233" y="344"/>
      <point x="301" y="462"/>
      <point x="398" y="462" type="curve" smooth="yes"/>
      <point x="450" y="462"/>
      <point x="474" y="437"/>
    </contour>
  </outline>
</glyph>
<glyph name="ohungarumlaut" format="1">
  <advance width="500"/>
  <unicode hex="0151"/>
  <outline>
    <contour>
      <point x="322" y="369" type="curve" smooth="yes"/>
      <point x="322" y="402"/>
      <point x="312" y="433"/>
      <point x="274" y="433" type="curve" smooth="yes"/>
      <point x="171" y="433"/>
      <point x="116" y="166"/>
      <point x="116" y="86" type="curve" smooth="yes"/>
      <point x="116" y="50"/>
      <point x="124" y="16"/>
      <point x="168" y="16" type="curve" smooth="yes"/>
      <point x="264" y="16"/>
      <point x="322" y="294"/>
    </contour>
    <contour>
      <point x="284" y="462" type="curve" smooth="yes"/>
      <point x="375" y="462"/>
      <point x="441" y="399"/>
      <point x="441" y="311" type="curve" smooth="yes"/>
      <point x="441" y="142"/>
      <point x="305" y="-13"/>
      <point x="156" y="-13" type="curve" smooth="yes"/>
      <point x="64" y="-13"/>
      <point x="-3" y="50"/>
      <point x="-3" y="135" type="curve" smooth="yes"/>
      <point x="-3" y="303"/>
      <point x="137" y="462"/>
    </contour>
    <contour>
      <point x="222" y="516" type="line"/>
      <point x="173" y="516" type="line"/>
      <point x="295" y="647" type="line" smooth="yes"/>
      <point x="330" y="685"/>
      <point x="347" y="697"/>
      <point x="365" y="697" type="curve" smooth="yes"/>
      <point x="391" y="697"/>
      <point x="413" y="675"/>
      <point x="413" y="650" type="curve" smooth="yes"/>
      <point x="413" y="631"/>
      <point x="404" y="620"/>
      <point x="374" y="603" type="curve" smooth="yes"/>
    </contour>
    <contour>
      <point x="411" y="516" type="line"/>
      <point x="362" y="516" type="line"/>
      <point x="484" y="647" type="line" smooth="yes"/>
      <point x="519" y="685"/>
      <point x="536" y="697"/>
      <point x="554" y="697" type="curve" smooth="yes"/>
      <point x="580" y="697"/>
      <point x="602" y="675"/>
      <point x="602" y="650" type="curve" smooth="yes"/>
      <point x="602" y="631"/>
      <point x="593" y="620"/>
      <point x="563" y="603" type="curve" smooth="yes"/>
    </contour>
  </outline>
</glyph>
<glyph name="racute" format="1">
  <advance width="389"/>
  <unicode hex="0155"/>
  <outline>
    <contour>
      <point x="389" y="396" type="curve" smooth="yes"/>
      <point x="389" y="361"/>
      <point x="369" y="323"/>
      <point x="330" y="323" type="curve" smooth="yes"/>
      <point x="296" y="323"/>
      <point x="284" y="361"/>
      <point x="270" y="361" type="curve" smooth="yes"/>
      <point x="204" y="361"/>
      <point x="120" y="58"/>
      <point x="100" y="0" type="curve"/>
      <point x="-21" y="0" type="line"/>
      <point x="-4" y="59"/>
      <point x="81" y="331"/>
      <point x="81" y="380" type="curve" smooth="yes"/>
      <point x="81" y="405.485"/>
      <point x="55.5152" y="407.029"/>
      <point x="35.0851" y="407.029" type="curve" smooth="yes"/>
      <point x="32.2672" y="407.029"/>
      <point x="29.5455" y="407"/>
      <point x="27" y="407" type="curve"/>
      <point x="27" y="434" type="line"/>
      <point x="95" y="440"/>
      <point x="161" y="445"/>
      <point x="227" y="462" type="curve"/>
      <point x="171" y="284" type="line"/>
      <point x="176" y="282" type="line"/>
      <point x="202" y="334"/>
      <point x="263" y="462"/>
      <point x="331" y="462" type="curve" smooth="yes"/>
      <point x="368" y="462"/>
      <point x="389" y="431"/>
    </contour>
    <contour>
      <point x="216" y="516" type="line"/>
      <point x="167" y="516" type="line"/>
      <point x="289" y="647" type="line" smooth="yes"/>
      <point x="324" y="685"/>
      <point x="341" y="697"/>
      <point x="359" y="697" type="curve" smooth="yes"/>
      <point x="385" y="697"/>
      <point x="407" y="675"/>
      <point x="407" y="650" type="curve" smooth="yes"/>
      <point x="407" y="631"/>
      <point x="398" y="620"/>
      <point x="368" y="603" type="curve" smooth="yes"/>
    </contour>
  </outline>
</glyph>
<glyph name="rcedilla" format="1">
  <advance width="389"/>
  <unicode hex="0157"/>
  <outline>
    <contour>
      <point x="-35" y="-234" type="curve"/>
      <point x="-42" y="-218" type="line"/>
      <point x="-3" y="-208"/>
      <point x="31" y="-187"/>
      <point x="31" y="-158" type="curve" smooth="yes"/>
      <point x="31" y="-150"/>
      <point x="27" y="-144"/>
      <point x="19" y="-141" type="curve" smooth="yes"/>
      <point x="0" y="-134"/>
      <point x="-26" y="-121"/>
      <point x="-26" y="-93" type="curve" smooth="yes"/>
      <point x="-26" y="-60"/>
      <point x="-2" y="-40"/>
      <point x="27" y="-40" type="curve" smooth="yes"/>
      <point x="68" y="-40"/>
      <point x="95" y="-70"/>
      <point x="95" y="-112" type="curve" smooth="yes"/>
      <point x="95" y="-176"/>
      <point x="29" y="-218"/>
    </contour>
    <contour>
      <point x="389" y="396" type="curve" smooth="yes"/>
      <point x="389" y="361"/>
      <point x="369" y="323"/>
      <point x="330" y="323" type="curve" smooth="yes"/>
      <point x="296" y="323"/>
      <point x="284" y="361"/>
      <point x="270" y="361" type="curve" smooth="yes"/>
      <point x="204" y="361"/>
      <point x="120" y="58"/>
      <point x="100" y="0" type="curve"/>
      <point x="-21" y="0" type="line"/>
      <point x="-4" y="59"/>
      <point x="81" y="331"/>
      <point x="81" y="380" type="curve" smooth="yes"/>
      <point x="81" y="405.485"/>
      <point x="55.5152" y="407.029"/>
      <point x="35.0851" y="407.029" type="curve" smooth="yes"/>
      <point x="32.2672" y="407.029"/>
      <point x="29.5455" y="407"/>
      <point x="27" y="407" type="curve"/>
      <point x="27" y="434" type="line"/>
      <point x="95" y="440"/>
      <point x="161" y="445"/>
      <point x="227" y="462" type="curve"/>
      <point x="171" y="284" type="line"/>
      <point x="176" y="282" type="line"/>
      <point x="202" y="334"/>
      <point x="263" y="462"/>
      <point x="331" y="462" type="curve" smooth="yes"/>
      <point x="368" y="462"/>
      <point x="389" y="431"/>
    </contour>
  </outline>
</glyph>
<glyph name="scircumflex" format="1">
  <advance width="389"/>
  <unicode hex="015D"/>
  <outline>
    <contour>
      <point x="333" y="461" type="line"/>
      <point x="310" y="308" type="line"/>
      <point x="283" y="310" type="line"/>
      <point x="275" y="358"/>
      <point x="255" y="429"/>
      <point x="195" y="429" type="curve" smooth="yes"/>
      <point x="162" y="429"/>
      <point x="142" y="407"/>
      <point x="142" y="375" type="curve" smooth="yes"/>
      <point x="142" y="311"/>
      <point x="279" y="225"/>
      <point x="279" y="121" type="curve" smooth="yes"/>
      <point x="279" y="36"/>
      <point x="209" y="-13"/>
      <point x="129" y="-13" type="curve" smooth="yes"/>
      <point x="96" y="-13"/>
      <point x="67" y="7"/>
      <point x="37" y="7" type="curve" smooth="yes"/>
      <point x="26" y="7"/>
      <point x="12" y="-2"/>
      <point x="8" y="-13" type="curve"/>
      <point x="-19" y="-13" type="line"/>
      <point x="3" y="153" type="line"/>
      <point x="30" y="150" type="line"/>
      <point x="36" y="97"/>
      <point x="60" y="17"/>
      <point x="126" y="17" type="curve" smooth="yes"/>
      <point x="157" y="17"/>
      <point x="183" y="40"/>
      <point x="183" y="72" type="curve" smooth="yes"/>
      <point x="183" y="151"/>
      <point x="47" y="217"/>
      <point x="47" y="337" type="curve" smooth="yes"/>
      <point x="47" y="416"/>
      <point x="105" y="462"/>
      <point x="181" y="462" type="curve" smooth="yes"/>
      <point x="216" y="462"/>
      <point x="243" y="440"/>
      <point x="276" y="440" type="curve" smooth="yes"/>
      <point x="292" y="440"/>
      <point x="297" y="448"/>
      <point x="304" y="461" type="curve"/>
    </contour>
    <contour>
      <point x="344" y="516" type="line"/>
      <point x="256" y="611" type="line"/>
      <point x="125" y="516" type="line"/>
      <point x="68" y="516" type="line"/>
      <point x="228" y="690" type="line"/>
      <point x="309" y="690" type="line"/>
      <point x="395" y="516" type="line"/>
    </contour>
  </outline>
</glyph>
<glyph name="scedilla" format="1">
  <advance width="389"/>
  <unicode hex="015F"/>
  <outline>
    <contour>
      <point x="114" y="-12" type="curve"/>
      <point x="80" y="-62" type="line"/>
      <point x="90" y="-60"/>
      <point x="96" y="-59"/>
      <point x="106" y="-59" type="curve" smooth="yes"/>
      <point x="158" y="-59"/>
      <point x="196" y="-89"/>
      <point x="196" y="-131" type="curve" smooth="yes"/>
      <point x="196" y="-181"/>
      <point x="143" y="-218"/>
      <point x="72" y="-218" type="curve" smooth="yes"/>
      <point x="36" y="-218"/>
      <point x="4" y="-211"/>
      <point x="-40" y="-193" type="curve"/>
      <point x="-18" y="-160" type="line"/>
      <point x="10" y="-173"/>
      <point x="27" y="-177"/>
      <point x="49" y="-177" type="curve" smooth="yes"/>
      <point x="83" y="-177"/>
      <point x="105" y="-161"/>
      <point x="105" y="-136" type="curve" smooth="yes"/>
      <point x="105" y="-114"/>
      <point x="87" y="-100"/>
      <point x="58" y="-100" type="curve" smooth="yes"/>
      <point x="48" y="-100"/>
      <point x="40" y="-101"/>
      <point x="28" y="-104" type="curve"/>
      <point x="15" y="-92" type="line"/>
      <point x="75" y="-3" type="line" smooth="yes"/>
      <point x="72" y="-2"/>
      <point x="69" y="-1"/>
      <point x="68" y="-1" type="curve" smooth="yes"/>
      <point x="55" y="4"/>
      <point x="43" y="7"/>
      <point x="37" y="7" type="curve" smooth="yes"/>
      <point x="24" y="7"/>
      <point x="12" y="-1"/>
      <point x="8" y="-13" type="curve"/>
      <point x="-19" y="-13" type="line"/>
      <point x="3" y="153" type="line"/>
      <point x="30" y="150" type="line"/>
      <point x="38" y="96"/>
      <point x="46" y="73"/>
      <point x="66" y="48" type="curve" smooth="yes"/>
      <point x="82" y="28"/>
      <point x="103" y="17"/>
      <point x="126" y="17" type="curve" smooth="yes"/>
      <point x="158" y="17"/>
      <point x="183" y="41"/>
      <point x="183" y="71" type="curve" smooth="yes"/>
      <point x="183" y="96"/>
      <point x="165" y="130"/>
      <point x="127" y="175" type="curve" smooth="yes"/>
      <point x="61" y="253"/>
      <point x="47" y="282"/>
      <point x="47" y="336" type="curve" smooth="yes"/>
      <point x="47" y="412"/>
      <point x="100" y="462"/>
      <point x="181" y="462" type="curve" smooth="yes"/>
      <point x="201" y="462"/>
      <point x="214" y="459"/>
      <point x="239" y="449" type="curve" smooth="yes"/>
      <point x="257" y="442"/>
      <point x="266" y="440"/>
      <point x="275" y="440" type="curve" smooth="yes"/>
      <point x="290" y="440"/>
      <point x="293" y="442"/>
      <point x="304" y="461" type="curve"/>
      <point x="333" y="461" type="line"/>
      <point x="310" y="308" type="line"/>
      <point x="283" y="310" type="line"/>
      <point x="267" y="393"/>
      <point x="241" y="429"/>
      <point x="195" y="429" type="curve" smooth="yes"/>
      <point x="163" y="429"/>
      <point x="142" y="408"/>
      <point x="142" y="376" type="curve" smooth="yes"/>
      <point x="142" y="354"/>
      <point x="160" y="323"/>
      <point x="198" y="278" type="curve" smooth="yes"/>
      <point x="254" y="213"/>
      <point x="279" y="164"/>
      <point x="279" y="119" type="curve" smooth="yes"/>
      <point x="279" y="45"/>
      <point x="215" y="-13"/>
      <point x="133" y="-13" type="curve" smooth="yes"/>
      <point x="129" y="-13"/>
      <point x="122" y="-13"/>
    </contour>
  </outline>
</glyph>
<glyph name="Tbar" format="1">
  <advance width="611"/>
  <unicode hex="0166"/>
  <outline>
    <contour>
      <point x="650" y="669" type="line"/>
      <point x="614" y="477" type="line"/>
      <point x="587" y="479" type="line"/>
      <point x="584" y="581"/>
      <point x="551" y="630"/>
      <point x="449" y="634" type="curve"/>
      <point x="377" y="373" type="line"/>
      <point x="455" y="373" type="line"/>
      <point x="440" y="329" type="line"/>
      <point x="365" y="329" type="line"/>
      <point x="350" y="273"/>
      <point x="298" y="128"/>
      <point x="298" y="68" type="curve" smooth="yes"/>
      <point x="298" y="21"/>
      <point x="346" y="26"/>
      <point x="381" y="25" type="curve"/>
      <point x="381" y="0" type="line"/>
      <point x="50" y="0" type="line"/>
      <point x="50" y="25" type="line"/>
      <point x="64" y="25" type="line" smooth="yes"/>
      <point x="66" y="24.9231"/>
      <point x="67.9601" y="24.8846"/>
      <point x="69.8811" y="24.8846" type="curve" smooth="yes"/>
      <point x="117.907" y="24.8846"/>
      <point x="141.538" y="48.9231"/>
      <point x="155" y="97" type="curve" smooth="yes"/>
      <point x="219" y="329" type="line"/>
      <point x="141" y="329" type="line"/>
      <point x="157" y="373" type="line"/>
      <point x="231" y="373" type="line"/>
      <point x="303" y="634" type="line"/>
      <point x="199" y="634"/>
      <point x="132" y="583"/>
      <point x="86" y="491" type="curve"/>
      <point x="61" y="498" type="line"/>
      <point x="99" y="669" type="line"/>
    </contour>
  </outline>
</glyph>
<glyph name="Ubreve" format="1">
  <advance width="722"/>
  <unicode hex="016C"/>
  <outline>
    <contour>
      <point x="744" y="669" type="line"/>
      <point x="744" y="644" type="line"/>
      <point x="689" y="633"/>
      <point x="680" y="623"/>
      <point x="642" y="491" type="curve" smooth="yes"/>
      <point x="576" y="263" type="line" smooth="yes"/>
      <point x="545" y="155"/>
      <point x="521" y="101"/>
      <point x="487" y="62" type="curve" smooth="yes"/>
      <point x="442" y="9"/>
      <point x="375" y="-18"/>
      <point x="290" y="-18" type="curve" smooth="yes"/>
      <point x="159" y="-18"/>
      <point x="67" y="50"/>
      <point x="67" y="148" type="curve" smooth="yes"/>
      <point x="67" y="181"/>
      <point x="79" y="243"/>
      <point x="100" y="323" type="curve" smooth="yes"/>
      <point x="156" y="529" type="line" smooth="yes"/>
      <point x="165" y="562"/>
      <point x="171" y="593"/>
      <point x="171" y="605" type="curve" smooth="yes"/>
      <point x="171" y="627"/>
      <point x="161" y="635"/>
      <point x="129" y="640" type="curve" smooth="yes"/>
      <point x="125" y="640"/>
      <point x="112" y="642"/>
      <point x="98" y="644" type="curve"/>
      <point x="98" y="669" type="line"/>
      <point x="409" y="669" type="line"/>
      <point x="409" y="644" type="line"/>
      <point x="347" y="641"/>
      <point x="332" y="629"/>
      <point x="315" y="572" type="curve" smooth="yes"/>
      <point x="233" y="272" type="line" smooth="yes"/>
      <point x="208" y="181"/>
      <point x="205" y="166"/>
      <point x="205" y="139" type="curve" smooth="yes"/>
      <point x="205" y="76"/>
      <point x="251" y="38"/>
      <point x="327" y="38" type="curve" smooth="yes"/>
      <point x="382" y="38"/>
      <point x="426" y="58"/>
      <point x="460" y="98" type="curve" smooth="yes"/>
      <point x="490" y="135"/>
      <point x="512" y="185"/>
      <point x="539" y="282" type="curve" smooth="yes"/>
      <point x="597" y="491" type="line" smooth="yes"/>
      <point x="608" y="532"/>
      <point x="616" y="571"/>
      <point x="616" y="588" type="curve" smooth="yes"/>
      <point x="616" y="623"/>
      <point x="593" y="639"/>
      <point x="536" y="644" type="curve"/>
      <point x="536" y="669" type="line"/>
    </contour>
    <contour>
      <point x="641" y="884" type="line"/>
      <point x="612" y="793"/>
      <point x="550" y="721"/>
      <point x="448" y="721" type="curve" smooth="yes"/>
      <point x="377" y="721"/>
      <point x="331" y="754"/>
      <point x="331" y="828" type="curve" smooth="yes"/>
      <point x="331" y="847"/>
      <point x="333" y="866"/>
      <point x="338" y="884" type="curve"/>
      <point x="382" y="884" type="line"/>
      <point x="381" y="869" type="line" smooth="yes"/>
      <point x="380.894" y="867.055"/>
      <point x="380.842" y="865.158"/>
      <point x="380.842" y="863.307" type="curve" smooth="yes"/>
      <point x="380.842" y="812.819"/>
      <point x="419.768" y="797"/>
      <point x="468" y="797" type="curve" smooth="yes"/>
      <point x="532" y="797"/>
      <point x="569" y="828"/>
      <point x="597" y="884" type="curve"/>
    </contour>
  </outline>
</glyph>
<glyph name="florin" format="1">
  <advance width="500"/>
  <unicode hex="0192"/>
  <outline>
    <contour>
      <point x="424" y="608.483" type="curve" smooth="yes"/>
      <point x="424.281" y="641.088"/>
      <point x="453" y="650.054"/>
      <point x="453" y="661" type="curve" smooth="yes"/>
      <point x="453" y="670"/>
      <point x="442" y="676"/>
      <point x="428" y="676" type="curve" smooth="yes"/>
      <point x="366" y="676"/>
      <point x="350" y="587"/>
      <point x="325" y="439" type="curve"/>
      <point x="443" y="439" type="line"/>
      <point x="434" y="395" type="line"/>
      <point x="318" y="395" type="line"/>
      <point x="291" y="241" type="line" smooth="yes"/>
      <point x="244" y="-28"/>
      <point x="157" y="-157"/>
      <point x="23" y="-157" type="curve" smooth="yes"/>
      <point x="-43" y="-157"/>
      <point x="-87" y="-122"/>
      <point x="-87" y="-70" type="curve" smooth="yes"/>
      <point x="-87" y="-35"/>
      <point x="-63" y="-10"/>
      <point x="-30" y="-10" type="curve" smooth="yes"/>
      <point x="0" y="-10"/>
      <point x="23" y="-32"/>
      <point x="23" y="-60" type="curve" smooth="yes"/>
      <point x="23" y="-85"/>
      <point x="-5" y="-103"/>
      <point x="-5" y="-114" type="curve" smooth="yes"/>
      <point x="-5" y="-123"/>
      <point x="3" y="-127"/>
      <point x="20" y="-127" type="curve" smooth="yes"/>
      <point x="37" y="-127"/>
      <point x="47" y="-123"/>
      <point x="57" y="-113" type="curve" smooth="yes"/>
      <point x="77" y="-94"/>
      <point x="100" y="-34"/>
      <point x="113" y="32" type="curve" smooth="yes"/>
      <point x="183" y="396" type="line"/>
      <point x="78" y="396" type="line"/>
      <point x="86" y="440" type="line"/>
      <point x="193" y="440" type="line"/>
      <point x="230" y="608"/>
      <point x="317" y="707"/>
      <point x="427" y="707" type="curve" smooth="yes"/>
      <point x="490" y="707"/>
      <point x="537" y="670"/>
      <point x="537" y="620" type="curve" smooth="yes"/>
      <point x="537" y="584"/>
      <point x="513" y="559"/>
      <point x="477" y="559" type="curve" smooth="yes"/>
      <point x="445.184" y="559"/>
      <point x="424.24" y="578.771"/>
    </contour>
  </outline>
</glyph>
<glyph name="Ohorn" format="1">
  <advance width="734"/>
  <unicode hex="01A0"/>
  <outline>
    <contour>
      <point x="792" y="730" type="curve" smooth="yes"/>
      <point x="792" y="650"/>
      <point x="685" y="612"/>
      <point x="639" y="601" type="curve"/>
      <point x="683" y="538"/>
      <point x="691" y="493"/>
      <point x="691" y="444" type="curve" smooth="yes"/>
      <point x="691" y="225"/>
      <point x="493" y="-18"/>
      <point x="265" y="-18" type="curve" smooth="yes"/>
      <point x="135" y="-18"/>
      <point x="27" y="73"/>
      <point x="27" y="207" type="curve" smooth="yes"/>
      <point x="27" y="430"/>
      <point x="211" y="685"/>
      <point x="449" y="685" type="curve" smooth="yes"/>
      <point x="543" y="685"/>
      <point x="582" y="654"/>
      <point x="621" y="622" type="curve"/>
      <point x="644" y="624"/>
      <point x="680" y="640"/>
      <point x="680" y="660" type="curve" smooth="yes"/>
      <point x="680" y="707"/>
      <point x="668" y="694"/>
      <point x="668" y="738" type="curve" smooth="yes"/>
      <point x="668" y="782"/>
      <point x="701" y="800"/>
      <point x="730" y="800" type="curve" smooth="yes"/>
      <point x="769" y="800"/>
      <point x="792" y="770"/>
    </contour>
    <contour>
      <point x="547" y="526" type="curve" smooth="yes"/>
      <point x="547" y="593"/>
      <point x="518" y="651"/>
      <point x="442" y="651" type="curve" smooth="yes"/>
      <point x="274" y="651"/>
      <point x="171" y="284"/>
      <point x="171" y="150" type="curve" smooth="yes"/>
      <point x="171" y="79"/>
      <point x="195" y="16"/>
      <point x="275" y="16" type="curve" smooth="yes"/>
      <point x="445" y="16"/>
      <point x="547" y="391"/>
    </contour>
  </outline>
</glyph>
<glyph name="uni01C3" format="1">
  <advance width="389"/>
  <unicode hex="01C3"/>
  <outline>
    <contour>
      <point x="196" y="204" type="curve"/>
      <point x="167" y="212" type="line"/>
      <point x="197" y="368"/>
      <point x="215" y="487"/>
      <point x="220" y="565" type="curve" smooth="yes"/>
      <point x="222" y="609"/>
      <point x="224" y="620"/>
      <point x="232" y="638" type="curve" smooth="yes"/>
      <point x="246" y="667"/>
      <point x="270" y="684"/>
      <point x="301" y="684" type="curve" smooth="yes"/>
      <point x="342" y="684"/>
      <point x="370" y="655"/>
      <point x="370" y="611" type="curve" smooth="yes"/>
      <point x="370" y="584"/>
      <point x="365" y="569"/>
      <point x="339" y="522" type="curve" smooth="yes"/>
      <point x="283" y="411"/>
      <point x="238" y="312"/>
    </contour>
    <contour>
      <point x="140" y="133" type="curve" smooth="yes"/>
      <point x="178" y="133"/>
      <point x="213" y="97"/>
      <point x="213" y="58" type="curve" smooth="yes"/>
      <point x="213" y="19"/>
      <point x="180" y="-13"/>
      <point x="139" y="-13" type="curve" smooth="yes"/>
      <point x="98" y="-13"/>
      <point x="67" y="17"/>
      <point x="67" y="58" type="curve" smooth="yes"/>
      <point x="67" y="100"/>
      <point x="99" y="133"/>
    </contour>
  </outline>
</glyph>
<glyph name="uni01C5" format="1">
  <advance width="1133"/>
  <unicode hex="01C5"/>
  <outline>
    <contour>
      <point x="1112" y="439" type="line"/>
      <point x="831" y="104" type="line"/>
      <point x="940" y="61"/>
      <point x="934" y="-49"/>
      <point x="986" y="-49" type="curve" smooth="yes"/>
      <point x="994" y="-49"/>
      <point x="1007" y="-44"/>
      <point x="1007" y="-34" type="curve" smooth="yes"/>
      <point x="1007" y="-20"/>
      <point x="987" y="-13"/>
      <point x="987" y="15" type="curve" smooth="yes"/>
      <point x="987" y="41"/>
      <point x="1010" y="65"/>
      <point x="1036" y="65" type="curve" smooth="yes"/>
      <point x="1066" y="65"/>
      <point x="1090" y="41"/>
      <point x="1090" y="11" type="curve" smooth="yes"/>
      <point x="1090" y="-45"/>
      <point x="1033" y="-78"/>
      <point x="983" y="-78" type="curve" smooth="yes"/>
      <point x="887" y="-78"/>
      <point x="833" y="5"/>
      <point x="779" y="5" type="curve" smooth="yes"/>
      <point x="758" y="5"/>
      <point x="742" y="-11"/>
      <point x="726" y="-23" type="curve"/>
      <point x="701" y="-1" type="line"/>
      <point x="993" y="353" type="line"/>
      <point x="848" y="353" type="line" smooth="yes"/>
      <point x="811" y="353"/>
      <point x="796" y="322"/>
      <point x="785" y="292" type="curve"/>
      <point x="757" y="295" type="line"/>
      <point x="800" y="449" type="line"/>
      <point x="1112" y="449" type="line"/>
    </contour>
    <contour>
      <point x="1173" y="690" type="line"/>
      <point x="1011" y="516" type="line"/>
      <point x="929" y="516" type="line"/>
      <point x="841" y="690" type="line"/>
      <point x="891" y="690" type="line"/>
      <point x="982" y="593" type="line"/>
      <point x="1117" y="690" type="line"/>
    </contour>
    <contour>
      <point x="707" y="391" type="curve" smooth="yes"/>
      <point x="707" y="143"/>
      <point x="493" y="0"/>
      <point x="262" y="0" type="curve" smooth="yes"/>
      <point x="-24" y="0" type="line"/>
      <point x="-24" y="25" type="line"/>
      <point x="26" y="30"/>
      <point x="43" y="50"/>
      <point x="56" y="97" type="curve" smooth="yes"/>
      <point x="188" y="582" type="line" smooth="yes"/>
      <point x="189.766" y="588.593"/>
      <point x="190.576" y="594.452"/>
      <point x="190.576" y="599.662" type="curve" smooth="yes"/>
      <point x="190.576" y="638.706"/>
      <point x="145.115" y="641.353"/>
      <point x="116" y="644" type="curve"/>
      <point x="116" y="669" type="line"/>
      <point x="406" y="669" type="line" smooth="yes"/>
      <point x="585" y="669"/>
      <point x="707" y="578"/>
    </contour>
    <contour>
      <point x="560" y="453" type="curve" smooth="yes"/>
      <point x="560" y="562"/>
      <point x="520" y="638"/>
      <point x="398" y="638" type="curve" smooth="yes"/>
      <point x="368" y="638"/>
      <point x="349" y="633"/>
      <point x="340" y="600" type="curve" smooth="yes"/>
      <point x="212" y="126" type="line" smooth="yes"/>
      <point x="207" y="107"/>
      <point x="199" y="88"/>
      <point x="199" y="69" type="curve" smooth="yes"/>
      <point x="199" y="35"/>
      <point x="233" y="34"/>
      <point x="258" y="34" type="curve" smooth="yes"/>
      <point x="475" y="34"/>
      <point x="560" y="270"/>
    </contour>
  </outline>
</glyph>
<glyph name="uni01C7" format="1">
  <advance width="1109"/>
  <unicode hex="01C7"/>
  <outline>
    <contour>
      <point x="909" y="607" type="curve" smooth="yes"/>
      <point x="909" y="608" type="line" smooth="yes"/>
      <point x="909" y="630"/>
      <point x="895" y="636"/>
      <point x="836" y="644" type="curve"/>
      <point x="836" y="669" type="line"/>
      <point x="1133" y="669" type="line"/>
      <point x="1133" y="644" type="line"/>
      <point x="1084" y="638"/>
      <point x="1066" y="626"/>
      <point x="1052" y="572" type="curve" smooth="yes"/>
      <point x="924" y="93" type="line" smooth="yes"/>
      <point x="889" y="-38"/>
      <point x="823" y="-99"/>
      <point x="715" y="-99" type="curve" smooth="yes"/>
      <point x="627" y="-99"/>
      <point x="563" y="-56"/>
      <point x="563" y="2" type="curve" smooth="yes"/>
      <point x="563" y="41"/>
      <point x="591" y="72"/>
      <point x="627" y="72" type="curve" smooth="yes"/>
      <point x="662" y="72"/>
      <point x="690" y="44"/>
      <point x="690" y="9" type="curve" smooth="yes"/>
      <point x="690" y="-23"/>
      <point x="667" y="-24"/>
      <point x="667" y="-45" type="curve" smooth="yes"/>
      <point x="667" y="-57"/>
      <point x="676" y="-63"/>
      <point x="694" y="-63" type="curve" smooth="yes"/>
      <point x="730" y="-63"/>
      <point x="745" y="-35"/>
      <point x="784" y="114" type="curve" smooth="yes"/>
      <point x="898" y="546" type="line" smooth="yes"/>
      <point x="905" y="572"/>
      <point x="909" y="595"/>
    </contour>
    <contour>
      <point x="189" y="608" type="curve" smooth="yes"/>
      <point x="189" y="636"/>
      <point x="169" y="637"/>
      <point x="116" y="645" type="curve"/>
      <point x="116" y="670" type="line"/>
      <point x="433" y="670" type="line"/>
      <point x="433" y="645" type="line"/>
      <point x="367" y="641"/>
      <point x="348" y="628"/>
      <point x="332" y="573" type="curve" smooth="yes"/>
      <point x="203" y="95" type="line" smooth="yes"/>
      <point x="200" y="84"/>
      <point x="198" y="71"/>
      <point x="198" y="63" type="curve" smooth="yes"/>
      <point x="198" y="42"/>
      <point x="218" y="33"/>
      <point x="262" y="33" type="curve" smooth="yes"/>
      <point x="344" y="33"/>
      <point x="415" y="53"/>
      <point x="469" y="91" type="curve" smooth="yes"/>
      <point x="508" y="119"/>
      <point x="530" y="144"/>
      <point x="564" y="200" type="curve"/>
      <point x="588" y="195" type="line"/>
      <point x="529" y="1" type="line"/>
      <point x="-24" y="1" type="line"/>
      <point x="-24" y="26" type="line"/>
      <point x="25" y="33"/>
      <point x="42" y="46"/>
      <point x="56" y="98" type="curve" smooth="yes"/>
      <point x="179" y="547" type="line" smooth="yes"/>
      <point x="184" y="565"/>
      <point x="189" y="596"/>
    </contour>
  </outline>
</glyph>
<glyph name="uni01C9" format="1">
  <advance width="556"/>
  <unicode hex="01C9"/>
  <outline>
    <contour>
      <point x="517" y="462" type="curve"/>
      <point x="403" y="24" type="line" smooth="yes"/>
      <point x="376" y="-80"/>
      <point x="321" y="-207"/>
      <point x="195" y="-207" type="curve" smooth="yes"/>
      <point x="147" y="-207"/>
      <point x="89" y="-186"/>
      <point x="89" y="-130" type="curve" smooth="yes"/>
      <point x="89" y="-103"/>
      <point x="110" y="-77"/>
      <point x="138" y="-77" type="curve" smooth="yes"/>
      <point x="165" y="-77"/>
      <point x="187" y="-99"/>
      <point x="187" y="-126" type="curve" smooth="yes"/>
      <point x="187" y="-147"/>
      <point x="172" y="-156"/>
      <point x="172" y="-164" type="curve" smooth="yes"/>
      <point x="172" y="-171"/>
      <point x="189" y="-176"/>
      <point x="194" y="-176" type="curve" smooth="yes"/>
      <point x="240" y="-176"/>
      <point x="258" y="-78"/>
      <point x="267" y="-45" type="curve" smooth="yes"/>
      <point x="359" y="310" type="line" smooth="yes"/>
      <point x="364" y="331"/>
      <point x="371" y="354"/>
      <point x="371" y="376" type="curve" smooth="yes"/>
      <point x="371" y="402.863"/>
      <point x="349.794" y="407.93"/>
      <point x="328.178" y="407.93" type="curve" smooth="yes"/>
      <point x="321.63" y="407.93"/>
      <point x="315.045" y="407.465"/>
      <point x="309" y="407" type="curve"/>
      <point x="309" y="434" type="line"/>
      <point x="379" y="440"/>
      <point x="448" y="447"/>
    </contour>
    <contour>
      <point x="488" y="685" type="curve" smooth="yes"/>
      <point x="526" y="685"/>
      <point x="557" y="654"/>
      <point x="557" y="617" type="curve" smooth="yes"/>
      <point x="557" y="580"/>
      <point x="526" y="550"/>
      <point x="488" y="550" type="curve" smooth="yes"/>
      <point x="451" y="550"/>
      <point x="422" y="580"/>
      <point x="422" y="619" type="curve" smooth="yes"/>
      <point x="422" y="654"/>
      <point x="453" y="685"/>
    </contour>
    <contour>
      <point x="290" y="699" type="curve"/>
      <point x="145" y="176" type="line" smooth="yes"/>
      <point x="138" y="152"/>
      <point x="123" y="99"/>
      <point x="123" y="76" type="curve" smooth="yes"/>
      <point x="123" y="68"/>
      <point x="131" y="61"/>
      <point x="138" y="61" type="curve" smooth="yes"/>
      <point x="164" y="61"/>
      <point x="203" y="121"/>
      <point x="216" y="141" type="curve"/>
      <point x="238" y="127" type="line"/>
      <point x="198" y="66"/>
      <point x="152" y="-9"/>
      <point x="70" y="-9" type="curve" smooth="yes"/>
      <point x="25" y="-9"/>
      <point x="2" y="14"/>
      <point x="2" y="58" type="curve" smooth="yes"/>
      <point x="2" y="115"/>
      <point x="94" y="415"/>
      <point x="115" y="490" type="curve" smooth="yes"/>
      <point x="121" y="513"/>
      <point x="144" y="591"/>
      <point x="144" y="613" type="curve" smooth="yes"/>
      <point x="144" y="638.111"/>
      <point x="120.838" y="642.956"/>
      <point x="99.6298" y="642.956" type="curve" smooth="yes"/>
      <point x="92.9675" y="642.956"/>
      <point x="86.4981" y="642.478"/>
      <point x="81" y="642" type="curve"/>
      <point x="81" y="669" type="line"/>
      <point x="151" y="675"/>
      <point x="221" y="686"/>
    </contour>
  </outline>
</glyph>
<glyph name="uni01CA" format="1">
  <advance width="1222"/>
  <unicode hex="01CA"/>
  <outline>
    <contour>
      <point x="1022" y="607" type="curve" smooth="yes"/>
      <point x="1022" y="608" type="line" smooth="yes"/>
      <point x="1022" y="630"/>
      <point x="1008" y="636"/>
      <point x="949" y="644" type="curve"/>
      <point x="949" y="669" type="line"/>
      <point x="1246" y="669" type="line"/>
      <point x="1246" y="644" type="line"/>
      <point x="1197" y="638"/>
      <point x="1179" y="626"/>
      <point x="1165" y="572" type="curve" smooth="yes"/>
      <point x="1037" y="93" type="line" smooth="yes"/>
      <point x="1002" y="-38"/>
      <point x="936" y="-99"/>
      <point x="828" y="-99" type="curve" smooth="yes"/>
      <point x="740" y="-99"/>
      <point x="676" y="-56"/>
      <point x="676" y="2" type="curve" smooth="yes"/>
      <point x="676" y="41"/>
      <point x="704" y="72"/>
      <point x="740" y="72" type="curve" smooth="yes"/>
      <point x="775" y="72"/>
      <point x="803" y="44"/>
      <point x="803" y="9" type="curve" smooth="yes"/>
      <point x="803" y="-23"/>
      <point x="780" y="-24"/>
      <point x="780" y="-45" type="curve" smooth="yes"/>
      <point x="780" y="-57"/>
      <point x="789" y="-63"/>
      <point x="807" y="-63" type="curve" smooth="yes"/>
      <point x="843" y="-63"/>
      <point x="858" y="-35"/>
      <point x="897" y="114" type="curve" smooth="yes"/>
      <point x="1011" y="546" type="line" smooth="yes"/>
      <point x="1018" y="572"/>
      <point x="1022" y="595"/>
    </contour>
    <contour>
      <point x="304" y="670" type="line"/>
      <point x="519" y="205" type="line"/>
      <point x="599" y="492" type="line" smooth="yes"/>
      <point x="610" y="532"/>
      <point x="617" y="568"/>
      <point x="617" y="586" type="curve" smooth="yes"/>
      <point x="617" y="624"/>
      <point x="596" y="640"/>
      <point x="537" y="645" type="curve"/>
      <point x="537" y="670" type="line"/>
      <point x="746" y="670" type="line"/>
      <point x="746" y="645" type="line"/>
      <point x="688" y="632"/>
      <point x="681" y="624"/>
      <point x="644" y="492" type="curve" smooth="yes"/>
      <point x="501" y="-14" type="line"/>
      <point x="473" y="-14" type="line"/>
      <point x="216" y="535" type="line"/>
      <point x="117" y="179" type="line" smooth="yes"/>
      <point x="106" y="138"/>
      <point x="99" y="103"/>
      <point x="99" y="85" type="curve" smooth="yes"/>
      <point x="99" y="46"/>
      <point x="120" y="31"/>
      <point x="179" y="26" type="curve"/>
      <point x="179" y="1" type="line"/>
      <point x="-29" y="1" type="line"/>
      <point x="-29" y="26" type="line"/>
      <point x="26" y="37"/>
      <point x="33" y="48"/>
      <point x="72" y="179" type="curve" smooth="yes"/>
      <point x="192" y="590" type="line"/>
      <point x="173" y="634"/>
      <point x="164" y="640"/>
      <point x="109" y="645" type="curve"/>
      <point x="109" y="670" type="line"/>
    </contour>
  </outline>
</glyph>
<glyph name="uni01CB" format="1">
  <advance width="1000"/>
  <unicode hex="01CB"/>
  <outline>
    <contour>
      <point x="961" y="462" type="curve"/>
      <point x="847" y="24" type="line" smooth="yes"/>
      <point x="820" y="-80"/>
      <point x="765" y="-207"/>
      <point x="639" y="-207" type="curve" smooth="yes"/>
      <point x="591" y="-207"/>
      <point x="533" y="-186"/>
      <point x="533" y="-130" type="curve" smooth="yes"/>
      <point x="533" y="-103"/>
      <point x="554" y="-77"/>
      <point x="582" y="-77" type="curve" smooth="yes"/>
      <point x="609" y="-77"/>
      <point x="631" y="-99"/>
      <point x="631" y="-126" type="curve" smooth="yes"/>
      <point x="631" y="-147"/>
      <point x="616" y="-156"/>
      <point x="616" y="-164" type="curve" smooth="yes"/>
      <point x="616" y="-171"/>
      <point x="633" y="-176"/>
      <point x="638" y="-176" type="curve" smooth="yes"/>
      <point x="684" y="-176"/>
      <point x="702" y="-78"/>
      <point x="711" y="-45" type="curve" smooth="yes"/>
      <point x="803" y="310" type="line" smooth="yes"/>
      <point x="808" y="331"/>
      <point x="815" y="354"/>
      <point x="815" y="376" type="curve" smooth="yes"/>
      <point x="815" y="402.863"/>
      <point x="793.794" y="407.93"/>
      <point x="772.178" y="407.93" type="curve" smooth="yes"/>
      <point x="765.63" y="407.93"/>
      <point x="759.045" y="407.465"/>
      <point x="753" y="407" type="curve"/>
      <point x="753" y="434" type="line"/>
      <point x="823" y="440"/>
      <point x="892" y="447"/>
    </contour>
    <contour>
      <point x="932" y="685" type="curve" smooth="yes"/>
      <point x="970" y="685"/>
      <point x="1001" y="654"/>
      <point x="1001" y="617" type="curve" smooth="yes"/>
      <point x="1001" y="580"/>
      <point x="970" y="550"/>
      <point x="932" y="550" type="curve" smooth="yes"/>
      <point x="895" y="550"/>
      <point x="866" y="580"/>
      <point x="866" y="619" type="curve" smooth="yes"/>
      <point x="866" y="654"/>
      <point x="897" y="685"/>
    </contour>
    <contour>
      <point x="304" y="669" type="line"/>
      <point x="519" y="204" type="line"/>
      <point x="599" y="491" type="line" smooth="yes"/>
      <point x="610" y="531"/>
      <point x="617" y="567"/>
      <point x="617" y="585" type="curve" smooth="yes"/>
      <point x="617" y="623"/>
      <point x="596" y="639"/>
      <point x="537" y="644" type="curve"/>
      <point x="537" y="669" type="line"/>
      <point x="746" y="669" type="line"/>
      <point x="746" y="644" type="line"/>
      <point x="688" y="631"/>
      <point x="681" y="623"/>
      <point x="644" y="491" type="curve" smooth="yes"/>
      <point x="501" y="-15" type="line"/>
      <point x="473" y="-15" type="line"/>
      <point x="216" y="534" type="line"/>
      <point x="117" y="178" type="line" smooth="yes"/>
      <point x="106" y="137"/>
      <point x="99" y="102"/>
      <point x="99" y="84" type="curve" smooth="yes"/>
      <point x="99" y="45"/>
      <point x="120" y="30"/>
      <point x="179" y="25" type="curve"/>
      <point x="179" y="0" type="line"/>
      <point x="-29" y="0" type="line"/>
      <point x="-29" y="25" type="line"/>
      <point x="26" y="36"/>
      <point x="33" y="47"/>
      <point x="72" y="178" type="curve" smooth="yes"/>
      <point x="192" y="589" type="line"/>
      <point x="173" y="633"/>
      <point x="164" y="639"/>
      <point x="109" y="644" type="curve"/>
      <point x="109" y="669" type="line"/>
    </contour>
  </outline>
</glyph>
<glyph name="uni01CC" format="1">
  <advance width="834"/>
  <unicode hex="01CC"/>
  <outline>
    <contour>
      <point x="795" y="462" type="curve"/>
      <point x="681" y="24" type="line" smooth="yes"/>
      <point x="654" y="-80"/>
      <point x="599" y="-207"/>
      <point x="473" y="-207" type="curve" smooth="yes"/>
      <point x="425" y="-207"/>
      <point x="367" y="-186"/>
      <point x="367" y="-130" type="curve" smooth="yes"/>
      <point x="367" y="-103"/>
      <point x="388" y="-77"/>
      <point x="416" y="-77" type="curve" smooth="yes"/>
      <point x="443" y="-77"/>
      <point x="465" y="-99"/>
      <point x="465" y="-126" type="curve" smooth="yes"/>
      <point x="465" y="-147"/>
      <point x="450" y="-156"/>
      <point x="450" y="-164" type="curve" smooth="yes"/>
      <point x="450" y="-171"/>
      <point x="467" y="-176"/>
      <point x="472" y="-176" type="curve" smooth="yes"/>
      <point x="518" y="-176"/>
      <point x="536" y="-78"/>
      <point x="545" y="-45" type="curve" smooth="yes"/>
      <point x="637" y="310" type="line" smooth="yes"/>
      <point x="642" y="331"/>
      <point x="649" y="354"/>
      <point x="649" y="376" type="curve" smooth="yes"/>
      <point x="649" y="402.863"/>
      <point x="627.794" y="407.93"/>
      <point x="606.178" y="407.93" type="curve" smooth="yes"/>
      <point x="599.63" y="407.93"/>
      <point x="593.045" y="407.465"/>
      <point x="587" y="407" type="curve"/>
      <point x="587" y="434" type="line"/>
      <point x="657" y="440"/>
      <point x="726" y="447"/>
    </contour>
    <contour>
      <point x="766" y="685" type="curve" smooth="yes"/>
      <point x="804" y="685"/>
      <point x="835" y="654"/>
      <point x="835" y="617" type="curve" smooth="yes"/>
      <point x="835" y="580"/>
      <point x="804" y="550"/>
      <point x="766" y="550" type="curve" smooth="yes"/>
      <point x="729" y="550"/>
      <point x="700" y="580"/>
      <point x="700" y="619" type="curve" smooth="yes"/>
      <point x="700" y="654"/>
      <point x="731" y="685"/>
    </contour>
    <contour>
      <point x="493" y="122" type="line"/>
      <point x="459" y="64"/>
      <point x="412" y="-9"/>
      <point x="336" y="-9" type="curve" smooth="yes"/>
      <point x="293" y="-9"/>
      <point x="266" y="10"/>
      <point x="266" y="56" type="curve" smooth="yes"/>
      <point x="266" y="143"/>
      <point x="354" y="319"/>
      <point x="354" y="368" type="curve" smooth="yes"/>
      <point x="354" y="381"/>
      <point x="341" y="390"/>
      <point x="329" y="390" type="curve" smooth="yes"/>
      <point x="228" y="390"/>
      <point x="132" y="65"/>
      <point x="115" y="0" type="curve"/>
      <point x="-6" y="0" type="line"/>
      <point x="8" y="52"/>
      <point x="96" y="346"/>
      <point x="96" y="381" type="curve" smooth="yes"/>
      <point x="96" y="403.801"/>
      <point x="72.7918" y="407.371"/>
      <point x="53.9132" y="407.371" type="curve" smooth="yes"/>
      <point x="49.6081" y="407.371"/>
      <point x="45.5282" y="407.186"/>
      <point x="42" y="407" type="curve"/>
      <point x="42" y="434" type="line"/>
      <point x="107" y="434"/>
      <point x="179" y="447"/>
      <point x="242" y="461" type="curve"/>
      <point x="182" y="275" type="line"/>
      <point x="185" y="273" type="line"/>
      <point x="233" y="344"/>
      <point x="301" y="462"/>
      <point x="398" y="462" type="curve" smooth="yes"/>
      <point x="450" y="462"/>
      <point x="474" y="437"/>
      <point x="474" y="383" type="curve" smooth="yes"/>
      <point x="474" y="298"/>
      <point x="387" y="137"/>
      <point x="387" y="77" type="curve" smooth="yes"/>
      <point x="387" y="68"/>
      <point x="392" y="59"/>
      <point x="402" y="59" type="curve" smooth="yes"/>
      <point x="425" y="59"/>
      <point x="460" y="118"/>
      <point x="471" y="135" type="curve"/>
    </contour>
  </outline>
</glyph>
<glyph name="uni01DC" format="1">
  <advance width="556"/>
  <unicode hex="01DC"/>
  <outline>
    <contour>
      <point x="492" y="120" type="line"/>
      <point x="460" y="62"/>
      <point x="407" y="-9"/>
      <point x="333" y="-9" type="curve" smooth="yes"/>
      <point x="296" y="-9"/>
      <point x="266" y="4"/>
      <point x="266" y="47" type="curve" smooth="yes"/>
      <point x="266" y="84"/>
      <point x="276" y="119"/>
      <point x="288" y="154" type="curve"/>
      <point x="286" y="155" type="line"/>
      <point x="240" y="91"/>
      <point x="181" y="-9"/>
      <point x="92" y="-9" type="curve" smooth="yes"/>
      <point x="37" y="-9"/>
      <point x="15" y="17"/>
      <point x="15" y="69" type="curve" smooth="yes"/>
      <point x="15" y="168"/>
      <point x="90" y="283"/>
      <point x="90" y="378" type="curve" smooth="yes"/>
      <point x="90" y="408"/>
      <point x="55" y="406"/>
      <point x="34" y="407" type="curve"/>
      <point x="34" y="434" type="line"/>
      <point x="105" y="437"/>
      <point x="173" y="456"/>
      <point x="243" y="462" type="curve"/>
      <point x="149" y="154" type="line" smooth="yes"/>
      <point x="142" y="132"/>
      <point x="134" y="110"/>
      <point x="134" y="87" type="curve" smooth="yes"/>
      <point x="134" y="71"/>
      <point x="141" y="63"/>
      <point x="157" y="63" type="curve" smooth="yes"/>
      <point x="195" y="63"/>
      <point x="254" y="150"/>
      <point x="271" y="182" type="curve" smooth="yes"/>
      <point x="317" y="266"/>
      <point x="344" y="358"/>
      <point x="370" y="449" type="curve"/>
      <point x="488" y="449" type="line"/>
      <point x="470" y="386"/>
      <point x="385" y="121"/>
      <point x="385" y="78" type="curve" smooth="yes"/>
      <point x="385" y="68"/>
      <point x="389" y="59"/>
      <point x="400" y="59" type="curve" smooth="yes"/>
      <point x="423" y="59"/>
      <point x="459" y="114"/>
      <point x="471" y="133" type="curve"/>
    </contour>
    <contour>
      <point x="216" y="655" type="curve" smooth="yes"/>
      <point x="252" y="655"/>
      <point x="282" y="625"/>
      <point x="282" y="589" type="curve" smooth="yes"/>
      <point x="282" y="555"/>
      <point x="251" y="525"/>
      <point x="216" y="525" type="curve" smooth="yes"/>
      <point x="182" y="525"/>
      <point x="152" y="555"/>
      <point x="152" y="589" type="curve" smooth="yes"/>
      <point x="152" y="625"/>
      <point x="181" y="655"/>
    </contour>
    <contour>
      <point x="428" y="655" type="curve" smooth="yes"/>
      <point x="464" y="655"/>
      <point x="494" y="625"/>
      <point x="494" y="589" type="curve" smooth="yes"/>
      <point x="494" y="555"/>
      <point x="463" y="525"/>
      <point x="428" y="525" type="curve" smooth="yes"/>
      <point x="394" y="525"/>
      <point x="364" y="555"/>
      <point x="364" y="589" type="curve" smooth="yes"/>
      <point x="364" y="625"/>
      <point x="393" y="655"/>
    </contour>
    <contour>
      <point x="351" y="653" type="line"/>
      <point x="306" y="653" type="line"/>
      <point x="173" y="742" type="line" smooth="yes"/>
      <point x="151" y="757"/>
      <point x="139" y="774"/>
      <point x="139" y="789" type="curve" smooth="yes"/>
      <point x="139" y="813"/>
      <point x="160" y="834"/>
      <point x="184" y="834" type="curve" smooth="yes"/>
      <point x="203" y="834"/>
      <point x="224" y="821"/>
      <point x="240" y="800" type="curve" smooth="yes"/>
    </contour>
  </outline>
</glyph>
<glyph name="uni01E1" format="1">
  <advance width="500"/>
  <unicode hex="01E1"/>
  <outline>
    <contour>
      <point x="455" y="112" type="line"/>
      <point x="425" y="64"/>
      <point x="367" y="-14"/>
      <point x="304" y="-14" type="curve" smooth="yes"/>
      <point x="267" y="-14"/>
      <point x="237" y="15"/>
      <point x="237" y="52" type="curve" smooth="yes"/>
      <point x="237" y="73"/>
      <point x="244" y="95"/>
      <point x="250" y="115" type="curve"/>
      <point x="248" y="114" type="line"/>
      <point x="213" y="55"/>
      <point x="164" y="-13"/>
      <point x="88" y="-13" type="curve" smooth="yes"/>
      <point x="11" y="-13"/>
      <point x="-21" y="48"/>
      <point x="-21" y="117" type="curve" smooth="yes"/>
      <point x="-21" y="242"/>
      <point x="112" y="462"/>
      <point x="250" y="462" type="curve" smooth="yes"/>
      <point x="296" y="462"/>
      <point x="319" y="437"/>
      <point x="325" y="394" type="curve"/>
      <point x="327" y="394" type="line"/>
      <point x="344" y="449" type="line"/>
      <point x="455" y="456" type="line"/>
      <point x="440" y="406"/>
      <point x="350" y="148"/>
      <point x="350" y="72" type="curve" smooth="yes"/>
      <point x="350" y="65"/>
      <point x="355" y="57"/>
      <point x="363" y="57" type="curve" smooth="yes"/>
      <point x="385" y="57"/>
      <point x="422" y="111"/>
      <point x="434" y="127" type="curve"/>
    </contour>
    <contour>
      <point x="303" y="371" type="curve" smooth="yes"/>
      <point x="303" y="393"/>
      <point x="292" y="420"/>
      <point x="266" y="420" type="curve" smooth="yes"/>
      <point x="184" y="420"/>
      <point x="102" y="184"/>
      <point x="102" y="115" type="curve" smooth="yes"/>
      <point x="102" y="89"/>
      <point x="116" y="58"/>
      <point x="146" y="58" type="curve" smooth="yes"/>
      <point x="234" y="58"/>
      <point x="303" y="300"/>
    </contour>
    <contour>
      <point x="279" y="655" type="curve" smooth="yes"/>
      <point x="315" y="655"/>
      <point x="345" y="625"/>
      <point x="345" y="589" type="curve" smooth="yes"/>
      <point x="345" y="555"/>
      <point x="314" y="525"/>
      <point x="279" y="525" type="curve" smooth="yes"/>
      <point x="245" y="525"/>
      <point x="215" y="555"/>
      <point x="215" y="589" type="curve" smooth="yes"/>
      <point x="215" y="625"/>
      <point x="244" y="655"/>
    </contour>
    <contour>
      <point x="484" y="771" type="line"/>
      <point x="468" y="701" type="line"/>
      <point x="142" y="701" type="line"/>
      <point x="159" y="771" type="line"/>
    </contour>
  </outline>
</glyph>
<glyph name="uni01E5" format="1">
  <advance width="500"/>
  <unicode hex="01E5"/>
  <outline>
    <contour>
      <point x="300" y="369" type="curve" smooth="yes"/>
      <point x="300" y="398"/>
      <point x="288" y="431"/>
      <point x="254" y="431" type="curve" smooth="yes"/>
      <point x="188" y="431"/>
      <point x="151" y="301"/>
      <point x="151" y="248" type="curve" smooth="yes"/>
      <point x="151" y="218"/>
      <point x="157" y="184"/>
      <point x="195" y="184" type="curve" smooth="yes"/>
      <point x="263" y="184"/>
      <point x="300" y="315"/>
    </contour>
    <contour>
      <point x="478" y="373" type="line"/>
      <point x="411" y="373" type="line"/>
      <point x="415" y="359"/>
      <point x="417" y="345"/>
      <point x="417" y="330" type="curve" smooth="yes"/>
      <point x="417" y="214"/>
      <point x="300" y="153"/>
      <point x="197" y="153" type="curve" smooth="yes"/>
      <point x="180" y="153"/>
      <point x="165" y="161"/>
      <point x="149" y="161" type="curve" smooth="yes"/>
      <point x="136" y="161"/>
      <point x="122" y="139"/>
      <point x="122" y="127" type="curve" smooth="yes"/>
      <point x="122" y="60"/>
      <point x="375" y="91"/>
      <point x="375" y="-55" type="curve" smooth="yes"/>
      <point x="375" y="-56.3446"/>
      <point x="374.979" y="-57.6779"/>
      <point x="374.938" y="-59" type="curve" smooth="yes"/>
      <point x="422" y="-59" type="line"/>
      <point x="406" y="-129" type="line"/>
      <point x="347.926" y="-129" type="line"/>
      <point x="299.746" y="-185.402"/>
      <point x="198" y="-203"/>
      <point x="132" y="-203" type="curve" smooth="yes"/>
      <point x="77.1058" y="-203"/>
      <point x="-21.8236" y="-187.815"/>
      <point x="-46.3721" y="-129" type="curve"/>
      <point x="-90" y="-129" type="line"/>
      <point x="-73" y="-59" type="line"/>
      <point x="-42.7117" y="-59" type="line"/>
      <point x="-21.5711" y="-18.3313"/>
      <point x="31.8806" y="-4.94358"/>
      <point x="78" y="6" type="curve"/>
      <point x="78" y="8" type="line"/>
      <point x="48" y="18"/>
      <point x="19" y="37"/>
      <point x="19" y="72" type="curve" smooth="yes"/>
      <point x="19" y="124"/>
      <point x="76" y="148"/>
      <point x="115" y="170" type="curve"/>
      <point x="65" y="189"/>
      <point x="35" y="229"/>
      <point x="35" y="283" type="curve" smooth="yes"/>
      <point x="35" y="398"/>
      <point x="158" y="462"/>
      <point x="259" y="462" type="curve" smooth="yes"/>
      <point x="297" y="462"/>
      <point x="337" y="453"/>
      <point x="367" y="429" type="curve"/>
      <point x="478" y="429" type="line"/>
    </contour>
    <contour>
      <point x="248.67" y="-59" type="line"/>
      <point x="242.026" y="-52.5448"/>
      <point x="233.886" y="-47.25"/>
      <point x="225" y="-43" type="curve" smooth="yes"/>
      <point x="214" y="-38"/>
      <point x="122" y="-6"/>
      <point x="113" y="-6" type="curve" smooth="yes"/>
      <point x="92.7174" y="-6"/>
      <point x="62.6515" y="-32.9039"/>
      <point x="46.4087" y="-59" type="curve"/>
    </contour>
    <contour>
      <point x="47.5228" y="-129" type="line"/>
      <point x="68.0445" y="-156.933"/>
      <point x="109.957" y="-169"/>
      <point x="144" y="-169" type="curve" smooth="yes"/>
      <point x="181.056" y="-169"/>
      <point x="237.58" y="-163.16"/>
      <point x="258.16" y="-129" type="curve"/>
    </contour>
  </outline>
</glyph>
<glyph name="uni01EA" format="1">
  <advance width="722"/>
  <unicode hex="01EA"/>
  <outline>
    <contour>
      <point x="339" y="-124" type="curve"/>
      <point x="361" y="-140" type="line"/>
      <point x="336" y="-186"/>
      <point x="288" y="-215"/>
      <point x="238" y="-215" type="curve" smooth="yes"/>
      <point x="177" y="-215"/>
      <point x="132" y="-181"/>
      <point x="132" y="-134" type="curve" smooth="yes"/>
      <point x="132" y="-81.8135"/>
      <point x="186.294" y="-30.5965"/>
      <point x="199.417" y="-9.94341" type="curve"/>
      <point x="100.599" y="15.0656"/>
      <point x="27" y="96.3811"/>
      <point x="27" y="207" type="curve" smooth="yes"/>
      <point x="27" y="430"/>
      <point x="211" y="685"/>
      <point x="449" y="685" type="curve" smooth="yes"/>
      <point x="592" y="685"/>
      <point x="691" y="588"/>
      <point x="691" y="444" type="curve" smooth="yes"/>
      <point x="691" y="225"/>
      <point x="493" y="-18"/>
      <point x="265" y="-18" type="curve" smooth="yes"/>
      <point x="252.574" y="-18"/>
      <point x="240.349" y="-17.1686"/>
      <point x="228.399" y="-15.5476" type="curve"/>
      <point x="223.351" y="-35.0361"/>
      <point x="216" y="-64.4099"/>
      <point x="216" y="-80" type="curve" smooth="yes"/>
      <point x="216" y="-121"/>
      <point x="238" y="-144"/>
      <point x="279" y="-144" type="curve" smooth="yes"/>
      <point x="300" y="-144"/>
      <point x="327" y="-131"/>
    </contour>
    <contour>
      <point x="547" y="526" type="curve" smooth="yes"/>
      <point x="547" y="593"/>
      <point x="518" y="651"/>
      <point x="442" y="651" type="curve" smooth="yes"/>
      <point x="274" y="651"/>
      <point x="171" y="284"/>
      <point x="171" y="150" type="curve" smooth="yes"/>
      <point x="171" y="79"/>
      <point x="195" y="16"/>
      <point x="275" y="16" type="curve" smooth="yes"/>
      <point x="445" y="16"/>
      <point x="547" y="391"/>
    </contour>
  </outline>
</glyph>
<glyph name="uni01EB" format="1">
  <advance width="500"/>
  <unicode hex="01EB"/>
  <outline>
    <contour>
      <point x="260" y="-124" type="curve"/>
      <point x="282" y="-140" type="line"/>
      <point x="257" y="-186"/>
      <point x="209" y="-215"/>
      <point x="159" y="-215" type="curve" smooth="yes"/>
      <point x="98" y="-215"/>
      <point x="53" y="-181"/>
      <point x="53" y="-134" type="curve" smooth="yes"/>
      <point x="53" y="-81.6265"/>
      <point x="107.684" y="-30.2295"/>
      <point x="120.556" y="-9.72259" type="curve"/>
      <point x="47.2893" y="4.23098"/>
      <point x="-3" y="61.359"/>
      <point x="-3" y="135" type="curve" smooth="yes"/>
      <point x="-3" y="303"/>
      <point x="137" y="462"/>
      <point x="284" y="462" type="curve" smooth="yes"/>
      <point x="375" y="462"/>
      <point x="441" y="399"/>
      <point x="441" y="311" type="curve" smooth="yes"/>
      <point x="441" y="142"/>
      <point x="305" y="-13"/>
      <point x="156" y="-13" type="curve" smooth="yes"/>
      <point x="154.016" y="-13"/>
      <point x="152.044" y="-12.9707"/>
      <point x="150.083" y="-12.9125" type="curve" smooth="yes"/>
      <point x="145.046" y="-32.293"/>
      <point x="137" y="-63.6897"/>
      <point x="137" y="-80" type="curve" smooth="yes"/>
      <point x="137" y="-121"/>
      <point x="159" y="-144"/>
      <point x="200" y="-144" type="curve" smooth="yes"/>
      <point x="221" y="-144"/>
      <point x="248" y="-131"/>
    </contour>
    <contour>
      <point x="322" y="369" type="curve" smooth="yes"/>
      <point x="322" y="402"/>
      <point x="312" y="433"/>
      <point x="274" y="433" type="curve" smooth="yes"/>
      <point x="171" y="433"/>
      <point x="116" y="166"/>
      <point x="116" y="86" type="curve" smooth="yes"/>
      <point x="116" y="50"/>
      <point x="124" y="16"/>
      <point x="168" y="16" type="curve" smooth="yes"/>
      <point x="264" y="16"/>
      <point x="322" y="294"/>
    </contour>
  </outline>
</glyph>
<glyph name="uni01ED" format="1">
  <advance width="500"/>
  <unicode hex="01ED"/>
  <outline>
    <contour>
      <point x="481" y="623" type="line"/>
      <point x="465" y="553" type="line"/>
      <point x="139" y="553" type="line"/>
      <point x="156" y="623" type="line"/>
    </contour>
    <contour>
      <point x="275" y="-125" type="curve"/>
      <point x="297" y="-141" type="line"/>
      <point x="272" y="-187"/>
      <point x="224" y="-216"/>
      <point x="174" y="-216" type="curve" smooth="yes"/>
      <point x="113" y="-216"/>
      <point x="68" y="-182"/>
      <point x="68" y="-135" type="curve" smooth="yes"/>
      <point x="68" y="-83.5661"/>
      <point x="120.739" y="-33.0739"/>
      <point x="134.824" y="-11.8559" type="curve"/>
      <point x="53.8972" y="-2.97691"/>
      <point x="-3" y="56.6702"/>
      <point x="-3" y="135" type="curve" smooth="yes"/>
      <point x="-3" y="303"/>
      <point x="137" y="462"/>
      <point x="284" y="462" type="curve" smooth="yes"/>
      <point x="375" y="462"/>
      <point x="441" y="399"/>
      <point x="441" y="311" type="curve" smooth="yes"/>
      <point x="441" y="145.551"/>
      <point x="310.655" y="-6.4804"/>
      <point x="165.374" y="-12.796" type="curve"/>
      <point x="160.362" y="-32.0665"/>
      <point x="152" y="-64.3726"/>
      <point x="152" y="-81" type="curve" smooth="yes"/>
      <point x="152" y="-122"/>
      <point x="174" y="-145"/>
      <point x="215" y="-145" type="curve" smooth="yes"/>
      <point x="236" y="-145"/>
      <point x="263" y="-132"/>
    </contour>
    <contour>
      <point x="322" y="369" type="curve" smooth="yes"/>
      <point x="322" y="402"/>
      <point x="312" y="433"/>
      <point x="274" y="433" type="curve" smooth="yes"/>
      <point x="171" y="433"/>
      <point x="116" y="166"/>
      <point x="116" y="86" type="curve" smooth="yes"/>
      <point x="116" y="50"/>
      <point x="124" y="16"/>
      <point x="168" y="16" type="curve" smooth="yes"/>
      <point x="264" y="16"/>
      <point x="322" y="294"/>
    </contour>
  </outline>
</glyph>
<glyph name="uni01F1" format="1">
  <advance width="1355"/>
  <unicode hex="01F1"/>
  <outline>
    <contour>
      <point x="1298" y="194" type="line"/>
      <point x="1239" y="0" type="line"/>
      <point x="733" y="0" type="line"/>
      <point x="733" y="29" type="line"/>
      <point x="1167" y="634" type="line"/>
      <point x="1089" y="634" type="line" smooth="yes"/>
      <point x="979" y="634"/>
      <point x="916" y="597"/>
      <point x="837" y="487" type="curve"/>
      <point x="809" y="491" type="line"/>
      <point x="866" y="669" type="line"/>
      <point x="1334" y="669" type="line"/>
      <point x="1334" y="640" type="line"/>
      <point x="900" y="35" type="line"/>
      <point x="970" y="35" type="line" smooth="yes"/>
      <point x="1058" y="35"/>
      <point x="1117" y="49"/>
      <point x="1162" y="80" type="curve" smooth="yes"/>
      <point x="1202" y="107"/>
      <point x="1240" y="149"/>
      <point x="1271" y="199" type="curve"/>
    </contour>
    <contour>
      <point x="707" y="391" type="curve" smooth="yes"/>
      <point x="707" y="143"/>
      <point x="493" y="0"/>
      <point x="262" y="0" type="curve" smooth="yes"/>
      <point x="-24" y="0" type="line"/>
      <point x="-24" y="25" type="line"/>
      <point x="26" y="30"/>
      <point x="43" y="50"/>
      <point x="56" y="97" type="curve" smooth="yes"/>
      <point x="188" y="582" type="line" smooth="yes"/>
      <point x="189.766" y="588.593"/>
      <point x="190.576" y="594.452"/>
      <point x="190.576" y="599.662" type="curve" smooth="yes"/>
      <point x="190.576" y="638.706"/>
      <point x="145.115" y="641.353"/>
      <point x="116" y="644" type="curve"/>
      <point x="116" y="669" type="line"/>
      <point x="406" y="669" type="line" smooth="yes"/>
      <point x="585" y="669"/>
      <point x="707" y="578"/>
    </contour>
    <contour>
      <point x="560" y="453" type="curve" smooth="yes"/>
      <point x="560" y="562"/>
      <point x="520" y="638"/>
      <point x="398" y="638" type="curve" smooth="yes"/>
      <point x="368" y="638"/>
      <point x="349" y="633"/>
      <point x="340" y="600" type="curve" smooth="yes"/>
      <point x="212" y="126" type="line" smooth="yes"/>
      <point x="207" y="107"/>
      <point x="199" y="88"/>
      <point x="199" y="69" type="curve" smooth="yes"/>
      <point x="199" y="35"/>
      <point x="233" y="34"/>
      <point x="258" y="34" type="curve" smooth="yes"/>
      <point x="475" y="34"/>
      <point x="560" y="270"/>
    </contour>
  </outline>
</glyph>
